<?xml version="1.0" encoding="UTF-8" standalone="no"?>
<!-- Created with Inkscape (http://www.inkscape.org/) -->

<svg
   xmlns:dc="http://purl.org/dc/elements/1.1/"
   xmlns:cc="http://creativecommons.org/ns#"
   xmlns:rdf="http://www.w3.org/1999/02/22-rdf-syntax-ns#"
   xmlns:svg="http://www.w3.org/2000/svg"
   xmlns="http://www.w3.org/2000/svg"
   xmlns:sodipodi="http://sodipodi.sourceforge.net/DTD/sodipodi-0.dtd"
   xmlns:inkscape="http://www.inkscape.org/namespaces/inkscape"
   id="svg3068"
   version="1.1"
   inkscape:version="0.48.2 r9819"
   width="172"
   height="170"
   xml:space="preserve"
   sodipodi:docname="CHN ENERGY logo.svg"><metadata
     id="metadata3074"><rdf:RDF><cc:Work
         rdf:about=""><dc:format>image/svg+xml</dc:format><dc:type
           rdf:resource="http://purl.org/dc/dcmitype/StillImage" /><dc:title /></cc:Work></rdf:RDF></metadata><defs
     id="defs3072"><clipPath
       clipPathUnits="userSpaceOnUse"
       id="clipPath3086"><path
         d="m 892.4564,758.7383 33.607,-33.607 -83.0233,-83.0231 7.6841,-7.6845 83.0234,83.0234 34.0696,-34.0696 -83.0234,-83.0234 7.6845,-7.6841 83.0231,83.0231 34.0324,-34.0353 -117.0774,-117.0774 -42.0613,42.0613 -42.0613,-42.0613 -117.0805,117.0774 117.0805,117.0805 34.3772,-34.3772 -78.8613,-78.8613 -3.8421,-3.842 3.8421,-3.8421 44.9374,-44.9377 7.6844,7.6842 -41.0956,41.0956 75.0192,75.0191 17.0612,17.0612 25.0001,25.0002 z"
         clip-rule="evenodd"
         id="path3088"
         inkscape:connector-curvature="0" /></clipPath><linearGradient
       x1="0.44"
       y1="0"
       x2="0.56"
       y2="0"
       gradientUnits="userSpaceOnUse"
       gradientTransform="matrix(0,-1019.1158,570.70431,0,566.2293,1129.7049)"
       spreadMethod="pad"
       id="linearGradient3100"><stop
         style="stop-opacity:1;stop-color:#f7ad0d"
         offset="0"
         id="stop3102" /><stop
         style="stop-opacity:1;stop-color:#da6f29"
         offset="0.34"
         id="stop3104" /><stop
         style="stop-opacity:1;stop-color:#c22d31"
         offset="1"
         id="stop3106" /></linearGradient></defs><sodipodi:namedview
     pagecolor="#ffffff"
     bordercolor="#666666"
     borderopacity="1"
     objecttolerance="10"
     gridtolerance="10"
     guidetolerance="10"
     inkscape:pageopacity="0"
     inkscape:pageshadow="2"
     inkscape:window-width="1366"
     inkscape:window-height="706"
     id="namedview3070"
     showgrid="false"
     inkscape:zoom="1.8838581"
     inkscape:cx="180.33604"
     inkscape:cy="123.10031"
     inkscape:window-x="-8"
     inkscape:window-y="-8"
     inkscape:window-maximized="1"
     inkscape:current-layer="g3076" /><g
     id="g3076"
     inkscape:groupmode="layer"
     inkscape:label="Nipic_20741653_20180726110019855589"
     transform="matrix(1.25,0,0,-1.25,0,170.00015)"><path
       d="M 83.492264,134.22819 95.113725,122.60673 66.403868,93.896952 69.061068,91.239615 97.770958,119.94949 109.55239,108.16807 80.842499,79.458177 83.499836,76.800985 112.20963,105.51077 123.97819,93.74119 83.492264,53.255273 68.947263,67.800269 54.402263,53.255273 13.915264,93.74119 l 40.486999,40.487 11.887801,-11.8878 -27.270616,-27.27061 -1.328616,-1.32859 1.328616,-1.328614 15.539569,-15.539668 2.657302,2.657228 -14.211055,14.211054 25.941999,25.94198 5.899845,5.89983 8.645156,8.64519 z"
       style="fill:#c22d31;fill-opacity:1;fill-rule:evenodd;stroke:none"
       id="path3080"
       inkscape:connector-curvature="0" /><g
       id="g3082"
       transform="matrix(0.34580481,0,0,0.34580481,-225.12345,-128.14716)"><g
         id="g3084"
         clip-path="url(#clipPath3086)"><g
           id="g3090"><g
             id="g3092"><g
               id="g3098"><path
                 d="m 850.3951,678.9172 c 156.9396,0 284.1642,-127.2246 284.1642,-284.1642 0,-156.9398 -127.2246,-284.1644 -284.1642,-284.1644 -156.9396,0 -284.1644,127.2246 -284.1644,284.1644 0,156.9396 127.2248,284.1642 284.1644,284.1642"
                 style="fill:url(#linearGradient3100);fill-rule:evenodd;stroke:none"
                 id="path3108"
                 inkscape:connector-curvature="0" /></g></g></g></g></g><path
       d="m 18.308679,37.823457 -14.6925546,0 0,-15.373307 14.6925546,0 0,15.373307 z m 0.563317,-17.540711 -0.563317,0 -14.6925546,0 -0.5633159,0 -0.823223,0 c -0.762811,0 -1.3867117,0.623905 -1.3867117,1.386711 l 0,16.934645 c 0,0.762819 0.6239007,1.386723 1.3867117,1.386723 l 0.8218404,0 0.5646985,0 14.6925546,0 0.564699,0 0.821841,0 c 0.762809,0 1.386745,-0.623904 1.386745,-1.386723 l 0,-16.934645 c 0,-0.762806 -0.623936,-1.386711 -1.386745,-1.386711 l -0.823223,0 z"
       style="fill:#3d3837;fill-opacity:1;fill-rule:evenodd;stroke:none"
       id="path3110"
       inkscape:connector-curvature="0" /><path
       d="m 17.659673,25.829382 0,-2.16739 -13.3944382,0 0,2.16739 5.3105252,0 0,3.733239 -4.6116189,0 0,2.167367 4.6116189,0 0,2.625877 -4.9349813,0 0,2.167296 12.6433513,0 0,-2.167296 -4.935086,0 0,-2.625877 4.611619,0 0,-2.167367 -4.611619,0 0,-3.733239 1.7847,0 -1.074139,3.230965 2.473645,0 1.074139,-3.230965 1.052284,0 z"
       style="fill:#3d3837;fill-opacity:1;fill-rule:evenodd;stroke:none"
       id="path3112"
       inkscape:connector-curvature="0" /><path
       d="m 24.37572,29.740234 c -0.421189,-0.04351 -0.856522,-0.07699 -1.305862,-0.09934 m 1.305862,-7.606912 c -0.135278,-0.02634 -0.271801,-0.05221 -0.410019,-0.07759 m 0.410019,4.002411 c -0.421605,-0.0608 -0.856143,-0.11458 -1.305862,-0.159007 m 17.582273,9.717041 0,-2.167356 -5.126244,0 c -0.114284,-0.121377 -0.283769,-0.292137 -0.510098,-0.497209 l 1.006775,-1.048924 1.475169,0.419739 c 0.399647,-1.397153 0.876339,-2.591457 1.401824,-3.614036 l 1.949302,3.785871 2.873155,0 -2.702708,-5.249084 -1.262707,0 c 0.747526,-1.120678 1.553841,-1.97292 2.354793,-2.626796 0.912026,-0.744799 1.827855,-1.239336 2.642329,-1.583299 l 0,-2.481947 c -1.156682,0.40103 -2.616047,1.05591 -4.102179,2.269553 -1.154814,0.942871 -2.314056,2.21629 -3.335944,3.957598 l 0,-5.261631 c 0,-0.762818 -0.623797,-1.38671 -1.386747,-1.38671 l -1.117156,0 -0.269382,0 -4.069051,0 0,2.167391 4.069051,0 0,2.484306 C 32.68624,23.46793 29.405694,21.804371 24.37572,20.856169 l 0,1.177843 0,0.09633 0,1.083164 c 6.284589,1.260971 9.329504,3.600862 10.166593,4.341853 l 0,1.11982 C 32.97139,27.477617 29.703708,25.530948 24.37572,24.789812 l 0,1.168925 0,0.349158 0,0.819175 c 5.80053,0.868774 8.650861,3.208799 9.385662,3.902136 l -0.479631,0.499722 C 31.45144,30.338963 28.537136,28.989175 24.37572,28.57746 l 0,1.162774 0,0.342789 0,0.820636 c 3.53551,0.379554 5.975404,1.478695 7.503204,2.445811 l -4.154222,0 0,2.167355 12.927429,0 z"
       style="fill:#3d3837;fill-opacity:1;fill-rule:evenodd;stroke:none"
       id="path3114"
       inkscape:connector-curvature="0" /><path
       d="m 57.089271,36.040865 -1.251261,2.620089 -3.03589,0 1.399403,-2.929617 -4.245791,0 2.799636,4.162173 -3.035889,0 -2.559681,-3.805583 c -0.327098,-0.487371 -0.239852,-0.853208 -0.239852,-1.440178 0,-0.596264 0.487446,-1.083707 1.083753,-1.083707 l 8.149858,0 c 0.596271,0 1.083753,0.487443 1.083753,1.083707 0,0.504364 0.07048,0.936346 -0.148039,1.393116"
       style="fill:#3d3837;fill-opacity:1;fill-rule:evenodd;stroke:none"
       id="path3116"
       inkscape:connector-curvature="0" /><path
       d="m 54.280022,30.627632 -4.137175,0 0,-1.214223 4.137175,0 0,1.214223 z m -5.843964,2.129853 0,0.03747 0.320251,0 1.386538,0 4.137175,0 1.204335,0 0.182204,0 c 0.76281,0 1.386746,-0.623905 1.386746,-1.386747 l 0,-9.855375 c 0,-0.762806 -0.623936,-1.386746 -1.386746,-1.386746 l -0.726848,0 -0.659691,0 -2.90483,0 0,2.344037 2.90483,0 0,1.442426 -4.137175,0 0,-3.786463 -2.773285,0 0,11.242121 c 0,0.652741 0.456704,1.203743 1.066496,1.349293 z m 1.706789,-6.637548 4.137175,0 0,1.126069 -4.137175,0 0,-1.126069 z"
       style="fill:#3d3837;fill-opacity:1;fill-rule:evenodd;stroke:none"
       id="path3118"
       inkscape:connector-curvature="0" /><path
       d="m 67.074938,40.649754 c -0.178815,-0.327682 -0.444049,-0.758323 -0.785876,-1.238913 m 1.104846,-6.415822 0,-2.167404 -6.168155,0 -0.428937,0 -1.027281,0 c -0.800954,0 -1.456045,0.655098 -1.456045,1.456047 l 0,7.563064 2.912263,0 0,-3.4907 c 0.520229,0.25095 1.011825,0.567052 1.468806,0.918568 0.849263,0.653539 1.574727,1.420949 2.147794,2.136247 l 0.776124,0 0.670585,0 1.393696,0 c -0.718305,-1.125803 -1.958015,-2.724982 -3.573615,-3.967908 -0.858599,-0.660657 -1.825124,-1.226574 -2.88339,-1.585618 l 0,-0.862296 6.168155,0 z"
       style="fill:#3d3837;fill-opacity:1;fill-rule:evenodd;stroke:none"
       id="path3120"
       inkscape:connector-curvature="0" /><path
       d="M 66.751437,30.534027 C 66.633239,30.3171 66.480015,30.061557 66.294076,29.7802 m 1.099832,-7.298312 0,-2.167392 -6.168155,0 -0.428937,0 -1.027281,0 c -0.800954,0 -1.456045,0.655085 -1.456045,1.456046 l 0,8.340326 2.912263,0 0,-3.5961 c 0.45131,0.247215 0.875162,0.530119 1.269519,0.833495 0.997093,0.767242 1.800087,1.655233 2.385015,2.431937 l 1.060896,0 0.352893,0 1.360258,0 c -0.628812,-1.088517 -1.916658,-2.857175 -3.744479,-4.263693 -0.793207,-0.610381 -1.690328,-1.156683 -2.684102,-1.559659 l 0,-1.47496 6.168155,0 z"
       style="fill:#3d3837;fill-opacity:1;fill-rule:evenodd;stroke:none"
       id="path3122"
       inkscape:connector-curvature="0" /><path
       d="m 69.922503,40.023771 3.130189,0 1.968287,-4.552799 -3.130156,0 -1.96832,4.552799 z m 4.955866,-11.254944 c -0.153987,-1.392138 -0.502938,-3.127729 -1.090322,-5.066662 l 0.0055,-0.0012 c -0.336398,-1.110514 -0.756448,-2.296697 -1.270071,-3.531877 l -3.151838,0 c 0.684693,1.515352 1.227539,2.993419 1.644612,4.370654 l 0.0058,0 c 0.484265,1.597693 0.786464,3.040288 0.937511,4.229335 l 2.918939,0 z m -4.985261,5.932353 3.130156,0 2.057124,-4.797353 -3.13026,0 -2.05702,4.797353 z"
       style="fill:#3d3837;fill-opacity:1;fill-rule:evenodd;stroke:none"
       id="path3124"
       inkscape:connector-curvature="0" /><path
       d="m 85.955326,37.666802 0,-1.205303 3.176044,0 c 0.562833,0 1.023064,-0.460227 1.023064,-1.023061 l 0,-0.467394 0,-0.55539 0,-1.132172 0,-2.045845 0,-1.112073 0,-0.535895 0,-0.486888 c 0,-0.562835 -0.460231,-1.023073 -1.023064,-1.023073 l -2.757584,0 0,-6.474257 0,-1.4676 -1.467631,0 -0.754857,0 -0.571098,0 -0.141641,0 -1.396637,0 0,2.306111 1.396637,0 0,5.635746 -2.864231,0 c -0.562763,0 -1.022995,0.460238 -1.022995,1.023073 l 0,0.486888 0,0.535895 0,1.112073 0,2.045845 0,1.132172 0,0.55539 0,0.467394 c 0,0.562834 0.460232,1.023061 1.022995,1.023061 l 2.801019,0 0,1.205303 -4.727498,0 0,-10.421062 0,-0.06732 -0.01148,-0.09717 c -0.0013,-0.01354 -0.454043,-3.827507 -1.471226,-6.912403 l -3.076489,0 c 1.042188,2.530872 1.575349,6.503866 1.657201,7.149235 l 0,10.348729 -0.01063,0 0,1.083551 c 0,0.596263 0.487447,1.083744 1.083718,1.083744 l 14.041369,0 0,-2.167295 -4.905068,0 z m 3.616739,-10.479678 c 0.129884,-0.859191 0.285946,-1.727095 0.573828,-2.750953 0.291064,-1.035027 0.720276,-2.245684 1.39764,-3.793788 l -2.516941,0 c -0.505324,1.230683 -0.855763,2.257588 -1.111693,3.168227 -0.362887,1.290967 -0.533162,2.328822 -0.685592,3.376514 l 2.342758,0 z m -7.218433,0 c -0.08998,-1.035449 -0.216821,-2.060445 -0.551767,-3.35262 -0.237706,-0.917384 -0.578255,-1.950646 -1.083372,-3.192121 l -2.514484,0 c 0.678538,1.553386 1.094056,2.753951 1.357906,3.772529 0.264471,1.02091 0.380557,1.892452 0.461787,2.772212 l 2.32993,0 z m 5.007252,2.93844 0,1.112073 -5.015968,0 0,-1.112073 5.015968,0 z m -5.015968,4.29009 5.015968,0 0,-1.132172 -5.015968,0 0,1.132172 z"
       style="fill:#3d3837;fill-opacity:1;fill-rule:evenodd;stroke:none"
       id="path3126"
       inkscape:connector-curvature="0" /><path
       d="m 107.77485,24.415116 2.12462,-4.023476 3.20292,0 -2.12456,4.023476 3.19254,0 0,2.167404 -8.79849,0 0,1.067151 0.4268,0 7.35098,0 0,2.167294 -7.35098,0 0,0.87547 6.70615,0 0,2.047791 -6.70615,0 0,0.769211 6.70615,0 0,2.047779 -6.70615,0 0,0.884776 7.35098,0 0,2.167307 -7.44432,0 -0.31609,1.60052 -2.93229,0 0.31613,-1.60052 -3.97533,0 c 0.30181,0.578426 0.53285,1.143158 0.68068,1.663451 -0.81607,0 -1.632304,0 -2.448335,0 -0.368177,-0.888402 -1.02455,-1.912225 -1.875575,-2.844932 -0.534718,-0.586004 -1.140707,-1.125695 -1.792272,-1.559067 l 0,-2.652212 c 0.552354,0.255337 1.082957,0.57185 1.585411,0.93208 l 0,-5.102207 c 0,-0.768208 0.628536,-1.396741 1.396844,-1.396741 2.031534,0 4.063487,0 6.095017,0 l 0,-1.067151 -8.67351,0 0,-2.167404 3.113799,0 -2.124658,-4.023476 3.203017,0 2.124562,4.023476 2.35679,0 0,-4.264116 2.93235,0 0,4.264116 2.40297,0 z m -10.033596,9.094321 5.125066,0 0,-0.769211 -5.125066,0 0,0.769211 z m 0,-2.817002 5.125066,0 0,-0.87547 -5.125066,0 0,0.87547 z m 0,5.749557 0,-0.884776 5.125066,0 0,0.884776 -5.125066,0 z"
       style="fill:#3d3837;fill-opacity:1;fill-rule:evenodd;stroke:none"
       id="path3128"
       inkscape:connector-curvature="0" /><path
       d="m 134.11853,37.581005 -14.44012,0 0,-15.160078 14.44012,0 0,15.160078 z m 0.23173,-17.413545 -0.23173,0 -14.44012,0 -0.20712,0 -1.25912,0 c -0.80635,0 -1.46604,0.65969 -1.46604,1.46603 l 0,16.734952 c 0,0.806351 0.65969,1.466041 1.46604,1.466041 l 1.22951,0 0.23673,0 14.44012,0 0.20213,0 1.26408,0 c 0.80636,0 1.46605,-0.65969 1.46605,-1.466041 l 0,-16.734952 c 0,-0.80634 -0.65969,-1.46603 -1.46605,-1.46603 l -1.23448,0 z"
       style="fill:#3d3837;fill-opacity:1;fill-rule:evenodd;stroke:none"
       id="path3130"
       inkscape:connector-curvature="0" /><path
       d="m 133.38914,34.57092 0,-2.25337 -2.42542,0 0,-7.703948 c 0,-0.806339 -0.65969,-1.466029 -1.4661,-1.466029 l -0.84156,0 -0.62469,0 -3.82723,0 0,2.253466 3.82723,0 0,6.548535 c -0.53258,-1.335454 -1.60033,-2.933147 -2.96441,-4.374594 -1.3142,-1.388692 -2.92337,-2.669446 -4.61082,-3.467869 l 0,2.629975 c 1.05725,0.649224 2.06466,1.507399 2.93314,2.424999 1.02435,1.082681 1.83902,2.216013 2.29618,3.155465 l -5.00145,0 0,2.25337 7.34736,0 0,2.381757 2.93235,0 0,-2.381757 2.42542,0 z"
       style="fill:#3d3837;fill-opacity:1;fill-rule:evenodd;stroke:none"
       id="path3132"
       inkscape:connector-curvature="0" /><path
       d="m 26.305312,13.248072 2.676944,0 0,-4.3783038 4.688732,0 0,4.3783038 2.676945,0 0,-11.398451 -2.676945,0 0,4.7404304 -4.688732,0 0,-4.7404304 -2.676944,0 0,11.398451 z"
       style="fill:#3d3837;fill-opacity:1;fill-rule:evenodd;stroke:none"
       id="path3134"
       inkscape:connector-curvature="0" /><path
       d="m 38.199578,13.248072 2.67691,0 5.233376,-7.0853981 0,7.0853981 2.677014,0 0,-11.398451 -2.677014,0 -5.233376,7.2519765 0,-7.2519765 -2.67691,0 0,11.398451 z"
       style="fill:#3d3837;fill-opacity:1;fill-rule:evenodd;stroke:none"
       id="path3136"
       inkscape:connector-curvature="0" /><path
       d="m 55.152936,13.248072 1.112247,0 1.564664,0 6.79987,0 0,-2.279825 -6.79987,0 0,-2.251497 6.028726,0 0,-2.2797168 -6.028726,0 0,-2.3076591 6.79987,0 0,-2.2797531 -6.79987,0 -1.564664,0 -1.112247,0 0,11.398451 z"
       style="fill:#3d3837;fill-opacity:1;fill-rule:evenodd;stroke:none"
       id="path3138"
       inkscape:connector-curvature="0" /><path
       d="m 66.226125,13.248072 2.677048,0 5.23334,-7.0853981 0,7.0853981 2.676945,0 0,-11.398451 -2.676945,0 -5.23334,7.2519765 0,-7.2519765 -2.677048,0 0,11.398451 z"
       style="fill:#3d3837;fill-opacity:1;fill-rule:evenodd;stroke:none"
       id="path3140"
       inkscape:connector-curvature="0" /><path
       d="m 78.663756,13.248072 1.112142,0 1.564768,0 6.799767,0 0,-2.279825 -6.799767,0 0,-2.251497 6.028726,0 0,-2.2797168 -6.028726,0 0,-2.3076591 6.799767,0 0,-2.2797531 -6.799767,0 -1.564768,0 -1.112142,0 0,11.398451 z"
       style="fill:#3d3837;fill-opacity:1;fill-rule:evenodd;stroke:none"
       id="path3142"
       inkscape:connector-curvature="0" /><path
       d="M 24.886232,3.6510914 C 24.302998,2.9910144 23.585557,2.4709995 22.791174,2.1171399 21.992986,1.7617816 21.121836,1.5710438 20.235608,1.5710438 c -1.682168,0 -3.209968,0.6622525 -4.318895,1.7322671 -1.121099,1.0817862 -1.815095,2.576737 -1.815095,4.2271592 0,1.6504223 0.693996,3.1453009 1.815095,4.2269779 1.108927,1.070027 2.636727,1.73228 4.318895,1.73228 0.821839,0 1.633582,-0.164682 2.387264,-0.474452 0.751259,-0.308381 1.439756,-0.762806 2.017528,-1.342417 l -1.641397,-1.632402 c -0.358669,0.359842 -0.787432,0.642432 -1.255582,0.834777 -0.465246,0.191161 -0.978007,0.292887 -1.507813,0.292887 -1.063455,0 -2.023305,-0.412681 -2.713981,-1.079152 -0.678226,-0.6545048 -1.098449,-1.5594398 -1.098449,-2.5584989 0,-0.9990349 0.42005,-1.9041027 1.098449,-2.5587896 0.690676,-0.6664704 1.650526,-1.0791515 2.713981,-1.0791515 0.569505,0 1.118954,0.1180781 1.612279,0.3376163 0.497788,0.2217258 0.945259,0.5451897 1.306071,0.9536528 l 1.732274,-1.5327067 z"
       style="fill:#3d3837;fill-opacity:1;fill-rule:nonzero;stroke:none"
       id="path3144"
       inkscape:connector-curvature="0" /><path
       d="m 90.056502,13.248072 1.893628,0 0.61695,0 1.498407,0 1.824777,0 0.860258,0 c 0.850853,-0.104662 1.617399,-0.480977 2.200738,-1.035026 0.70686,-0.671764 1.14451,-1.602285 1.14451,-2.6315462 0,-1.0293218 -0.43786,-1.9599512 -1.14451,-2.6314251 C 98.666,6.6792323 98.337144,6.4511374 97.976123,6.2760627 l 2.396467,-4.4173168 -2.546337,0 -2.23798,4.1250101 -3.021193,0 0,-4.134135 -2.510578,0 0,11.398451 z m 6.040104,-2.279825 -3.529526,0 0,-2.704738 4.126592,0 0,-0.00121 c 0.25593,0.067922 0.482468,0.1955599 0.661457,0.365619 0.258696,0.2457643 0.419045,0.5835499 0.419045,0.9537615 0,0.370538 -0.160349,0.7081425 -0.419045,0.9538105 -0.273567,0.259832 -0.65831,0.420803 -1.089044,0.420803 -0.07155,0 -0.0646,0.0012 -0.08026,10e-4 l -0.08762,-0.0048 -0.0017,0.01619 z"
       style="fill:#3d3837;fill-opacity:1;fill-rule:evenodd;stroke:none"
       id="path3146"
       inkscape:connector-curvature="0" /><path
       d="m 112.87606,3.6065795 c -0.57922,-0.6555691 -1.35231,-1.1574433 -2.19268,-1.496812 -0.87907,-0.3545485 -1.8439,-0.5387237 -2.73888,-0.5387237 -1.68237,0 -3.21007,0.6622525 -4.319,1.7320617 -1.1212,1.0818225 -1.81509,2.5767612 -1.81509,4.2271954 0,1.6505915 0.69389,3.1454701 1.81509,4.2271471 1.10893,1.070027 2.63663,1.73228 4.319,1.73228 0.82146,0 1.63306,-0.164887 2.38699,-0.474247 0.75123,-0.308694 1.43955,-0.762805 2.0176,-1.34244 l -1.6413,-1.632378 c -0.35867,0.359842 -0.78743,0.642226 -1.25579,0.834776 -0.46549,0.190956 -0.97777,0.292682 -1.5075,0.292682 -1.06363,0 -2.02337,-0.412681 -2.71405,-1.079152 -0.67833,-0.6545048 -1.09845,-1.5594398 -1.09845,-2.5586681 0,-0.999071 0.41992,-1.9041148 1.09845,-2.5588257 0.69068,-0.6662651 1.65022,-1.0789462 2.71405,-1.0789462 0.61758,0 1.27903,0.12539 1.87716,0.3666947 0.26202,0.1057507 0.50962,0.2325184 0.7329,0.3789618 l 0,1.6616016 -1.81997,0 0,2.0956383 1.81997,0 0.50083,0 1.82067,0 0,-4.7888459 z"
       style="fill:#3d3837;fill-opacity:1;fill-rule:nonzero;stroke:none"
       id="path3148"
       inkscape:connector-curvature="0" /><path
       d="m 120.44749,6.8974411 0,-5.0478201 -3.0757,0 0,5.0478201 -3.87505,6.3910219 3.0757,0 2.33715,-3.8547603 2.3373,3.8547603 3.07564,0 -3.87504,-6.3910219 z"
       style="fill:#3d3837;fill-opacity:1;fill-rule:evenodd;stroke:none"
       id="path3150"
       inkscape:connector-curvature="0" /><path
       d="m 26.835327,33.118402 -2.773286,0 0,4.128564 c 0,0.762806 0.623936,1.386747 1.386747,1.386747 l 0.907599,0 0.47894,0 5.931002,0 0,1.646784 3.133336,0 0,-1.646784 5.688594,0 0.590081,0 0.796458,0 c 0.762811,0 1.386746,-0.623941 1.386746,-1.386747 l 0,-4.128564 -2.773285,0 0,3.347907 -14.752932,0 0,-3.347907 z"
       style="fill:#3d3837;fill-opacity:1;fill-rule:evenodd;stroke:none"
       id="path3152"
       inkscape:connector-curvature="0" /></g></svg>