<?xml version="1.0" encoding="UTF-8" standalone="no"?>
<!-- Generator: Adobe Illustrator 16.0.0, SVG Export Plug-In . SVG Version: 6.00 Build 0)  -->

<svg
   xmlns:dc="http://purl.org/dc/elements/1.1/"
   xmlns:cc="http://creativecommons.org/ns#"
   xmlns:rdf="http://www.w3.org/1999/02/22-rdf-syntax-ns#"
   xmlns:svg="http://www.w3.org/2000/svg"
   xmlns="http://www.w3.org/2000/svg"
   xmlns:sodipodi="http://sodipodi.sourceforge.net/DTD/sodipodi-0.dtd"
   xmlns:inkscape="http://www.inkscape.org/namespaces/inkscape"
   version="1.1"
   id="图层_1"
   x="0px"
   y="0px"
   width="315"
   height="315"
   viewBox="0 0 314.99999 315"
   enable-background="new 0 0 595.275 751.182"
   xml:space="preserve"
   inkscape:version="0.48.2 r9819"
   sodipodi:docname="Nipic_1630076_20130819134054596131 [转换].svg"><metadata
   id="metadata583"><rdf:RDF><cc:Work
       rdf:about=""><dc:format>image/svg+xml</dc:format><dc:type
         rdf:resource="http://purl.org/dc/dcmitype/StillImage" /></cc:Work></rdf:RDF></metadata><defs
   id="defs581" /><sodipodi:namedview
   pagecolor="#ffffff"
   bordercolor="#666666"
   borderopacity="1"
   objecttolerance="10"
   gridtolerance="10"
   guidetolerance="10"
   inkscape:pageopacity="0"
   inkscape:pageshadow="2"
   inkscape:window-width="1366"
   inkscape:window-height="706"
   id="namedview579"
   showgrid="false"
   inkscape:zoom="0.88861128"
   inkscape:cx="122.91832"
   inkscape:cy="130.00731"
   inkscape:window-x="-8"
   inkscape:window-y="-8"
   inkscape:window-maximized="1"
   inkscape:current-layer="图层_1" />












































































































































































































<path
   d="M 260.17968,14.423072 H 176.33649 V 3.7931549 h -36.5658 V 14.423072 H 54.238889 C 30.363877,14.392731 8.9605052,33.76441 8.9453346,60.168243 V 310.53786 H 44.305652 V 60.303611 c 0.01867,-4.355127 3.59543,-10.591407 10.473543,-10.542395 H 139.77069 V 66.802457 H 65.55265 v 35.356813 h 74.21804 v 16.93388 H 65.55265 v 35.36266 h 74.21804 v 16.95605 c -37.33483,0 -74.132852,0 -74.132852,0 v 35.36265 h 74.132852 v 16.08666 H 65.377604 v 65.8042 c 0,9.72085 9.997421,21.82348 22.782729,21.82348 H 249.20551 l -0.0829,-87.62768 h -72.78617 v -16.08666 h 73.0464 V 91.074238 C 249.35138,76.356429 238.27685,66.761613 226.23023,66.80129 H 176.33649 V 49.760049 h 84.82461 c 4.58502,0 10.16313,3.699291 10.16313,10.689433 V 310.53786 h 35.35799 V 61.171836 c 0,-25.512269 -19.13712,-46.748764 -46.50254,-46.748764 z M 213.84753,258.22032 v 16.91171 H 105.3066 c -2.72253,0 -4.57101,-1.57774 -4.57101,-4.30961 v -12.6021 h 113.11194 z m 0.17271,-86.80846 c -7.53395,0 -21.07545,0 -37.68375,0 v -16.95722 h 37.68375 c 0,6.19427 0,12.09096 0,16.95722 z m -4.74139,-69.25375 c 3.26401,0 4.74139,1.59758 4.74139,4.36913 0,0 0,5.85001 0,12.56475 h -37.68375 v -16.93388 h 32.94236 z"
   id="path437"
   inkscape:connector-curvature="0"
   style="fill:#e60012" />


















</svg>