<?xml version="1.0" encoding="UTF-8" standalone="no"?>
<!-- Creator: CorelDRAW X6 -->

<svg
   xmlns:dc="http://purl.org/dc/elements/1.1/"
   xmlns:cc="http://creativecommons.org/ns#"
   xmlns:rdf="http://www.w3.org/1999/02/22-rdf-syntax-ns#"
   xmlns:svg="http://www.w3.org/2000/svg"
   xmlns="http://www.w3.org/2000/svg"
   xmlns:xlink="http://www.w3.org/1999/xlink"
   xmlns:sodipodi="http://sodipodi.sourceforge.net/DTD/sodipodi-0.dtd"
   xmlns:inkscape="http://www.inkscape.org/namespaces/inkscape"
   xml:space="preserve"
   width="315"
   height="295"
   version="1.1"
   style="fill-rule:evenodd"
   viewBox="0 0 8889.9999 8325.556"
   id="svg2"
   inkscape:version="0.48.2 r9819"
   sodipodi:docname="Nipic_4647642_20140430155539837000.svg"><metadata
   id="metadata2634"><rdf:RDF><cc:Work
       rdf:about=""><dc:format>image/svg+xml</dc:format><dc:type
         rdf:resource="http://purl.org/dc/dcmitype/StillImage" /></cc:Work></rdf:RDF></metadata><sodipodi:namedview
   pagecolor="#ffffff"
   bordercolor="#666666"
   borderopacity="1"
   objecttolerance="10"
   gridtolerance="10"
   guidetolerance="10"
   inkscape:pageopacity="0"
   inkscape:pageshadow="2"
   inkscape:window-width="1366"
   inkscape:window-height="706"
   id="namedview2632"
   showgrid="false"
   inkscape:zoom="0.83311999"
   inkscape:cx="214.83071"
   inkscape:cy="113.24307"
   inkscape:window-x="-8"
   inkscape:window-y="-8"
   inkscape:window-maximized="1"
   inkscape:current-layer="g2479" />
 <defs
   id="defs4">
  <font
   id="FontID38"
   horiz-adv-x="503"
   font-variant="normal"
   font-weight="400"
   horiz-origin-x="0"
   horiz-origin-y="0"
   vert-origin-x="45"
   vert-origin-y="90"
   vert-adv-y="90"
   style="font-variant:normal;font-weight:400">
	<font-face
   font-family="@方正幼线简体"
   id="font-face7">
	</font-face>
   <missing-glyph
   id="missing-glyph9"><path
     d="M0 0z"
     id="path11" /></missing-glyph>
   <glyph
   unicode="户"
   horiz-adv-x="1000"
   id="glyph13"><path
     d="M922.167 -140.5l-19.5009 -27.3326c-130.166,96.3333 -270.833,141.833 -421.833,136.666l-246.166 0 0 632.833 277.333 0 0 -597.666c135.501,-2.66629 272.167,-50.8335 410.168,-144.5zm-656.167 707l0 -562.5 214.833 0 0 562.5 -214.833 0zm-62.5004 -250l15.6669 -27.3326c-54.8335,-23.4997 -101.667,-45.4998 -140.666,-66.3332l-15.6669 27.3326c52.1661,28.5003 98.9995,50.6675 140.666,66.3332z"
     id="path15" /></glyph>
   <glyph
   unicode="程"
   horiz-adv-x="1000"
   id="glyph17"><path
     d="M105.833 -152.333c-10.4992,112 -23.4997,209.667 -38.9995,293l31.1666 7.834c12.9995,-62.5004 27.3337,-156.167 42.9995,-281.167 0,-7.834 0,-13.0006 0,-15.6669l-35.1666 -4zm-31.3326 824.333l234.499 0 0 -417.999 -234.499 0 0 417.999zm203.167 -382.833l0 351.5 -171.834 0 0 -351.5 171.834 0zm58.6664 -468.834l-31.3337 0 0 168 -168 0 11.834 35.1666 156.166 0 0 148.5 31.3337 0 0 -148.5 589.834 0 0 -35.1666 -589.834 0 0 -168zm402.334 -31.1666c-101.667,62.5004 -213.5,105.5 -336,128.834l7.83287 31.3337c127.667,-26 242.167,-69.0006 343.833,-129.001l-15.6657 -31.1666zm-132.834 367.167l7.83287 -35.1666c-70.3332,-13.0006 -132.834,-28.6663 -187.5,-46.8335l-11.8329 31.1666c65.1666,18.3332 129,35.1666 191.5,50.8335zm82.0001 97.667l-31.1666 0 0 195.333 -156.333 0 0 -203.167 -31.1666 0 0 433.667 31.1666 0 0 -195.334 156.333 0 0 195.334 31.1666 0 0 -195.334 175.833 0 0 230.501 31.1666 0 0 -527.333 -31.1666 0 0 261.666 -175.833 0 0 -195.333z"
     id="path19" /></glyph>
   <glyph
   unicode="点"
   horiz-adv-x="1000"
   id="glyph21"><path
     d="M328.5 -46.8335l0 265.667 -296.833 0 11.6669 35.1666 109.333 0 0 386.667 35.1666 0 0 -386.667 140.666 0 0 304.667 300.834 0 0 -605.5 -300.834 0zm35.1666 31.3337l234.333 0 0 539 -234.333 0 0 -539zm574.167 -140.666l-23.4997 -27.3337c-64.9995,54.6664 -134,101.5 -207,140.666l19.4997 31.1666c73.0006,-41.6669 143.334,-89.833 211,-144.499zm-35.1666 589.832l15.6669 -35.1666c-67.6669,-31.1666 -132.834,-67.6658 -195.333,-109.333l-19.4997 31.1666c51.9989,31.3326 118.499,69.1667 199.166,113.333zm-23.3326 250l23.3326 -27.3337c-54.6664,-36.4992 -119.833,-83.3327 -195.333,-140.666l-19.4997 23.5009c23.4997,18.166 78.1661,59.8329 164,125 13.1666,10.3332 22.166,16.9995 27.4997,19.4997zm38.9995 -488.334l15.6669 -38.9995c-39.1666,-10.3332 -95.1667,-32.5003 -168,-66.3332 -12.9995,-5.33372 -22.166,-9.16658 -27.3326,-11.8329l-11.834 35.1666c62.5004,28.6663 126.333,55.9989 191.5,81.999z"
     id="path23" /></glyph>
   <glyph
   unicode="工"
   horiz-adv-x="1000"
   id="glyph25"><path
     d="M195.667 -89.833l-31.3337 0 0 738.333 31.3337 0 0 -359.333 609.333 0 0 417.999 31.3326 0 0 -871.166 -31.3326 0 0 418 -609.333 0 0 -343.833z"
     id="path27" /></glyph>
   <glyph
   unicode="重"
   horiz-adv-x="1000"
   id="glyph29"><path
     d="M43.3338 578.167l31.1666 11.8329c26.166,-221.333 44.3332,-447.999 54.8335,-679.833l-31.3337 -7.66686c-15.6669,252.499 -33.8329,477.833 -54.6664,675.666zm316.332 -652.334l0 312.501 -93.6658 0 0 -445.333 -27.3337 0 0 445.333 -109.333 0 7.66573 31.3337 101.667 0 0 425.666 27.3337 0 0 -425.666 93.6658 0 0 331.999 308.667 0 0 -331.999 89.8341 0 0 355.499 27.3326 0 0 -355.499 109.334 0 0 425.666 27.3337 0 0 -882.666 -27.3337 0 0 425.666 -109.334 0 0 -363.167 -27.3326 0 0 363.167 -89.8341 0 0 -312.501 -308.667 0zm27.3337 312.501l0 -281.167 109.5 0 0 281.167 -109.5 0zm0 328.166l0 -296.833 109.5 0 0 296.833 -109.5 0zm136.834 -328.166l0 -281.167 117.167 0 0 281.167 -117.167 0zm0 328.166l0 -296.833 117.167 0 0 296.833 -117.167 0z"
     id="path31" /></glyph>
   <glyph
   unicode="配"
   horiz-adv-x="1000"
   id="glyph33"><path
     d="M277.667 238.333l624.999 0 0 -386.667 -624.999 0 0 121 -140.668 0 0 -144.499 -31.1666 0 0 410.166 31.1666 0 0 -121 140.668 0 0 121zm550.833 105.5l-449.167 0 0 312.5 -242.333 0 0 -363.333 -31.1666 0 0 394.667 304.667 0 0 -312.5 418 0c26,2.49916 40.3332,16.8334 42.9995,42.8335l0 203.166c7.834,46.8335 -35.1666,66.5004 -129,58.6675l4 35.1666c112,7.83287 164,-23.4997 156.166,-93.8341l0 -203.166c-2.49916,-46.8335 -27.3326,-71.5009 -74.1661,-74.1672zm-691.5 -336l140.668 0 0 74.3332 -140.668 0 0 -74.3332zm418 -93.6658c-31.1666,46.8335 -113.167,66.3332 -246,58.4992l0 -85.833 562.5 0 0 316.334 -562.5 0 0 -85.833 195.334 0c20.8335,-5.33372 29.8329,15.4997 27.3326,62.4992l35.1666 0c2.50029,-70.3332 -18.3332,-102.834 -62.4992,-97.667l-195.334 0 0 -74.3332c140.5,7.834 229.167,-14.166 265.5,-66.3332l-19.4997 -27.3326zm136.834 -4l0 269.666 31.1666 0 0 -269.666 -31.1666 0z"
     id="path35" /></glyph>
   <glyph
   unicode="客"
   horiz-adv-x="1000"
   id="glyph37"><path
     d="M914.333 35.3337l-218.667 0 0 437.499 218.667 0 0 -437.499zm-187.5 402.332l0 -367.333 156.333 0 0 367.333 -156.333 0zm-394.5 -58.6664l0 -171.833 -31.1666 0 0 199.167c2.50029,23.4997 15.6669,31.3326 38.9995,23.4997 78.1672,-49.4998 136.666,-100.333 175.833,-152.333 52.0001,85.833 89.8341,210.834 113.334,375l34.9995 -7.83287c-25.9989,-169.334 -68.9995,-302.167 -128.832,-398.501 67.6658,-125 115.833,-255.166 144.499,-390.667l-35.1666 -7.83287c-20.8335,125.167 -64.9995,250.166 -132.834,375.167 -36.3332,-31.3337 -76.8324,-60.0001 -121,-86.0001l-15.6669 31.1666c33.834,20.8335 73.0006,48.1661 117.167,82.1661 -38.9995,57.1666 -87.1667,102.834 -144.499,136.668 -7.834,2.66629 -11.6669,2.66629 -11.6669,0 -2.66742,0 -4,-2.66742 -4,-7.834zm-203 -97.667l7.66573 -19.4997 0 398.5 195.334 0 0 -35.1666 -164 0 0 -742.333 156.166 0 0 -35.1666 -187.5 0 0 398.5c-2.49916,0 -5.16658,-1.33258 -7.66573,-3.83287 -28.6675,-10.5003 -48.3343,-19.4997 -58.6675,-27.3337l-15.6669 31.1666c2.66742,2.66742 7.834,5.16658 15.6669,7.834 23.4997,12.9995 43.0006,22.166 58.6675,27.3326zm320.166 -335.999l-31.1666 -11.6669c-44.3332,106.834 -108.167,195.333 -191.5,265.666l23.4997 27.3337c88.5004,-78.1661 155,-171.833 199.167,-281.333z"
     id="path39" /></glyph>
   <glyph
   unicode=" "
   horiz-adv-x="449"
   id="glyph41" />
   <glyph
   unicode="套"
   horiz-adv-x="1000"
   id="glyph43"><path
     d="M730.833 687.667l0 -867.334 -31.3326 0 0 234.501 -347.667 0 0 394.5 31.3337 0 0 -359.333 86.0001 0 0 351.5 31.1666 0 0 -351.5 82.0001 0 0 351.5 31.3326 0 0 -351.5 85.8341 0 0 597.666 31.3326 0zm-535.166 -843.833l-31.3337 0 0 308.667c-36.3332,15.4997 -75.4998,27.3326 -117.167,35.1666l11.8329 35.1666c41.6669,-10.5003 76.8335,-22.1672 105.334,-35.1666l0 492.167 31.3337 0 0 -504.001c130.166,-85.833 212.166,-203 246.166,-351.5l-31.3337 -7.83287c-28.6663,127.667 -100.333,234.333 -214.833,320.334l0 -293zm648.5 593.832l23.3326 3.834c13.0006,-109.334 27.3337,-235.667 43.0006,-378.834 7.83287,-57.3326 12.9995,-103 15.6669,-136.834l-35.1666 -3.83287c0,7.83287 0,13.0006 0,15.6669 -39.1666,59.8329 -82.0001,109.333 -129.001,148.333l19.6669 27.3337c36.3332,-33.834 70.1672,-72.8335 101.5,-117.167 -10.5003,93.833 -22.166,221.333 -35.1666,382.833 0,-20.8335 -1.33371,-1.33371 -3.83287,58.6664zm-597.668 -62.4992l-23.4997 27.3326c86.0001,83.3338 143.167,181.001 171.834,292.834l31.3326 -7.66686c-26,-114.666 -86.0001,-218.834 -179.667,-312.5zm535.167 19.4997l-27.3337 23.3337c2.50029,2.66629 6.50029,6.49916 11.6669,11.8329 54.6664,62.5004 104.167,113.167 148.333,152.333l23.4997 -23.4997c-54.6664,-46.8335 -106.832,-101.5 -156.166,-164z"
     id="path45" /></glyph>
  </font>
  <font
   id="FontID17"
   horiz-adv-x="661"
   font-variant="normal"
   font-style="normal"
   font-weight="400"
   horiz-origin-x="0"
   horiz-origin-y="0"
   vert-origin-x="45"
   vert-origin-y="90"
   vert-adv-y="90"
   style="font-style:normal;font-variant:normal;font-weight:400">
	<font-face
   font-family="Adobe 黑体 Std R"
   id="font-face48">
	</font-face>
   <missing-glyph
   id="missing-glyph50"><path
     d="M0 0z"
     id="path52" /></missing-glyph>
  </font>
  <font
   id="FontID16"
   horiz-adv-x="499"
   font-variant="normal"
   font-style="normal"
   font-weight="400"
   horiz-origin-x="0"
   horiz-origin-y="0"
   vert-origin-x="45"
   vert-origin-y="90"
   vert-adv-y="90"
   style="font-style:normal;font-variant:normal;font-weight:400">
	<font-face
   font-family="宋体"
   id="font-face55">
	</font-face>
   <missing-glyph
   id="missing-glyph57"><path
     d="M0 0z"
     id="path59" /></missing-glyph>
   <glyph
   unicode="D"
   horiz-adv-x="499"
   id="glyph61"><path
     d="M390.996 355.83c0,112.167 -16.9913,191.003 -50.8249,236.667 -33.8336,45.6735 -80.6715,68.5055 -140.504,68.5055 -18.1651,0 -31.8308,-2.67352 -40.9971,-7.83426 -9.16636,-5.17005 -13.6657,-13.0043 -13.6657,-23.5028l0 -559.335c0,-10.4985 3.82863,-18.3327 11.6629,-23.4935 7.83426,-5.17005 18.3327,-7.83426 31.337,-7.83426 57.1594,0 105.329,21.5 144.501,64.4999 38.9943,42.9999 58.4915,127.165 58.4915,252.327zm-308.992 273.836c0,10.4985 -2.67352,18.3327 -7.83426,23.5028 -5.33773,5.16074 -14.5041,7.83426 -27.4991,7.83426l-23.6705 0 0 22.9997 175.996 0c80.8391,0 145.339,-25.9993 193.667,-78.1656 48.17,-52.0079 72.3342,-132.838 72.3342,-242.173 0,-119.833 -23.3351,-207.668 -69.8283,-263.663 -46.5025,-56.0042 -114.999,-83.9971 -205.498,-83.9971l-166.671 0 0 22.9997 25.8316 0c12.3336,0 20.8386,2.66421 25.8316,7.83426 4.8347,5.16074 7.34054,12.995 7.34054,23.4935l0 559.335z"
     id="path63" /></glyph>
   <glyph
   unicode="O"
   horiz-adv-x="499"
   id="glyph65"><path
     d="M109.004 351.834c0,-112.168 13.6632,-193.667 41.1575,-244.496 27.3377,-50.8403 62.0101,-76.3331 103.838,-76.3331 44.5006,0 79.665,24.1623 105.829,72.3302 26.1748,48.3357 39.1672,131.165 39.1672,248.499 0,93.9991 -11.1587,169.661 -33.3307,226.998 -22.1609,57.5042 -59.3267,86.1724 -111.665,86.1724 -44.3329,0 -79.665,-26.1748 -105.829,-78.3345 -26.1748,-52.1708 -39.1672,-130.338 -39.1672,-234.836zm363.999 0.167716c0,-106.835 -20.8415,-190.838 -62.5021,-252.166 -41.8395,-61.1716 -93.9991,-91.8412 -156.501,-91.8412 -59.9975,0 -111.497,31.3405 -154.5,93.8426 -43.0023,62.4909 -64.5035,145.834 -64.5035,250.165 0,101.502 20.1706,183.66 60.6684,246.162 40.3301,62.5021 93.1717,93.8314 158.335,93.8314 67.8355,0 121.169,-33.163 160.336,-99.6567 39.1672,-66.5049 58.667,-146.505 58.667,-240.337z"
     id="path67" /></glyph>
   <glyph
   unicode="I"
   horiz-adv-x="499"
   id="glyph69"><path
     d="M94.0018 661.003l0 22.9997 312.998 0 0 -22.9997 -89.8285 0c-10.5078,0 -18.8358,-2.67352 -25.3379,-7.83426 -6.50216,-5.17005 -9.83707,-13.0043 -9.83707,-23.5028l0 -559.335c0,-10.4985 3.33492,-18.3327 9.83707,-23.4935 6.50216,-5.17005 14.8301,-7.83426 25.3379,-7.83426l89.8285 0 0 -22.9997 -312.998 0 0 22.9997 89.8285 0c13.0043,0 22.1707,2.66421 27.3407,7.83426 5.16074,5.16074 7.82494,12.995 7.82494,23.4935l0 559.335c0,10.4985 -2.66421,18.3327 -7.82494,23.5028 -5.17005,5.16074 -14.3364,7.83426 -27.3407,7.83426l-89.8285 0z"
     id="path71" /></glyph>
   <glyph
   unicode="C"
   horiz-adv-x="499"
   id="glyph73"><path
     d="M269.497 7.99445c-73.0011,0 -130.997,27.3377 -174,82.0019 -43.0023,54.8319 -64.4923,140.837 -64.4923,258.003 0,98.9971 22.8317,181.167 68.3274,246.33 45.6634,65.1744 107.506,97.6665 185.673,97.6665 18.158,0 36.3272,-3.33195 54.6642,-9.82815 18.1692,-6.49619 33.8339,-9.67161 46.8263,-9.67161 10.499,0 18.8401,1.34173 25.504,3.8351 6.49619,2.67227 12.3327,7.83792 17.4984,15.6647l35.4998 -172.166 -23.5026 -7.82674c-15.6647,49.6662 -36.495,87.6595 -62.6586,113.834 -26.0071,26.1637 -60.0087,39.1672 -101.669,39.1672 -54.8319,0 -97.1634,-30.01 -127.162,-90.0075 -30.01,-59.9975 -45.0037,-134.329 -45.0037,-222.995 0,-96.5037 13.0036,-172.166 39.1672,-226.83 25.996,-54.8431 69.166,-82.1696 129.164,-82.1696 41.6718,0 77.4959,14.9938 107.506,44.836 29.9988,29.9988 50.3259,69.658 60.6572,119.157l23.5026 -11.6618c-12.9924,-54.6642 -37.1658,-99.5002 -72.3302,-134.665 -35.1644,-35.1644 -76.1653,-52.6739 -123.17,-52.6739z"
     id="path75" /></glyph>
   <glyph
   unicode="T"
   horiz-adv-x="499"
   id="glyph77"><path
     d="M347.999 16.0001l-203.003 0 0 22.9994 35.0079 0c12.9924,0 21.9931,2.67227 27.1588,7.83792 5.16565,5.16565 7.83792,12.9924 7.83792,23.4914l0 547.503c0,20.8303 -1.33055,32.671 -3.8351,35.3321 -2.66109,2.50456 -13.1601,3.8351 -31.3293,3.8351 -36.6739,0 -62.1667,-6.49619 -76.5008,-19.4998 -14.3341,-13.0036 -32.0002,-48.168 -52.8305,-105.504l-23.5026 3.8351 35.3321 148.171 372.329 0 31.3405 -148.171 -19.4998 -3.8351c-21.0092,54.6754 -37.3335,89.1689 -49.0066,103.503 -11.8296,14.3341 -36.003,21.5012 -72.498,21.5012 -26.1637,0 -40.4978,-1.33055 -43.1701,-3.8351 -2.49338,-2.66109 -3.8351,-15.6647 -3.8351,-39.1672l0 -543.668c0,-10.499 3.17542,-18.3257 9.67161,-23.4914 6.49619,-5.16565 15.005,-7.83792 25.3363,-7.83792l34.9967 0 0 -22.9994z"
     id="path79" /></glyph>
   <glyph
   unicode="N"
   horiz-adv-x="499"
   id="glyph81"><path
     d="M395.169 172l7.83426 0 0 457.666c0,10.4985 -2.67352,18.3327 -7.83426,23.5028 -5.17005,5.16074 -14.1687,7.83426 -27.1731,7.83426l-30.9924 0 0 22.9997 154.999 0 0 -22.9997 -31.0017 0c-10.3308,0 -18.8358,-2.67352 -25.3379,-7.83426 -6.49284,-5.17005 -9.66008,-13.0043 -9.66008,-23.5028l0 -613.662 -22.9997 0 2.32885 0 -300.497 582.325 -7.83426 0 0 -527.997c0,-10.4985 3.16724,-18.3327 9.6694,-23.4935 6.49284,-5.17005 14.9978,-7.83426 25.3286,-7.83426l31.0017 0 0 -22.9997 -154.999 0 0 22.9997 31.0017 0c12.995,0 21.9937,2.66421 27.1637,7.83426 5.17005,5.16074 7.83426,12.995 7.83426,23.4935l0 559.335c0,10.4985 -2.99956,18.3327 -8.83101,23.5028 -5.84076,5.16074 -16.1716,7.83426 -30.834,7.83426l-26.3347 0 0 22.9997 123.001 0 264.166 -512.003z"
     id="path83" /></glyph>
   <glyph
   unicode="V"
   horiz-adv-x="499"
   id="glyph85"><path
     d="M331.498 661.003l0 22.9997 141.501 0 0 -22.9997 -15.6685 0c-10.3308,0 -20.1679,-3.83795 -29.3342,-11.6722 -8.99869,-7.83426 -16.1622,-22.1614 -21.3323,-42.9999l-160.663 -590.327 -22.9997 0 -144.501 590.327c-2.66421,18.1651 -7.16355,31.8401 -13.6657,41.0064 -6.50216,9.16636 -16.3392,13.6657 -29.3342,13.6657l-19.4972 0 0 22.9997 167.5 0 0 -22.9997 -15.6685 0c-13.0043,0 -21.5,-3.83795 -25.3379,-11.6722 -3.99631,-7.83426 -4.66702,-18.3327 -1.9935,-31.3277l107.332 -446.674 7.99262 0 118.669 435.002c5.17005,18.1651 5.17005,31.8401 0,41.0064 -5.16074,9.16636 -15.6685,13.6657 -31.3277,13.6657l-11.6722 0z"
     id="path87" /></glyph>
   <glyph
   unicode="E"
   horiz-adv-x="499"
   id="glyph89"><path
     d="M26.9961 661.003l0 22.9997 386.673 0 43.326 -133.173 -19.4972 -7.82494c-20.8293,39.3297 -42.8323,68.8316 -66.335,88.4964 -23.3258,19.6648 -49.3344,29.5019 -77.8303,29.5019l-109.167 0c-10.4985,0 -18.8358,-2.67352 -25.3286,-7.83426 -6.50216,-5.17005 -9.83707,-13.0043 -9.83707,-23.5028l0 -242.666 113.499 0c26.167,0 45.1704,6.50216 56.8333,19.6648 11.8306,13.0043 17.6713,32.6691 17.6713,58.8361l0 23.5028 22.9997 0 0 -230.007 -22.9997 0 0 15.5008c0,28.5052 -5.84076,50.6665 -17.6713,66.1674 -11.6629,15.5008 -30.6663,23.3351 -56.8333,23.3351l-113.499 0 0 -293.668c0,-10.4985 3.33492,-18.3327 9.83707,-23.4935 6.49284,-5.17005 14.8301,-7.83426 25.3286,-7.83426l101.333 0c39.1713,0 72.3342,11.1599 99.6656,33.3305 27.3314,22.1614 48.673,56.6656 64.3322,103.662l19.5065 -7.82494 -42.9999 -152.167 -399.007 0 0 22.9997 23.6705 0c13.0043,0 22.1707,2.66421 27.4991,7.83426 5.17005,5.16074 7.83426,12.995 7.83426,23.4935l0 559.335c0,10.4985 -2.83188,18.3327 -8.49565,23.5028 -5.50541,5.16074 -15.3332,7.83426 -29.5019,7.83426l-21.0063 0z"
     id="path91" /></glyph>
   <glyph
   unicode="S"
   horiz-adv-x="499"
   id="glyph93"><path
     d="M234.665 336.333c-70.3313,31.337 -118.501,58.6685 -144.668,82.0036 -25.9993,23.4935 -38.9943,60.0006 -38.9943,109.493 0,39.1713 16.3299,76.1721 48.9991,111.338 32.6691,35.1657 78.9947,52.837 138.995,52.837 26.167,0 51.0019,-4.50866 74.5047,-13.5073 23.5028,-8.99869 40.3357,-13.498 50.8342,-13.498 7.83426,0 14.9978,2.00281 21.5,5.83145 6.50216,3.83795 12.5013,10.8338 17.662,21.1739l15.5008 -160.169 -19.4972 -7.83426c-23.5028,54.8305 -47.667,91.999 -72.5018,111.664 -24.6672,19.4972 -56.6656,29.3342 -95.8276,29.3342 -49.6698,0 -83.5033,-13.6657 -101.836,-41.1648 -18.1651,-27.3314 -27.3314,-56.6656 -27.3314,-88.0027 0,-28.8312 8.49565,-51.6633 25.3286,-68.4962 17.0006,-17.0006 63.1678,-42.5062 138.669,-76.4982 62.6648,-26.0086 107.5,-55.3335 134.999,-87.835 27.3314,-32.5015 40.9971,-71.0021 40.9971,-115.334 0,-46.8379 -16.3299,-88.5057 -48.8314,-125.003 -32.6691,-36.4978 -80.1684,-54.6628 -142.666,-54.6628 -26.167,0 -50.1635,4.49934 -72.3342,13.498 -22.1707,8.99869 -39.8327,13.498 -52.837,13.498 -7.82494,0 -15.6592,-2.49653 -23.4935,-7.66658 -7.83426,-5.16074 -16.8329,-11.6629 -27.3314,-19.3295l-31.5047 191.162 23.5028 7.83426c18.1651,-65.1613 43.6613,-110.164 76.1628,-134.831 32.6691,-24.8349 69.67,-37.1685 111.505,-37.1685 44.1644,0 77.4949,13.0043 99.6656,39.1713 22.1614,25.9993 33.1629,63.8292 33.1629,113.499 0,25.9993 -12.3336,51.4956 -37.1685,76.3305 -24.6672,24.6672 -63.1678,48.8314 -115.166,72.3342z"
     id="path95" /></glyph>
   <glyph
   unicode=" "
   horiz-adv-x="499"
   id="glyph97" />
   <glyph
   unicode="P"
   horiz-adv-x="499"
   id="glyph99"><path
     d="M148.999 329.003l0 -258.674c0,-10.499 3.33195,-18.3257 9.83933,-23.4914 6.49619,-5.16565 15.1615,-7.83792 25.6605,-7.83792l27.5054 0 0 -22.9994 -189.005 0 0 22.9994 27.5054 0c13.1601,0 22.3286,2.67227 27.6619,7.83792 5.16565,5.16565 7.83792,12.9924 7.83792,23.4914l0 559.332c0,10.5102 -2.83999,18.3369 -8.34107,23.5026 -5.66879,5.16565 -15.4969,7.83792 -29.4956,7.83792l-25.1686 0 0 22.9994 232.834 0c65.6663,0 116.328,-16.3355 151.828,-48.8388 35.4998,-32.4921 53.3336,-73.3254 53.3336,-122.824 0,-59.841 -18.8289,-105.337 -56.4979,-136.509 -37.669,-31.1616 -82.6615,-46.8263 -134.665,-46.8263l-120.834 0zm97.6665 22.9994c38.9995,0 73.5043,11.6618 103.503,35.1644 29.8311,23.5026 44.836,64.0004 44.836,121.337 0,52.1596 -12.3327,90.4995 -37.1658,115.333 -24.6766,24.8331 -64.3358,37.1658 -119,37.1658l-54.6754 0c-10.499,0 -18.8289,-2.67227 -25.3251,-7.83792 -6.50737,-5.16565 -9.83933,-12.9924 -9.83933,-23.5026l0 -277.659 97.6665 0z"
     id="path101" /></glyph>
   <glyph
   unicode="M"
   horiz-adv-x="499"
   id="glyph103"><path
     d="M438.001 70.3313c0,-10.4985 3.33492,-18.3327 9.82776,-23.4935 6.50216,-5.17005 15.0071,-7.83426 25.5056,-7.83426l15.6685 0 0 -22.9997 -169 0 0 22.9997 19.6648 0c12.995,0 22.1614,2.66421 27.4991,7.83426 5.17005,5.16074 7.83426,12.995 7.83426,23.4935l0 512.506 -7.83426 0 -132.838 -566.833 -23.3258 0 0 0 -121.166 554.994 -7.83426 0 0 -500.666c0,-10.4985 3.3256,-18.3327 9.82776,-23.4935 6.50216,-5.17005 14.9978,-7.83426 25.5056,-7.83426l11.6629 0 0 -22.9997 -117.002 0 0 22.9997 11.8306 0c13.0043,0 22.1707,2.66421 27.3407,7.83426 5.16074,5.16074 7.83426,12.995 7.83426,23.4935l0 559.335c0,10.4985 -2.33817,18.3327 -7.17287,23.5028 -4.8347,5.16074 -13.3304,7.83426 -25.3286,7.83426l-14.5041 0 0 22.9997 109.503 0 110.499 -506.833 8.00194 0 123.168 506.833 125.833 0 0 -22.9997 -15.6685 0c-10.4985,0 -19.0034,-2.67352 -25.5056,-7.83426 -6.49284,-5.17005 -9.82776,-13.0043 -9.82776,-23.5028l0 -559.335z"
     id="path105" /></glyph>
  </font>
  <font
   id="FontID3"
   horiz-adv-x="777"
   font-variant="normal"
   font-style="normal"
   font-weight="900"
   horiz-origin-x="0"
   horiz-origin-y="0"
   vert-origin-x="45"
   vert-origin-y="90"
   vert-adv-y="90"
   style="font-style:normal;font-variant:normal;font-weight:900">
	<font-face
   font-family="Arial Black"
   id="font-face108">
	</font-face>
   <missing-glyph
   id="missing-glyph110"><path
     d="M0 0z"
     id="path112" /></missing-glyph>
   <glyph
   unicode="C"
   horiz-adv-x="777"
   id="glyph114"><path
     d="M549.998 293.001l194 -58.5037c-12.9954,-54.3328 -33.4997,-99.8341 -61.6668,-136.161 -27.9992,-36.5018 -62.6605,-64.0041 -104.334,-82.5 -41.4984,-18.5028 -94.3267,-27.8382 -158.499,-27.8382 -78.0002,0 -141.501,11.3368 -190.998,33.8356 -49.3362,22.6667 -91.8354,62.4996 -127.665,119.331 -35.837,56.8381 -53.836,129.835 -53.836,218.5 0,118.337 31.4982,209.333 94.5016,273.001 63.1644,63.5003 152.333,95.3344 267.668,95.3344 90.1628,0 161.165,-18.1669 212.832,-54.6687 51.4986,-36.4948 90.0019,-92.5002 114.999,-168.163l-195.001 -43.171c-6.83009,21.673 -13.9961,37.5025 -21.498,47.5027 -12.4985,16.8303 -27.6703,29.8327 -45.5013,38.8322 -17.999,9.16744 -37.9994,13.6672 -60.1692,13.6672 -50.33,0 -88.8332,-20.1684 -115.496,-60.3302 -20.1684,-29.8327 -30.3365,-76.8386 -30.3365,-140.668 0,-79.3369 12.0017,-133.502 36.1659,-162.999 24.1713,-29.3358 57.9998,-44.0037 101.668,-44.0037 42.3382,0 74.3333,11.8337 95.9992,35.669 21.666,23.6674 37.3346,58.1678 47.1668,103.333z"
     id="path116" /></glyph>
   <glyph
   unicode="T"
   horiz-adv-x="722"
   id="glyph118"><path
     d="M23.0026 715.998l672.995 0 0 -177.002 -225.995 0 0 -538.997 -221.005 0 0 538.997 -225.995 0 0 177.002z"
     id="path120" /></glyph>
   <glyph
   unicode="N"
   horiz-adv-x="832"
   id="glyph122"><path
     d="M74.9981 715.998l206.505 0 268.494 -395.334 0 395.334 209.004 0 0 -715.998 -209.004 0 -266.997 393.164 0 -393.164 -208.003 0 0 715.998z"
     id="path124" /></glyph>
   <glyph
   unicode="K"
   horiz-adv-x="832"
   id="glyph126"><path
     d="M73.9985 716l221.001 0 0 -270.499 231.834 270.499 294.166 0 -261.333 -268.999 273.331 -447.001 -272.166 0 -151 293.999 -114.833 -119.666 0 -174.333 -221.001 0 0 716z"
     id="path128" /></glyph>
   <glyph
   unicode="B"
   horiz-adv-x="777"
   id="glyph130"><path
     d="M73.9985 716l414.502 0c69.0006,0 122,-17.1665 158.997,-51.332 37.001,-34.1689 55.5032,-76.5026 55.5032,-127.001 0,-42.3337 -13.1695,-78.6685 -39.669,-108.834 -17.4978,-20.3333 -43.3312,-36.1674 -77.1654,-48.0012 51.4994,-12.3325 89.1665,-33.4994 113.5,-63.6645 24.1663,-30.1686 36.3314,-67.9997 36.3314,-113.5 0,-37.1684 -8.66693,-70.5003 -25.8334,-100.167 -17.3304,-29.6664 -40.9979,-53.0025 -70.8317,-70.3329 -18.6662,-10.6688 -46.6654,-18.5022 -84.1686,-23.3361 -49.8323,-6.49763 -82.8329,-9.83185 -99.1658,-9.83185l-382.001 0 0 716zm223 -281l96.5011 0c34.5003,0 58.6666,5.99887 72.1674,17.8326 13.5009,12.0011 20.3333,29.1676 20.3333,51.6668 0,20.8355 -6.83242,37.1684 -20.3333,48.8347 -13.5009,11.8338 -37.1684,17.6652 -70.6677,17.6652l-98.0008 0 0 -135.999zm0 -281l112.834 0c38.1659,0 65.0002,6.83242 80.667,20.3333 15.6667,13.5009 23.5001,31.5009 23.5001,54.3348 0,21.1668 -7.66598,38.1659 -23.1653,51.0006 -15.4993,12.8313 -42.6685,19.3323 -81.5005,19.3323l-112.335 0 0 -145.001z"
     id="path132" /></glyph>
   <glyph
   unicode="S"
   horiz-adv-x="722"
   id="glyph134"><path
     d="M34.9991 236.832l210.001 13.1661c4.49915,-33.9981 13.8322,-59.9989 27.8319,-77.6641 22.834,-28.8328 55.3358,-43.3346 97.666,-43.3346 31.5009,0 55.8345,7.3346 72.8336,22.1678 17.1665,14.8332 25.6694,31.9996 25.6694,51.4994 0,18.4988 -8.00077,35.1665 -24.1697,49.8323 -16.1655,14.6692 -53.8326,28.3341 -112.998,41.5001 -96.9999,21.669 -166.001,50.6692 -207.333,86.8332 -41.6675,36 -62.4996,81.9993 -62.4996,138.001 0,36.6662 10.6654,71.3339 31.9996,104 21.3342,32.8332 53.3339,58.4992 96.1663,77.1654 42.8324,18.6696 101.499,28.0027 176,28.0027 91.4998,0 161.167,-17.0025 209.168,-51.168 47.9978,-34.0015 76.4992,-88.1656 85.6649,-162.499l-207.999 -12.3359c-5.5001,32.5018 -17.1665,56.1693 -34.8317,70.8351 -17.836,14.8332 -42.3337,22.1678 -73.4998,22.1678 -25.6694,0 -45.1691,-5.5001 -58.1678,-16.3363 -13.0021,-10.8328 -19.4997,-24.1663 -19.4997,-39.833 0,-11.3316 5.3327,-21.4982 15.8341,-30.6639 10.1666,-9.50048 34.8317,-18.1674 73.8311,-26.3356 96.6685,-20.8321 165.833,-41.9989 207.501,-63.3331 41.8349,-21.3342 72.3348,-47.6664 91.3324,-79.3312 19.001,-31.5009 28.5014,-66.8347 28.5014,-106.002 0,-45.8319 -12.6673,-88.1656 -38.0019,-127.001 -25.4986,-38.6647 -60.8325,-68.1671 -106.497,-88.1656 -45.5005,-19.9985 -102.835,-30.0012 -172.167,-30.0012 -121.668,0 -206.001,23.5001 -252.834,70.3329 -46.8328,46.8362 -73.3358,106.336 -79.5021,178.5z"
     id="path136" /></glyph>
   <glyph
   unicode="P"
   horiz-adv-x="722"
   id="glyph138"><path
     d="M72.0029 715.998l367.999 0c80.1626,0 140.164,-18.9997 180.165,-57.1671 39.8329,-38.1674 59.8333,-92.5002 59.8333,-162.999 0,-72.3318 -21.8339,-129.002 -65.3338,-169.668 -43.4999,-40.8336 -110.002,-61.1629 -199.332,-61.1629l-121.332 0 0 -265.002 -221.999 0 0 715.998zm221.999 -305.997l54.5008 0c42.996,0 73.1646,7.49491 90.4988,22.3308 17.3342,14.8359 25.9977,33.8356 25.9977,56.9991 0,22.4987 -7.50191,41.4984 -22.6667,57.1671 -14.9968,15.6686 -43.3319,23.4994 -84.9983,23.4994l-63.3323 0 0 -159.996z"
     id="path140" /></glyph>
  </font>
  <font
   id="FontID1"
   horiz-adv-x="643"
   font-variant="normal"
   font-style="normal"
   font-weight="400"
   horiz-origin-x="0"
   horiz-origin-y="0"
   vert-origin-x="45"
   vert-origin-y="90"
   vert-adv-y="90"
   style="font-style:normal;font-variant:normal;font-weight:400">
	<font-face
   font-family="Adobe 仿宋 Std R"
   id="font-face143">
	</font-face>
   <missing-glyph
   id="missing-glyph145"><path
     d="M0 0z"
     id="path147" /></missing-glyph>
   <glyph
   unicode="股"
   horiz-adv-x="1000"
   id="glyph149"><path
     d="M907.001 517c-11.0018,13.0033 -20.0021,20.0021 -36.0011,29.0024 -15.9991,-10.001 -41.9992,-16.9998 -72.0023,-16.9998 -52.0002,0 -55.9967,16.9998 -55.9967,78.0003l0 95.0001c0,35.0004 7.99954,54.996 23.9986,69.9943 6.99879,6.00449 5.99804,11.0018 1.00075,15.0048l-44.0007 36.0011 -22.9979 -39.0034 -112 -16.9998 -27.0009 65.9978 -16.9998 -4.99729c13.9976,-185.003 -19.0013,-319 -109.004,-402.998l13.0033 -13.0033c88.0013,73.003 127.999,144.005 141.997,317.999l109.004 15.0048 0 -141.002c0,-88.0013 23.9986,-114.001 80.0018,-114.001 69,0 92.9986,3.00225 125.998,13.0033 6.99879,1.99504 7.99954,4.99729 1.00075,13.9976zm-467.001 237.003c9.00028,4.99729 9.00028,9.99458 0,16.9998l-47.0029 36.9954 -26.9944 -38.9969 -124.002 -20.0021 -29.0024 73.003 -16.9998 -5.00374c5.00374,-36.0011 6.00449,-72.9966 6.99879,-212.998 2.0015,-357.003 -22.9979,-480.999 -146.994,-662.502l13.9976 -10.9953c114.001,126.495 147,229.494 167.002,404.496l117.998 22.0036c11.0018,1.99504 12.9968,5.99804 3.99654,13.9976l-31.9981 27.0009c-11.0018,-7.99954 -32.9989,-14.9983 -87.0006,-26.0001 3.00225,32.9989 4.003,81.9968 5.99804,135.999l104 15.9991c13.0033,2.0015 13.0033,6.00449 4.003,14.004l-29.0024 26.0001c-10.001,-7.99954 -32.9989,-14.004 -78.0003,-23.0043 0,58.999 0,122.001 -1.00075,172l129.006 18.0006 0 -554.996c0,-79.0011 -2.0015,-115.002 -8.00599,-132.002l-89.9964 63.9963 -11.0018 -14.9983c55.0025,-56.9975 84.9991,-91.9979 117.004,-139.498 5.99804,-9.00028 9.99458,-9.00028 15.9991,1.00075 15.9991,26.4972 22.9979,108.501 21.9971,197.496l0 552c0,31.0038 7.99954,42.9999 19.0013,50.0052zm505.998 -788.338l0 18.3363c-121,9.00028 -161.999,30.9974 -272.998,184.997 38.0026,58.0047 67.9993,116.003 91.9979,177.003 21.0028,50.9995 30.0031,62.0012 45.0014,70.0008 7.99954,3.99654 9.00028,9.00028 2.0015,14.9983l-40.9984 41.9992 -31.0038 -33.9996 -261.996 -33.9996 48.998 -38.0026c31.9981,10.001 108.998,25.0058 208.001,35.0004 -22.0036,-70.9951 -49.9987,-135.999 -87.0006,-198l-56.0032 78.0003c-18.9949,26.0001 -27.0009,41.0049 -28.9959,58.999l-59.9997 4.003 0 -13.9976c18.9949,-11.0018 28.9959,-22.0036 123.996,-160.004 -61.0005,-89.9964 -136.999,-166.996 -226.996,-232.497l9.99458 -16.0055c106.002,67.5021 183.001,139.504 241,213.502l125.003 -179.496 169.998 9.1617z"
     id="path151" /></glyph>
   <glyph
   unicode="D"
   horiz-adv-x="674"
   id="glyph153"><path
     d="M276.996 0c235.006,0 352.008,125 352.008,376.998 0,112.004 -26.0013,209.005 -91.0003,277.999 -58.0035,61.0039 -129.003,83.0018 -239.001,83.0018l-263.999 0 0 -29.9963c74.0004,0 80.0013,-4.00341 80.0013,-77.0009l0 -524.004c0,-70.9999 -6.00094,-77.0009 -80.0013,-77.0009l0 -29.9963 241.993 0zm18.0028 700.998c81.0043,0 145,-20.0003 189.999,-77.9955 49.0021,-64.0044 67.0049,-145 67.0049,-257.998 0,-237.004 -115.999,-327.001 -279.002,-327.001l-49.9967 0c-30.0047,0 -35.0027,6.99552 -35.0027,52.9971l0 569.002c0,33.9997 4.99799,40.9953 32.0022,40.9953l74.995 0z"
     id="path155" /></glyph>
   <glyph
   unicode="基"
   horiz-adv-x="1000"
   id="glyph157"><path
     d="M954.999 100.002l0 14.9985c-119.001,9.00027 -165.001,27.9996 -242.996,109.002l-99.6707 104.996 292.666 20.0038c12.0023,0.998762 12.0023,6.99704 2.00323,14.9985l-41.9993 32.9991c-16.003,-9.99903 -101.999,-23.9988 -204.837,-32.0003l17.835 276.999 175.999 13.9998c11.0035,1.00447 13.001,8.00151 2.00323,16.003l-37.9986 28.9983c-18.0005,-8.00151 -79.0049,-22.0013 -138,-28.9983 4.99951,69.0002 9.00027,85.9962 17.9948,107.998 3.00199,8.00151 2.00323,13.001 -3.99505,18.0005l-54.0016 44.0026 -11.0035 -8.00151c12.0023,-26.002 17.0018,-72.0021 12.0023,-165.001l-236.998 -18.0005 -1.00447 41.0006c0,44.0026 3.00199,64.9994 11.0035,78.9992 4.00075,7.00275 2.99628,11.0035 -3.00199,16.003l-59.4977 50.0009 -9.99903 -10.0047c13.9998,-34.9966 18.0005,-59.9999 19.9981,-131.996l0.998762 -46.0001 -200.996 -13.001 44.9956 -37.9986c18.5028,5.99828 39.4996,9.99903 157.502,19.9981l8.00151 -273.997 -274.003 -18.9993 52.0041 -39.0031c20.9968,5.99828 94.9965,17.0018 221,27.0008 -40.0018,-72.0021 -163.004,-183.002 -325.003,-275.002l7.00275 -14.9985c155.995,77.0017 254.998,152.999 382.332,294.001l145.996 9.99903 210.67 -248.001 162.998 21.0025zm-138 -119.001l-39.9961 32.9991c-27.0008,-9.99903 -78.0004,-18.9993 -253.001,-28.9983l0 118.499 157 11.169c9.00027,0.998762 9.99903,4.99951 2.99628,12.1621l-35.6643 32.1715c-12.8355,-6.00398 -40.0018,-13.001 -124.332,-21.0025l0 49.0021c0,23.0001 4.99951,42.9981 13.001,58.9954 3.99505,9.00027 2.99628,13.001 -4.00075,18.0005l-50.0009 34.0035 -9.00027 -12.0023c9.00027,-25.8308 10.9978,-46.8334 10.9978,-99.665l0 -50.8341 -180 -15.1698 48.0033 -38.3296c18.9993,6.99704 49.4986,13.001 131.996,19.9981l0 -117.997 -336.001 -19.005 55.9991 -43.9969c42.0051,13.9998 91.0014,20.9968 608,46.0001 12.0023,0.998762 13.001,5.99828 4.00075,13.9998zm-177.665 658.001l-16.8306 -276.999 -215.002 -16.003 -0.998762 67.0026 157.667 16.9961c9.00027,1.00447 9.99903,4.99951 2.99628,12.0023l-28.1651 26.002c-7.00275,-6.00398 -36.0011,-15.0043 -132.499,-26.002l-1.00447 75.9972 149.672 15.0043c9.99903,0.998762 10.9978,5.99828 2.99628,13.9998l-26.1676 23.9988c-9.00027,-5.99828 -36.9998,-13.9998 -126.5,-23.9988l-0.998762 73.9997 234.835 18.0005z"
     id="path159" /></glyph>
   <glyph
   unicode="泥"
   horiz-adv-x="1000"
   id="glyph161"><path
     d="M308.999 656.001c5.00374,19.0013 5.00374,46.0022 0,73.9973l-134.998 70.0008 -10.001 -14.9983 130.001 -133.003c5.99804,-6.99879 11.0018,-7.99954 14.9983,4.003zm-76.9996 -160.004l-130.001 93.0051 -11.9961 -13.0033 112 -157.996c4.99729,-8.00599 10.9953,-7.00524 15.9991,1.99504 10.001,18.0006 14.9983,45.0014 13.9976,75.9988zm589.002 263.003l-45.0014 41.9992 -31.9981 -40.9984 -258 -33.9996 -41.0049 79.0011 -16.9998 -5.00374c10.001,-69 7.99954,-141.997 -1.99504,-291.999 -18.0006,-245.003 -111.006,-443.003 -268.001,-560l10.9953 -15.9991c168.003,107.997 282.005,304.002 304.002,586l320.001 32.9989c11.0018,1.00075 11.0018,9.00028 3.00225,14.9983l-29.0024 23.0043 21.0028 99.9974c6.99879,32.9989 13.9976,44.0007 31.9981,54.0017 7.99954,4.99729 7.99954,10.001 1.00075,15.9991zm-451.002 -238.998l-19.0013 9.00028 -185.997 -415.001 -88.0013 62.9955 -12.9968 -16.9998c56.9975,-59.9997 70.9951,-75.9988 112,-125.998 3.99654,-4.99729 9.00028,-5.99804 11.9961,2.0015l182.001 484.001zm540.998 -526c-19.9956,59.9997 -31.9981,115.996 -42.9999,191.001l-14.9983 0 -5.99804 -166.002c-54.0017,-10.001 -103,-14.004 -153.999,-12.0025 -76.9996,3.00225 -110.005,15.9991 -110.005,93.9994l0 110.999c67.005,33.0053 121,64.0027 189,112 23.0043,16.0055 36.0011,20.0021 46.0022,21.0028 11.0018,1.00075 13.9976,6.99879 10.001,15.9991l-28.0016 74.9981 -11.9961 -2.99579c-1.00075,-38.0026 -53.001,-88.0013 -205.005,-190l0 107.997c0,57.004 4.003,78.0003 15.0048,93.9994 4.99729,7.99954 4.99729,11.0018 -1.00075,15.0048l-65.0035 45.9957 -6.99879 -10.001c13.0033,-27.9951 16.9998,-47.9972 16.9998,-125.998l0 -284c0,-96.0009 57.004,-115.002 130.001,-119.999 81.0026,-5.99804 160.998,-3.00225 234.001,13.9976 6.99879,1.00075 7.99954,6.00449 4.99729,14.004zm-164 727.996l-21.9971 -138 -248.999 -30.9974c4.99729,54.0017 7.99954,98.9967 9.00028,135.999l261.996 32.9989z"
     id="path163" /></glyph>
   <glyph
   unicode="t"
   horiz-adv-x="334"
   id="glyph165"><path
     d="M97.0091 466.002l0 -362.01c0,-91.9869 59.9866,-115.996 114.988,-115.996 44.9946,0 83.9961,14.0025 117.994,44.0051l-16.0001 23.9909c-28.9944,-20.985 -53.9935,-32.0003 -83.9961,-32.0003 -43.9864,0 -64.9901,29.0131 -64.9901,86.0125l0 355.999 137 0 0 33.998 -137 0 0 138.008 -26.0072 0c-17.9978,-103.002 -39.0015,-141.014 -117.005,-147.007l0 -24.9991 75.0159 0z"
     id="path167" /></glyph>
   <glyph
   unicode="方"
   horiz-adv-x="1000"
   id="glyph169"><path
     d="M566.002 688.002l-109.002 155.999 -17.997 -11.9999 78.9999 -205.999c3.99619,-9.00135 8.99568,-10.0046 14.9985,-1.0033 11.9999,18.0027 22.9965,39.004 33.0012,63.0038zm349.998 -90.0022l-52.0015 43.0001c-35.9997,-18.0027 -251,-47.9996 -775.998,-76.9989l58.9962 -47.9996c68.0033,14.9985 164.003,26.9984 319.004,38.0007 0.997631,-51.0039 -9.00135,-125.004 -30.0026,-193.002 -50.9982,-162.002 -167.001,-317.003 -363.999,-432.002l11.0023 -16.9994c215.998,118.004 326.996,233.003 399.999,454.999l29.9969 -22.9965c23.9998,9.99898 59.0019,16.9994 165,29.9969 -44.9954,-201.998 -74.0004,-285.997 -118.996,-349.998l-102.002 71.0018 -9.99898 -13.0032c41.9968,-47.9996 83.9994,-103 107.002,-141.998 3.99619,-7.00042 7.99805,-7.00042 12.9975,-0.997631 43.0001,41.9968 91.9974,154.996 148.998,395.997 6.00279,23.9998 13.0032,36.9974 40.0016,55.9977 7.00042,5.00516 7.00042,9.00135 0.997631,16.0018l-48.9973 50.9982 -37.003 -46.9963 -182 -26.0007c32.0035,105.001 35.9997,114.002 47.9996,124.999 4.00186,4.00186 4.00186,8.00372 0,11.9999l-31.9979 35.0021 409.998 28.9993c8.00372,0.997631 10.0046,4.99949 1.0033,11.9999z"
     id="path171" /></glyph>
   <glyph
   unicode="A"
   horiz-adv-x="643"
   id="glyph173"><path
     d="M483 97.0012c6.00094,-16.9999 9.0014,-30.9993 9.0014,-41.0036 0,-20.0003 -13.9994,-26.0013 -55.9976,-26.0013l0 -29.9963 190.994 0 0 29.9963c-37.0002,0 -48.9937,10.0043 -68.994,70.0053l-232.006 652.999 -35.9973 0 -209.005 -666.998c-14.994,-47.0045 -25.9929,-56.006 -64.999,-56.006l0 -29.9963 162 0 0 29.9963c-40.0007,0 -54.9947,5.00635 -54.9947,27.0042 0,10.9989 3.99505,26.0013 9.99599,47.9991l38.0031 132.998 263.999 0 47.9991 -140.997zm-299.002 179.995l110.006 361.001 2.99211 0 125 -361.001 -237.998 0z"
     id="path175" /></glyph>
   <glyph
   unicode="控"
   horiz-adv-x="1000"
   id="glyph177"><path
     d="M693.997 745.003l-98.9967 103 -12.0025 -9.00028 69 -165.001c6.00449,-14.004 10.001,-14.9983 18.0006,-1.00075 15.0048,27.0009 20.0021,40.9984 23.9986,72.0023zm231.005 -108.003l-49.9987 48.0037 -27.0009 -32.0046 -358.003 -42.9999c0,27.0009 -2.99579,49.0044 -11.9961,75.9988l-18.0006 -4.99729c6.99879,-79.0011 -7.00524,-143.998 -46.0022,-182.001l27.0009 -63.002c4.99729,-12.9968 9.00028,-12.9968 15.9991,1.00075 16.9998,37.0019 30.0031,90.0028 31.9981,139.001l357.003 40.9984 -53.001 -116.997 15.9991 -9.00028c63.002,90.9971 89.0021,116.997 116.003,131.001 6.99879,3.99654 6.99879,7.99954 0,14.9983zm-66.0042 -297.997c4.003,20.9964 4.003,38.9969 -1.00075,70.9951l-161.999 113.001 -11.9961 -14.9983c69,-65.9978 105.995,-107.003 156.995,-174.001 9.00028,-12.9968 14.004,-11.9961 18.0006,5.00374zm-242.995 138l-28.0016 59.9997 -15.9991 -4.003c-5.00374,-42.9999 -57.004,-121 -190,-245.997l10.001 -11.0018c58.999,40.9984 110.999,87.0006 164,143.998 27.9951,30.0031 41.9992,37.0019 53.9952,41.9992 7.99954,3.00225 9.00028,9.00028 6.00449,15.0048zm-186.004 70.0008l-37.0019 26.9944c-18.9949,-9.00028 -39.9977,-14.9983 -85.9998,-21.9971l0 95.0001c0,75.9988 5.00374,103 19.0013,121 5.99804,6.99879 5.00374,12.0025 -5.99804,20.9964l-64.0027 54.0017 -10.9953 -6.99879c17.9941,-45.0014 20.9964,-81.9968 20.9964,-189l0 -99.9974 -175.996 -21.0028 55.9967 -38.9969c21.0028,9.99458 42.9999,15.9991 119.999,26.9944l0 -147 -200.001 -104 66.0042 -28.9959c24.9994,21.9971 66.9985,53.001 133.997,95.0001l0 -255.004c0,-37.9962 -3.99654,-58.999 -11.0018,-71.9958l-116.997 76.9996 -10.001 -14.004c67.9993,-59.9997 100.004,-92.9986 146,-149.996 6.00449,-7.99954 11.0018,-7.99954 14.9983,0 12.0025,22.9979 18.0006,52.0002 18.0006,152.998l0 289.003 106.002 69 -7.99954 13.9976 -98.0024 -49.9987 0 129 119.005 14.9983c10.9953,1.00075 11.9961,6.99879 3.99654,13.0033zm486.002 -532.005l-41.9992 39.0034c-30.0031,-12.0025 -76.0053,-21.0028 -215,-29.0024l0 229.004 156.995 16.9998c13.0033,0.994293 13.0033,7.99954 5.00374,13.9976l-37.0019 30.9974c-55.0025,-19.9956 -115.002,-28.9959 -365.996,-48.998l48.998 -38.9969c24.9994,7.99954 37.0019,9.99458 149.996,22.9979l0 -228.003 -281.998 -16.9998 52.0002 -42.9999c53.001,14.004 106.002,19.0013 524.999,41.0049 10.001,0 12.0025,3.99654 4.003,10.9953z"
     id="path179" /></glyph>
   <glyph
   unicode="华"
   horiz-adv-x="1000"
   id="glyph181"><path
     d="M891.002 391.002c-16.9998,64.997 -24.0051,100.998 -31.0038,165.001l-15.9991 0 -11.0018 -139.001c-24.9994,-7.00524 -87.9949,-15.0048 -161.999,-11.0018 -89.9964,5.99804 -99.9974,13.9976 -99.9974,136.999 50.9995,24.9994 103,56.0032 161.999,95.0001 21.9971,15.9991 39.9977,24.9994 55.0025,29.0024 9.99458,1.99504 11.9961,5.99804 9.99458,16.9998l-13.9976 80.9961 -18.0006 -2.99579c-5.99804,-36.0011 -72.9966,-111.006 -194.998,-181l0 110.999c0,46.9965 7.99954,84.9991 19.9956,103 6.00449,9.00028 5.00374,14.9983 -2.99579,21.9971l-59.9997 52.0002 -15.0048 -11.9961c14.004,-32.0046 19.0013,-102.005 19.0013,-145.005l0 -152.998c-39.9977,-20.0021 -92.9986,-44.0007 -124.997,-54.996l6.99879 -20.0021c38.0026,11.0018 78.0003,22.9979 117.998,40.9984 1.00075,-133.997 19.0013,-153.999 144.005,-160.998 71.9958,-4.003 151.998,-1.00075 205.999,10.001 10.9953,1.99504 11.9961,3.99654 9.00028,16.9998zm-472.005 398.995l-32.9989 73.003 -15.9991 -4.003c-9.00028,-85.9998 -79.0011,-199.995 -294.001,-396l10.001 -12.9968c81.0026,59.9997 153.999,123.002 218.002,194.998l0 -209.002c0,-42.9999 -5.00374,-57.9982 -19.0013,-76.9996l37.0019 -59.9997c4.99729,-7.99954 10.9953,-5.99804 13.9976,7.00524 4.003,18.9949 5.99804,41.9992 5.99804,88.9956l0 294.001c10.001,12.0025 13.0033,16.9998 21.0028,27.0009 20.9964,27.0009 36.0011,44.0007 50.9995,55.9967 7.99954,6.00449 9.00028,10.001 4.99729,18.0006zm495.003 -554.996l-47.9972 40.9984c-23.0043,-13.0033 -123.002,-30.9974 -350.004,-41.9992 0,65.9978 5.00374,97.9959 14.9983,113.001 4.003,7.99954 4.003,11.9961 -2.99579,18.0006l-54.0017 50.9995 -12.0025 -9.00028c12.0025,-29.0024 14.004,-56.0032 14.004,-175.002l-400.003 -20.0021 57.004 -45.9957c28.9959,10.001 121.995,19.0013 342.999,29.9966l0 -122.001c0,-52.0002 -13.0033,-81.9968 -26.0001,-92.9986l41.9992 -79.0011c5.99804,-11.9961 12.9968,-11.9961 14.9983,-1.00075 6.99879,31.0038 9.00028,60.0062 9.00028,122.001l0 175.002 393.998 20.0021c16.0055,1.00075 16.0055,6.99879 4.003,16.9998z"
     id="path183" /></glyph>
   <glyph
   unicode="n"
   horiz-adv-x="572"
   id="glyph185"><path
     d="M167.003 418.991l-3.99537 88.0102 -11.0153 5.99305c-33.998,-25.9886 -67.996,-37.9934 -118.984,-46.0028l0 -21.9932c61.9842,1.00818 66.9878,-7.00123 66.9878,-69.9937l0 -275.998c0,-67.0065 -3.99537,-72.9995 -66.9878,-72.9995l0 -26.0072 193.999 0 0 26.0072c-56.0099,0 -58.0075,7.00123 -58.0075,71.9913l0 270.994c49.0086,63.0111 103.992,106.008 154.008,106.008 77.9844,0 102.983,-44.9946 102.983,-129.009l0 -246.985c0,-65.9983 -3.99537,-72.9995 -58.9971,-72.9995l0 -26.0072 185.001 0 0 26.0072c-51.9958,0 -56.9994,7.99074 -56.9994,71.0018l0 252.997c0,131.997 -74.9972,162.989 -153.99,162.989 -64.0006,0 -124.006,-35.9957 -172.006,-94.0032l-1.99768 0z"
     id="path187" /></glyph>
   <glyph
   unicode="L"
   horiz-adv-x="561"
   id="glyph189"><path
     d="M498.997 162c-28.9934,-115.999 -38.9977,-123.002 -97.0012,-123.002l-179.995 0c-27.0042,0 -33.9997,5.00635 -33.9997,47.9991l0 544.004c0,72.9975 4.99799,77.0009 80.9959,77.0009l0 29.9963 -233.995 0 0 -29.9963c72.9975,0 80.0013,-4.00341 80.0013,-77.0009l0 -521.998c0,-73.0058 -7.00388,-79.0068 -80.0013,-79.0068l0 -29.9963 464.997 0 35.9973 162 -37.0002 0z"
     id="path191" /></glyph>
   <glyph
   unicode="I"
   horiz-adv-x="311"
   id="glyph193"><path
     d="M32.0022 0l247 0 0 29.9963c-81.0043,0 -87.0052,6.00094 -87.0052,77.0009l0 524.004c0,72.9975 6.00094,77.0009 87.0052,77.0009l0 29.9963 -246.005 0 0 -29.9963c80.0013,0 86.0023,-4.00341 86.0023,-77.0009l0 -524.004c0,-70.9999 -6.00094,-77.0009 -86.9969,-77.0009l0 -29.9963z"
     id="path195" /></glyph>
   <glyph
   unicode="F"
   horiz-adv-x="533"
   id="glyph197"><path
     d="M377.992 496.994c0,-90.9973 -9.98842,-101.994 -53.9935,-101.994l-135.992 0 0 254.994c0,44.0051 2.98719,49.9981 37.9934,49.9981l156.006 0c55.9912,0 65.9983,-7.99074 91.9869,-117.994l36.0143 0 -33.0085 156.006 -441.992 0 0 -30.0026c72.9995,0 80.0007,-3.99537 80.0007,-76.9949l0 -524.01c0,-71.0018 -6.01172,-76.9949 -80.0007,-76.9949l0 -30.0026 249.001 0 0 30.0026c-91.016,0 -96.0009,3.99537 -96.0009,76.9949l0 250.009 137 0c43.9864,0 52.9853,-8.00941 52.9853,-104.01l35.0062 0 0 243.998 -35.0062 0z"
     id="path199" /></glyph>
   <glyph
   unicode="立"
   horiz-adv-x="1000"
   id="glyph201"><path
     d="M541.999 689.997l-113.994 126.007 -14.0066 -12.0027 82.0044 -186c3.9974,-8.00529 9.00201,-9.00201 14.9929,-2.00394 16.0001,19.0008 28.0028,46.0068 31.0034,73.9991zm370.006 -637.999l-53.0049 41.0022c-32.0002,-12.9994 -166.002,-32.0002 -298,-38.0015 99.0012,375 105.999,397.998 121.999,416.999 9.00201,11.006 8.00529,16.0001 2.00394,22.0014l-49.0075 48.997 190.008 18.004c16.0001,0.996727 14.9929,9.00201 6.00134,15.0034l-48.0003 38.0015c-33.0074,-21.0047 -344.007,-59.0062 -637.003,-73.0024l63.0036 -48.0003c41.9989,12.9994 112.997,22.0014 399.992,48.0003 14.0066,-62.0069 9.99874,-114.005 -88.9919,-487.997l-451.003 -23.0086 57.0023 -45.9963c78.9932,12.0027 174.994,18.004 780.993,50.0042 14.0066,0.996727 17.0073,7.9948 4.00789,17.9935zm-450.006 144.997l-119.995 247.01 -16.0001 -8.00529c51.9976,-138.996 70.0017,-211.998 81.9939,-317.001 1.00722,-12.0027 6.99807,-12.9994 14.0066,-4.99412 17.9935,16.9968 32.9969,43.9924 39.995,82.9906z"
     id="path203" /></glyph>
   <glyph
   unicode="W"
   horiz-adv-x="990"
   id="glyph205"><path
     d="M975.994 737.993l-149.998 0 0 -29.9966c40.0053,0 54.0027,-4.00345 54.0027,-25.9932 0,-11.0022 -4.00345,-27.0014 -9.99401,-49.0057l-148.011 -535.995 -1.98711 0 -165.003 542c-6.00517,18.9945 -9.00045,32.9919 -9.00045,43.0005 0,21.9897 15.9992,25.9932 57.9916,25.9932l0 29.9966 -195 0 0 -29.9966c49.9993,0 53.0092,-7.99229 69.0083,-49.9993l-165.997 -560.994 -2.00172 0 -160.006 542.993c-4.997,19.0091 -7.99229,31.9984 -7.99229,42.007 0,22.9979 14.991,25.9932 58.9997,25.9932l0 29.9966 -188.001 0 0 -29.9966c37.9889,0 45.9958,-5.99056 63.9967,-65.9985l192.998 -657.004 49.9993 0 179.001 604.009 2.00172 0 183.004 -604.009 47.9975 0 186 666.004c14.991,51.0074 20.9962,56.998 57.9916,56.998l0 29.9966z"
     id="path207" /></glyph>
   <glyph
   unicode="e"
   horiz-adv-x="498"
   id="glyph209"><path
     d="M430.996 119.992c-23.0014,-45.9841 -71.9913,-96.9904 -156.996,-96.9904 -51.0063,0 -94.9927,26.0072 -121,67.996 -30.0026,47.0109 -37.9934,104.01 -37.9934,170.998l341.996 0c0,110.003 -42.9969,250.999 -201.001,250.999 -147.997,0 -213.995,-128.001 -213.995,-250.999 0,-133.994 43.9864,-274 227.997,-274 64.0006,0 138.998,28.0049 188.996,119.002l-28.0049 12.9943zm-315.989 176.002c3.99537,60.0052 19.9955,106.008 42.9969,136.011 26.9968,32.0003 64.0006,48.0004 96.9904,48.0004 103.002,0 131.007,-102.013 131.007,-184.011l-270.994 0z"
     id="path211" /></glyph>
   <glyph
   unicode="工"
   horiz-adv-x="1000"
   id="glyph213"><path
     d="M918.999 136.998l-47.002 37.003c-40.9992,-16.0018 -70.9962,-23.9998 -352.997,-47.9996l0 325.001c0,55.0001 7.00042,109.994 17.997,132.997 4.00186,9.00135 3.00423,14.0008 -2.99856,19.0003l-38.0007 33.9988 301.001 32.0035c16.9994,1.99526 18.0027,5.99712 4.99949,16.9994l-41.9968 34.9964c-57.001,-22.9965 -112.001,-34.9964 -592.003,-78.9999l57.9986 -44.9954c28.0017,8.99568 112.001,22.9965 240.004,36.9974 9.00135,-24.9974 10.9966,-59.9995 10.9966,-158.997l0 -352.005 -409.998 -34.9964 67.9976 -45.0011c50.0006,16.9994 133.002,31.9979 781.003,78.0022 14.9985,0.997631 16.0018,5.99712 2.99856,15.9961z"
     id="path215" /></glyph>
   <glyph
   unicode="C"
   horiz-adv-x="614"
   id="glyph217"><path
     d="M546.997 555.997c-9.99401,49.0057 -18.9945,106.997 -24.9996,163.002 -70.0019,26.0078 -108.999,34.0001 -167.999,34.0001 -208.004,0 -306.994,-152.993 -306.994,-376.003 0,-309.99 152.993,-392.002 288.993,-392.002 92.9998,0 187.008,51.0074 235.999,200.012l-36.9954 9.99401c-27.0014,-84.9929 -83.0058,-167.999 -190.003,-167.999 -82.9912,0 -220.993,63.0032 -220.993,351.997 0,190.003 68.9937,337.006 231.002,337.006 122.996,0 132.99,-52.001 155.988,-167.999l36.0018 7.99229z"
     id="path219" /></glyph>
   <glyph
   unicode="国"
   horiz-adv-x="1000"
   id="glyph221"><path
     d="M842.999 774.5l-51.0003 43.0007 -28.9995 -49.0022 -549 -34.0002 -32.9994 79.9999 -15.9993 -4.9971c7.99963,-39.0009 14.9984,-116.002 14.9984,-163.002l0 -488.497c0,-70.0021 -4.9971,-91.002 -20.9999,-122.003l43.0007 -92.9966c6.0015,-11.0022 11.0022,-11.0022 14.0011,0 5.00066,15.9993 6.99879,30.9977 6.99879,77.9982l511 14.0011 36.0019 -86.0014c4.9971,-13.0003 10.9986,-13.0003 15.9993,-1.00084 9.99776,26.0006 20.9999,90.0012 22.998,195.001l10.0013 527.502c0,47.9978 9.00047,76 22.998,86.9986 7.00235,6.0015 8.00319,10.9986 1.00084,17.0001zm-68.9977 -45.9997l-6.0015 -570.499c-1.00084,-44.0015 -9.00047,-85.0005 -23.0016,-103.001l-35.9983 31.9985c-31.0012,-13.9976 -69.0013,-21.9972 -486.001,-30.0004l0 637.502 551.002 34.0002zm-60.0008 -529.5l-40.999 35.0011c-26.0006,-10.0013 -80.0034,-19.0018 -175.002,-24.0025l0 198 188.999 10.0013c10.0013,1.00084 11.0022,5.00066 2.00169,11.9994l-39.0009 31.0012c-24.9997,-7.99963 -86.9986,-15.9993 -152,-20.0026l0 134.003 179.002 10.9986c10.9986,1.00084 11.9994,6.0015 3.99981,11.9994l-44.0015 37.0027c-28.9995,-16.0028 -126,-29.0031 -350,-36.0019l48.9986 -40.999c20.0026,5.99794 43.0007,9.00047 122,14.9984l0 -132.5 -169.997 -9.00047 43.0007 -40.5004c34.9975,9.00047 59.9972,11.0022 126.997,16.0028l0 -198.003 -211 -11.9994 54.0028 -41.9998c26.9979,10.0013 115.998,20.0026 410.998,28.9995 13.0003,0 14.0011,3.99981 2.00169,15.002zm-64.0006 119.001l-105 61.9989 -7.00235 -10.0013 86.0014 -106.998c10.0013,-13.0003 15.002,-13.0003 19.0018,-2.00169 2.99897,9.00047 6.99879,41.9998 6.99879,57.0018z"
     id="path223" /></glyph>
   <glyph
   unicode="材"
   horiz-adv-x="1000"
   id="glyph225"><path
     d="M494 554.001l-41.9998 35.9983c-32.9994,-15.9993 -72.0002,-26.9979 -112.002,-34.0002l0 94.001c0,66.9996 7.00235,90.0012 17.0001,107.001 5.00066,8.99691 3.99981,13.0003 -2.99897,18.9982l-69.0013 60.0008 -11.9994 -6.99879c18.0009,-48.0013 24.0025,-108.002 24.0025,-181.003l0 -97 -204.001 -22.998 52.0012 -43.0007c38,11.9994 80.9971,22.0008 152,31.9985l0 -4.9971c-55.0001,-140.001 -158.002,-282.003 -266,-395.002l10.9986 -11.9994c99.0016,78.999 196.002,190 255.002,300l0 -288.001c0,-51.0003 -7.00235,-72.0002 -24.9997,-99.9989l44.9988 -83.9997c5.99794,-11.9994 13.0003,-13.0003 15.9993,0 5.00066,19.9991 6.99879,36.9992 6.99879,131l0 378.999 111.001 -115.998c6.99879,-8.00319 11.9994,-7.00235 14.0011,1.99813 5.00066,19.0018 5.99794,39.0009 2.99897,69.9985l-128.001 68.0004 0 55.0001 152 20.0026c9.00047,0.997282 10.0013,4.9971 2.00169,11.9994zm445.999 0.997282l-51.0003 37.0027c-30.0004,-13.0003 -99.9989,-34.0002 -157.998,-45.0024l0 106c0,73.0011 5.99794,101 13.0003,115.001 4.9971,10.0013 3.99981,14.0011 -3.00253,19.9991l-72.9975 57.0018 -11.0022 -11.0022c23.0016,-40.999 31.0012,-119.998 31.0012,-192.999l0 -101 -204.999 -26.0006 55.9974 -40.999c15.9993,6.99879 55.0001,15.9993 133.002,27.0014 -60.0008,-120.002 -194,-291.003 -292.001,-376l13.0003 -16.0028c112.999,88.003 208.001,189.003 295,330.001l0 -343.001c0,-41.9998 -5.00066,-74.9992 -11.9994,-86.9986l-115.001 83.9997 -10.9986 -13.9976c57.9991,-60.0008 101,-110 144.998,-167.002 6.0015,-7.99963 10.0013,-7.99963 15.002,1.00084 13.0003,24.9997 20.9999,78.999 20.9999,179.999l0 419.001 205.999 31.0012c10.9986,0.997282 11.9994,6.99879 2.99897,12.9967z"
     id="path227" /></glyph>
   <glyph
   unicode="拉"
   horiz-adv-x="1000"
   id="glyph229"><path
     d="M706.998 709.001l-111 138 -14.9985 -9.99903 79.9979 -197.001c6.00398,-14.9985 10.0047,-14.9985 17.0018,-4.00075 17.0018,24.9976 23.9988,42.9981 28.9983,73.0009zm226 -641.998l-36.9998 32.9991c-23.9988,-9.00027 -80.9967,-18.0005 -210.996,-29.004 79.9979,324.004 99.996,374.005 120,391.001 6.99704,6.00398 6.99704,9.99903 0.998762,18.9993l-37.9986 61.0044 140.997 14.9985c13.001,0.998762 13.9998,8.00151 3.00199,15.9973l-41.0006 33.0048c-22.0013,-16.003 -128.001,-37.0055 -409.001,-59.0011l-47.9976 36.0011c-11.0035,-8.00151 -41.9993,-17.0018 -87.9995,-26.002l0 112.997c0,56.0048 6.99704,102.005 13.9998,111 4.00075,7.00275 2.99628,13.001 -3.00199,18.0005l-68.0014 59.0011 -10.9978 -10.9978c18.0005,-43.0038 26.002,-90.0027 26.002,-164.002l0 -130.998 -206.002 -26.002 49.0021 -42.9981c16.9961,6.99704 75.9972,19.9981 157,32.9991l0 -141.002 -229.002 -117.997 60.9986 -31.0016c16.003,13.9998 44.0026,32.0003 168.003,106.999l0 -225.001c0,-46.9989 -2.00323,-72.9952 -8.00151,-102.998l-113.003 74.9984 -7.9958 -11.9966c64.0006,-68.0014 96.9997,-110.001 132.995,-164.002 6.00398,-9.00027 12.0023,-9.00027 16.003,0.998762 13.9998,34.0035 22.0013,82.9999 22.0013,179.001l0 276.001 120.999 74.9984 -9.99903 19.005 -111 -57.0036 0 124.001 112.997 16.003 41.9993 -33.0048c40.0018,11.0035 103.004,20.0038 259.005,36.0011 1.99752,-51.9984 -7.00275,-112.997 -90.0027,-470.999l-291.998 -23.9988 50.0009 -41.0006c39.9961,9.99903 206.995,28.9983 519.995,47.9976 15.0043,1.00447 17.0018,4.99951 4.99951,15.0043zm-324.997 127.996l-79.9979 289.002 -20.0038 -6.99704c27.0008,-151.001 36.9998,-233.003 45.0013,-339.002 0.998762,-13.9998 5.99828,-16.003 13.001,-9.99903 14.9985,13.001 29.9971,34.9966 41.9993,66.9969z"
     id="path231" /></glyph>
   <glyph
   unicode="重"
   horiz-adv-x="1000"
   id="glyph233"><path
     d="M897.998 627.498l-44.9954 32.0035c-40.0016,-16.9994 -90.9998,-27.004 -332.001,-47.002l0 103.997c93.9983,27.004 160.998,44.0034 184.998,48.0053 14.0008,1.99526 14.0008,8.99568 2.99856,16.9994l-50.9982 36.9974 -14.0008 -5.99712c-19.998,-26.0007 -175.997,-80.0032 -440.998,-133.002l2.00093 -16.9994c69.1653,7.00042 198.166,26.9984 275,43.9978l0 -98.9978 -393.004 -31.9979 57.001 -42.0025c62.0005,12.9975 132.169,19.998 336.003,38.9983l0 -74.0004 -192.667 -17.997 -31.3347 50.0006 -14.9985 -6.00279c7.99805,-28.9993 14.0008,-65.9967 17.997,-113.996l8.00372 -110.335c4.16624,-33.9988 -1.0033,-62.1705 -11.9999,-76.1657l36.3285 -52.0015c9.1714,-13.0032 13.1676,-11.0023 16.1718,0.997631 1.99526,11.0023 2.99856,26.0007 2.99856,43.0001l169.501 14.0008 0 -95.0016 -244 -20.9956 58.333 -40.9992c26.1651,9.99898 57.9986,13.9952 185.667,25.9951l0 -101.996 -359 -21.0013 53.9968 -42.0025c86.0003,15.0041 271.168,28.0017 691.999,50.0006 14.0008,1.0033 15.0041,7.00042 3.00423,16.0018l-47.002 35.9997c-21.9989,-11.0023 -90.0022,-23.9998 -301.999,-35.9997l0 103 210.001 19.0003c12.9975,0.997631 13.9952,4.99949 2.99856,14.0008l-45.9987 33.9988c-19.0003,-11.9999 -59.0019,-21.9989 -167.001,-31.9979l0 94.996 225.997 20.168c14.0008,1.0033 16.0018,4.99949 6.00279,14.0008l-23.9998 23.9998 23.9998 154.332c3.99619,33.9988 11.9999,47.9996 23.9998,56.0034 9.00135,5.99712 9.99898,10.9966 0.997631,19.0003l-43.9978 36.9974 -28.0017 -36.9974 -184.998 -19.0003 0 74.998 375.999 35.9997c11.9999,0.997631 12.9975,6.00279 0.997631,14.9985zm-182 -141l-24.9974 -197.497 -170 -18.0027 0 88.0012 124.999 11.9999c14.9985,0.997631 16.0018,4.99949 6.00279,14.9985l-31.0002 28.9993c-18.0027,-8.99568 -47.002,-15.9961 -100.001,-21.9989l0 74.0004 194.997 19.4991zm-235.996 -218.498l-170.504 -19.0003 -12.9975 196.499 183.502 19.0003 0 -74.0004 -148.5 -12.9975 45.8287 -38.165c19.8336,5.99712 52.8347,10.9966 102.671,15.9961l0 -87.3324z"
     id="path235" /></glyph>
   <glyph
   unicode="N"
   horiz-adv-x="708"
   id="glyph237"><path
     d="M32.0022 737.998l0 -29.9963c74.0004,0 78.9984,-3.00047 78.9984,-75.9979l0 -525.007c0,-71.9945 -6.00094,-77.0009 -78.0038,-77.0009l0 -29.9963 197.003 0 0 29.9963c-70.9999,0 -77.0009,5.00635 -77.0009,77.0009l0 558.003 1.99753 0 386.007 -672.999 57.9951 0 0 638.999c0,72.9975 7.00388,77.0009 75.0033,77.0009l0 29.9963 -198.006 0 0 -29.9963c74.0004,0 81.0043,-4.00341 81.0043,-77.0009l0 -535.997 -1.99753 0 -368.004 642.994 -154.996 0z"
     id="path239" /></glyph>
   <glyph
   unicode="能"
   horiz-adv-x="1000"
   id="glyph241"><path
     d="M491.997 589.999l-114.995 105.998 -11.004 -8.99653 57.0005 -95.0009 -205 -29.9974 102.003 143.998c20.0005,28.9971 28.9971,39.0007 44.9961,43.9958 9.00328,3.00109 10.0036,7.00255 5.00182,16.0058l-37 68.9981 -10.9973 -3.00109c-4.00146,-49.998 -51.0051,-137.996 -124.005,-247.002 -15.9991,-22.9949 -30.9978,-30.9978 -69.9985,-38.994l29.9974 -39.0007c6.00219,-8.00292 10.0036,-9.00328 22.0013,-4.00146 32.9985,14.9987 87.0047,29.9974 256.999,66.9974l30.0042 -50.9983c5.00182,-9.00328 10.9973,-9.99689 13.9984,1.00036 7.00255,26.9963 9.00328,41.0014 10.9973,69.9985zm363.004 -154.002c-17.9998,54.0062 -22.0013,81.0025 -23.0016,142.005l-17.9998 -1.00036 -8.99653 -118.003c-31.0046,-10.9973 -98.002,-21.0009 -151.001,-14.9987 -52.0055,6.00219 -59.0013,14.9987 -59.0013,60.0016l0 40.0011 153.002 91.9998c25.996,15.9991 31.9982,19.0002 46.9969,20.0005 10.0036,1.00036 10.9973,4.99507 5.00182,14.9987l-34.9993 60.9952 -13.0047 -2.99434c-3.9947,-39.0007 -41.9951,-81.0025 -156.996,-154.002l0 120.997c0,39.0007 6.00219,59.0013 16.9994,72.006 6.00219,6.9958 5.00182,12.998 0,16.9994l-57.0005 53.9994 -10.9973 -7.00255c7.99616,-26.9963 12.998,-57.0005 12.998,-125.999l0 -213.003c0,-43.9958 19.0002,-75.0003 80.0022,-83.9969 49.998,-8.00292 140.997,-4.00146 207.995,9.99689 12.0044,2.00073 13.0047,7.00255 10.0036,16.9994zm-380.004 -3.9947c6.00219,4.99507 5.00182,8.99653 0,12.998l-42.9954 34.9993 -23.0016 -32.9985 -163.999 -21.0009 -29.0038 67.9978 -13.9984 -3.9947c6.00219,-36.0064 9.00328,-70.0053 9.00328,-113.001l0 -248.003c0,-68.9981 -9.00328,-112 -21.0009,-140.997l34.9993 -63.0027c4.00146,-8.00292 9.99689,-8.00292 12.998,-1.00036 10.0036,27.0031 11.9976,42.0018 11.9976,184l0 57.0005 125.005 13.9984c8.99653,1.00036 8.99653,5.00182 3.00109,11.004l-28.0035 27.9967c-31.9982,-12.998 -51.9987,-16.9994 -100.003,-21.0009l0 84.0036 125.005 9.99689c7.99616,0 9.99689,5.00182 3.00109,12.0044l-24.002 25.996c-17.9998,-6.9958 -46.0033,-11.9976 -104.004,-16.9994l0 81.0025 165.006 21.0009 0 -256.999c0,-78.0014 -4.00146,-116.002 -11.004,-155.003l-83.9969 51.9987 -11.004 -13.9984c45.0029,-40.0011 75.0003,-70.9989 110,-115.001 7.00255,-8.99653 11.004,-8.99653 14.0051,-1.00036 14.9987,39.0007 20.9941,80.0022 20.9941,143.998l0 275.999c0,54.0062 6.00219,75.0003 21.0009,88.0051zm423.006 -460.999c-19.0002,69.9985 -23.0016,99.9959 -28.0035,163.999l-17.9998 1.00036 -9.99689 -136.002c-40.0011,-12.998 -109.006,-20.0005 -186,-12.998 -52.0055,4.99507 -68.0045,30.9978 -68.0045,77.0011l0 77.9947 161.005 111c24.9956,16.9994 38.994,25.0024 47.9972,28.0035 7.00255,3.00109 8.00292,7.99616 6.00219,12.998l-30.0042 54.9998 -12.998 -3.00109c-2.00073,-27.9967 -45.0029,-76.0007 -172.002,-168l0 113.001c0,33.9989 3.00109,41.0014 13.9984,53.9994 8.00292,9.00328 8.00292,15.0055 -0.993606,23.0016l-54.0062 47.0036 -10.9973 -5.00182c9.00328,-29.0038 13.9984,-60.0016 13.9984,-105.998l0 -241c0,-60.0016 24.002,-102.003 87.0047,-113.001 59.9949,-11.004 164.999,-10.0036 251.997,5.99543 9.99689,1.00036 11.9976,4.00146 9.00328,15.0055z"
     id="path243" /></glyph>
   <glyph
   unicode="水"
   horiz-adv-x="1000"
   id="glyph245"><path
     d="M952.003 63.4991l0 17.5034c-141.002,23.9986 -163.006,30.9974 -324.004,313.996 133.003,100.004 165.001,119.999 186.004,126.004 10.9953,1.99504 12.9968,6.99879 9.99458,17.9941l-26.9944 81.0026 -14.004 -2.0015c-11.9961,-45.9957 -48.998,-95.0001 -167.997,-198l-89.0021 156.001 0 92.9986c0,44.0007 4.99729,80.0018 18.0006,101.005 5.99804,9.00028 4.99729,12.9968 -3.00225,18.9949l-76.9996 60.0062 -11.9961 -12.0025c21.9971,-40.9984 31.9981,-91.9979 31.9981,-165.001l0 -508c0,-94.6644 -3.00225,-124.5 -13.0033,-158.499l-129 77.4967 -10.001 -13.6618c86.0063,-78.8332 128.005,-121.833 157.001,-153.838 9.00028,-10.001 14.004,-9.00028 18.0006,2.0015 14.004,39.9977 19.0013,87.0006 19.0013,224.503l0 370.994 244.002 -454.495 182.001 4.99729zm-490.005 432.498l-46.9965 39.0034 -27.0009 -35.0004 -277.001 -45.0014 55.0025 -38.9969c37.9962,12.9968 92.9986,26.0001 218.996,47.9972 -45.9957,-157.996 -169.998,-334.999 -332.998,-467.498l10.001 -14.9983c161.999,120.497 277.001,254.5 351.999,423.498 20.0021,46.0022 31.9981,64.0027 46.0022,73.003 9.00028,5.99804 9.99458,10.9953 1.99504,17.9941z"
     id="path247" /></glyph>
   <glyph
   unicode="m"
   horiz-adv-x="845"
   id="glyph249"><path
     d="M457.993 421.997c-12.9943,49.9981 -52.9853,90.9973 -133.994,90.9973 -60.9947,0 -113.999,-42.9969 -156.006,-87.002l-0.989507 0 -3.99537 81.0089 -10.0071 5.99305c-35.9957,-25.9886 -69.9937,-37.9934 -119.992,-46.0028l0 -21.9932c61.9842,1.00818 66.9878,-7.00123 66.9878,-69.9937l0 -275.998c0,-65.9983 -3.99537,-72.9995 -66.9878,-72.9995l0 -26.0072 195.997 0 0 26.0072c-55.0017,0 -60.0052,7.00123 -60.0052,67.996l0 282.999c49.9981,62.9924 92.995,97.9986 140.006,97.9986 85.9938,0 89.9892,-92.0055 89.9892,-147.007l0 -240.992c0,-53.9935 -2.98719,-60.9947 -56.9994,-60.9947l0 -26.0072 184.011 0 0 26.0072c-52.0145,0 -58.0075,5.99305 -58.0075,66.9878l0 284.997c35.9957,56.0099 81.0089,97.0091 138.998,97.0091 74.0077,0 92.0055,-72.01 92.0055,-144.001l0 -243.998c0,-53.9935 -7.00123,-60.9947 -58.0075,-60.9947l0 -26.0072 184.011 0 0 26.0072c-51.0063,0 -56.9994,7.00123 -56.9994,66.9878l0 245.006c0,67.996 -13.013,106.997 -38.012,135.002 -25.9886,30.0026 -65.9983,39.991 -103.992,39.991 -72.01,0 -122.998,-42.9969 -163.997,-90.9973l-4.01404 0z"
     id="path251" /></glyph>
   <glyph
   unicode="日"
   horiz-adv-x="1000"
   id="glyph253"><path
     d="M736.004 694.005c11.9922,11.9922 10.9955,16.9968 -1.00722,26.9956l-44.1602 36.9943 -37.3405 -45.9963 -333.001 -38.9982 -37.4979 86.0018 -19.9975 -6.99807c10.9955,-44.9996 19.0008,-112.001 19.0008,-187.007l6.00134 -334.995c1.99345,-117.005 -6.00134,-147.998 -19.9975,-165.005l35.9976 -70.9984c12.0027,-22.0014 16.0001,-22.0014 22.9982,-3.00067 3.9974,14.0066 5.00462,24.0054 5.00462,57.0023l282.493 31.0034 34.0041 -70.0017c12.0027,-25.0021 16.9968,-22.9982 23.166,0.996727 7.9948,29.9962 16.168,96.9972 23.166,246.999l18.1614 370.006c2.00394,35.0008 3.00067,44.9996 23.0086,67.001zm-69.3407 -22.0014l-15.1607 -415.005c-3.9974,-105.999 -15.0034,-148.995 -28.8316,-161.994l-41.9989 32.0002c-22.8408,-11.006 -72.6771,-18.004 -248.174,-40.0055l-3.9974 278.999 278.171 35.0008c16.9968,2.00394 19.0008,6.99807 5.99085,18.004l-36.8264 30.9929c-34.0041,-13.9961 -115.673,-29.9962 -247.335,-46.993l-3.00067 229.992 341.164 39.0087z"
     id="path255" /></glyph>
   <glyph
   unicode="北"
   horiz-adv-x="1000"
   id="glyph257"><path
     d="M914 40.0016c-16.0018,72.9971 -23.9998,118.996 -31.0002,187.997l-21.5001 0 -4.99949 -172.001c-58.8319,-19.0003 -143.664,-20.9956 -205.665,-12.9975 -55.8333,9.00135 -63.837,33.0012 -63.837,148.998l0 150.002c147.666,119.001 217.671,172.001 241.5,184 8.00372,4.00186 9.99898,7.00042 8.00372,16.9994l-18.0027 78.0022 -17.8326 0.997631c-14.0008,-45.9987 -64.0014,-121.002 -213.669,-243.002l0 287c0,32.0035 7.00042,66.0023 15.0041,86.0003 5.99712,15.0041 4.99949,21.0013 -4.99949,30.0026l-58.0043 57.9986 -12.9975 -9.00135c12.9975,-26.0007 17.997,-57.9986 17.997,-146l0 -517.997c0,-124.001 22.0046,-150.002 97.8358,-160.998 92.8307,-15.0041 188.666,-8.00372 257.168,5.99712 17.997,4.00186 19.0003,7.99805 14.9985,28.0017zm-487.002 686.999c9.00135,11.9999 7.00042,17.997 -3.99619,26.9984l-57.9986 55.0001 -14.0008 -10.9966c14.9985,-34.0045 20.9956,-72.0051 20.9956,-163.005l0 -161.996 -270.998 -31.0002 59.0019 -44.0034c38.9983,11.9999 124.999,28.0017 211.997,40.0016l0 -206.997 -314.996 -155.001 76.9989 -28.9993c19.0003,19.0003 57.9986,47.9996 237.997,153.998l0 -64.999c0,-47.9996 -9.99898,-97.0026 -22.9965,-122l38.9983 -76.0013c9.99898,-19.0003 16.0018,-19.998 20.0036,4.00186 3.99619,27.996 4.99949,58.9962 4.99949,143.001l0 519.998c0,76.9989 3.99619,110 13.9952,122z"
     id="path259" /></glyph>
   <glyph
   unicode="中"
   horiz-adv-x="1000"
   id="glyph261"><path
     d="M846.999 629l-48.9986 48.9986 -43.0007 -47.9978 -233.001 -26.0006c0,133.999 3.99981,170.001 14.0011,187.001 6.0015,8.99691 3.99981,14.9984 -6.0015,22.998l-73.9984 57.9991 -13.0003 -9.99776c31.0012,-62.0025 32.9994,-93.0001 32.9994,-263.001l-228.499 -24.9997 -41.9998 82.9988 -15.9993 -3.99981c5.99794,-19.9991 17.9974,-89.9976 18.9982,-118l6.99879 -161.001c2.00169,-48.9986 -4.9971,-68.0004 -17.0001,-81.998l44.0015 -70.9994c9.00047,-14.0011 13.0003,-13.0003 15.9993,2.99897 3.00253,14.0011 3.99981,35.9983 3.00253,65.0014l214.498 20.9999 0 -206.003c0,-72.9975 -3.99981,-89.0003 -24.9997,-122.997l44.0015 -82.0015c5.99794,-10.9986 10.9986,-13.0003 15.9993,-2.00169 7.99963,20.0026 10.9986,41.9998 10.9986,104.002l0 313.001 293.002 26.9979c11.9994,1.00084 13.0003,6.0015 3.99981,15.002l-30.0004 30.0004 23.0016 166.999c3.99981,31.0012 8.99691,41.9998 32.9994,58.9999 9.00047,6.0015 9.00047,10.0013 1.99813,17.0001zm-78.999 -38l-26.0006 -213.002 -220 -23.9989 0 211 246.001 26.0006zm-292.001 -241l-216.499 -20.9999 -10.9986 207 227.498 24.9997 0 -211z"
     id="path263" /></glyph>
   <glyph
   unicode="g"
   horiz-adv-x="542"
   id="glyph265"><path
     d="M523.001 455.659l0 44.1731 -145.999 -16.0001c-28.9944,17.1764 -65.9983,29.1625 -113.999,29.1625 -108.006,0 -199.003,-67.996 -199.003,-185.001 0,-66.9878 30.9921,-121 78.9926,-151.992 -39.991,-24.0096 -74.9972,-49.9981 -74.9972,-92.0055 0,-46.0028 40.0097,-67.996 79.0112,-73.989 -59.0157,-27.0154 -117.005,-77.0136 -117.005,-143.012 0,-87.9915 92.0055,-133.994 226,-133.994 176.002,0 261.006,83.9961 261.006,181.005 0,68.9855 -42.0074,141.985 -193.01,141.985l-110.993 0c-60.0052,0 -93.0137,13.013 -93.0137,43.0156 0,23.0014 19.006,42.9969 51.0063,62.9924 32.0003,-14.0025 62.0029,-19.9955 97.0091,-19.9955 103.002,0 197.995,62.0029 197.995,187.334 0,53.1534 -19.9955,96.1689 -56.0099,129.327l113.009 -3.00586zm-257.011 -279.657c-81.9984,0 -131.997,64.0006 -131.997,153 0,76.9949 46.0028,151.003 129.999,151.003 88.0102,0 129.999,-74.0077 129.999,-151.003 0,-85.8444 -42.9969,-153 -128.001,-153zm52.0145 -176.002c116.986,0 140.995,-55.0017 140.995,-101.004 0,-65.9983 -58.9971,-133.994 -197.995,-133.994 -99.0068,0 -169,40.9992 -169,108.995 0,51.0063 35.9957,90.0078 96.9904,126.004l129.009 0z"
     id="path267" /></glyph>
   <glyph
   unicode="E"
   horiz-adv-x="563"
   id="glyph269"><path
     d="M535.003 157.997l-36.0056 0c-26.9959,-112.998 -35.9973,-118.999 -94.9953,-118.999l-186.999 0c-21.0033,0 -29.0017,5.00635 -29.0017,44.9987l0 281.008 142 0c46.0016,0 52.9971,-6.00094 52.9971,-103.002l35.0027 0 0 243.999 -35.0027 0c0,-92.9978 -6.99552,-101.999 -52.9971,-101.999l-142 0 0 247.994c0,42.0066 3.00047,48.0075 37.9948,48.0075l149.004 0c55.9976,0 66.0019,-3.00047 92.9978,-117.002l36.0056 0 -30.9993 154.996 -438.001 0 0 -29.9963c72.9975,0 80.0013,-4.00341 80.0013,-77.0009l0 -524.004c0,-70.9999 -7.00388,-77.0009 -80.0013,-77.0009l0 -29.9963 466 0 33.9997 157.997z"
     id="path271" /></glyph>
   <glyph
   unicode="法"
   horiz-adv-x="1000"
   id="glyph273"><path
     d="M326.001 657.002l-138.999 89.997 -9.00027 -13.9998 126.997 -147.999c9.00027,-10.9978 13.9998,-9.00027 16.003,0.998762 5.99828,23.9988 7.9958,44.0026 4.99951,71.0034zm-85.0032 -202.001l-145.996 74.9984 -8.00151 -13.9998 139.998 -133.001c6.00398,-6.99704 11.0035,-5.99828 13.001,3.00199 4.00075,20.9968 4.00075,36.9998 0.998762,69.0002zm663.999 -94.0034l-53.9959 36.9998c-36.9998,-18.0005 -73.9997,-24.9976 -249,-41.0006l0 175 213.998 21.0025c9.99903,0.998762 10.9978,5.99828 2.00323,13.001l-48.0033 36.0011c-31.0016,-17.0018 -86.0019,-26.002 -167.997,-34.0035l0 91.0014c0,33.9978 6.99704,69.9989 18.9993,93.9977 4.00075,7.00275 2.99628,10.0047 -3.00199,16.003l-59.9999 61.9974 -14.9985 -9.99903c10.9978,-22.0013 17.0018,-73.0009 17.0018,-148.998l0 -108.003 -220.001 -20.9968 62.9962 -39.0031c26.002,8.00151 86.0019,17.0018 157.005,25.0033l0 -175.999 -239.001 -20.0038 33.9978 96.9997 -21.0025 9.99903 -162.998 -394.996 -74.9984 62.9962 -16.003 -15.9973c45.0013,-56.9979 59.9999,-78.0004 94.0034,-127.003 5.99828,-7.9958 11.9966,-7.9958 15.9973,3.00199l124.999 348.003 41.9993 -27.0008c21.0025,6.99704 80.0037,16.9961 186.004,27.0008 -9.99903,-41.0006 -46.0001,-104.002 -83.9987,-163.004 -63.0019,-98.9972 -82.0012,-116.998 -150.003,-138l56.9979 -39.9961c7.00275,-5.00522 10.0047,-5.00522 20.0038,0 15.9973,9.00027 96.001,26.9951 336.999,70.9977 20.9968,-35.0023 34.9966,-63.0019 51.9984,-104.002 4.99951,-10.9978 11.0035,-11.9966 17.0018,0 10.9978,23.0001 19.9981,59.0011 18.9993,87.0007l-176.998 182.003 -13.9998 -11.0035c36.9998,-51.9984 65.9982,-92.999 86.995,-127.996l-292.997 -40.0018 116.998 157c40.0018,55.0004 53.0028,70.9977 60.9986,77.0017 8.00151,5.99828 8.00151,9.99903 4.00075,18.9993l-16.9961 33.9978 322.001 29.004c12.9953,0.998762 12.9953,6.99704 3.99505,12.9953z"
     id="path275" /></glyph>
   <glyph
   unicode=" "
   horiz-adv-x="279"
   id="glyph277" />
   <glyph
   unicode="a"
   horiz-adv-x="501"
   id="glyph279"><path
     d="M350.006 320.003l-68.0146 -16.0001c-196.987,-40.9992 -242.989,-113.009 -242.989,-186.998 0,-81.9984 67.0065,-129.009 151.992,-129.009 74.0077,0 122.008,24.9991 161.999,63.0111l3.00586 0c8.99892,-37.0038 32.0003,-56.9994 69.9937,-56.9994 28.0049,0 47.0109,4.98488 64.0006,12.9943l-7.00123 24.9991c-8.99892,-5.00355 -18.9873,-8.00941 -29.9839,-8.00941 -23.0014,0 -34.0167,24.0096 -34.0167,74.0077l0 259.998c0,86.0125 -36.9852,154.998 -170.998,154.998 -112.001,0 -185.99,-60.9947 -185.99,-110.003 0,-16.0001 7.99074,-29.9839 28.0049,-29.9839 20.985,0 30.9921,9.98842 35.9957,25.9886 14.0025,31.0108 39.0015,81.0089 117.994,81.0089 62.0029,0 106.008,-26.0072 106.008,-113.009l0 -46.9923zm0 -232.012c-31.0108,-30.9921 -72.9995,-60.9947 -131.997,-60.9947 -56.0099,0 -106.008,26.9968 -106.008,97.9986 0,71.0018 64.0006,117.005 238.005,161.01l0 -198.014z"
     id="path281" /></glyph>
   <glyph
   unicode="r"
   horiz-adv-x="402"
   id="glyph283"><path
     d="M161.999 507.001l-8.99892 5.99305c-37.0038,-26.9968 -69.9937,-39.0015 -119.992,-46.0028l0 -21.9932c59.9866,0 65.9983,-5.99305 65.9983,-69.0041l0 -276.987c0,-65.9983 -5.00355,-72.9995 -65.9983,-72.9995l0 -26.0072 213.995 0 0 26.0072c-74.0077,0 -79.0112,7.99074 -79.0112,71.9913l0 282.01c40.0097,54.983 78.0031,93.9845 116.015,93.9845 18.9873,0 26.9968,-9.98842 36.9852,-34.9875 8.99892,-22.0119 21.0037,-32.0003 36.0143,-32.0003 18.9873,0 29.9839,12.9943 29.9839,35.9957 0,37.9934 -34.9875,69.9937 -84.9856,69.9937 -49.9981,0 -86.0125,-25.9886 -134.013,-85.9938l-1.99768 0 -3.99537 80.0007z"
     id="path285" /></glyph>
   <glyph
   unicode="P"
   horiz-adv-x="598"
   id="glyph287"><path
     d="M34.9936 0l247.001 0 0 29.9966c-88.9964,0 -93.9934,4.997 -93.9934,77.0006l0 226.998 86.0011 0c113.996,0 174.004,20.0026 217.998,55.0109 43.0005,34.9936 63.9967,85.9865 63.9967,150.991 0,65.0049 -24.9996,115.004 -64.9903,149.004 -40.0053,31.9984 -97.0033,48.9911 -208.004,48.9911l-248.009 0 0 -29.9966c74.0053,0 80.0105,-4.00345 80.0105,-77.0006l0 -523.999c0,-70.9955 -6.00517,-77.0006 -80.0105,-77.0006l0 -29.9966zm153.008 371.999l0 267.997c0,51.0074 2.99528,60.0079 24.9996,60.0079l58.0062 0c71.989,0 207.989,-4.00345 207.989,-158.998 0,-142.006 -98.9904,-169.007 -204.994,-169.007l-86.0011 0z"
     id="path289" /></glyph>
   <glyph
   unicode="o"
   horiz-adv-x="544"
   id="glyph291"><path
     d="M272.003 -12.0048c170.998,0 229.995,109.014 229.995,265.001 0,131.007 -55.0017,259.998 -229.995,259.998 -147.997,0 -229.995,-97.9986 -229.995,-259.998 0,-179.997 81.9984,-265.001 229.995,-265.001zm-1.00818 492.009c109.014,0 158.004,-83.0066 158.004,-229.006 0,-87.002 -17.9978,-231.003 -158.004,-231.003 -88.9997,0 -156.996,61.0134 -156.996,231.003 0,158.993 58.9971,229.006 156.996,229.006z"
     id="path293" /></glyph>
   <glyph
   unicode="M"
   horiz-adv-x="897"
   id="glyph295"><path
     d="M451.995 104.996l-2.99528 0 -267.004 632.998 -149.998 0 0 -29.9966c74.0053,0 78.0088,-2.99528 78.0088,-73.9907l0 -527.009c0,-70.9955 -4.00345,-77.0006 -77.0006,-77.0006l0 -29.9966 191.99 0 0 29.9966c-70.0019,0 -72.9972,6.00517 -72.9972,77.0006l0 532.999 2.00172 0 267.997 -644.993 27.9949 0 257.01 644 2.99528 0 0 -532.006c0,-70.9955 -4.00345,-77.0006 -74.9989,-77.0006l0 -29.9966 228.007 0 0 29.9966c-74.0053,0 -80.0105,4.997 -80.0105,77.0006l0 523.999c0,72.9972 5.01162,77.0006 80.0105,77.0006l0 29.9966 -157.011 0 -254 -632.998z"
     id="path297" /></glyph>
   <glyph
   unicode="润"
   horiz-adv-x="1000"
   id="glyph299"><path
     d="M529.002 729.501l-109.004 107.997 -11.9961 -9.00028 83.9983 -164c3.99654,-7.99954 9.00028,-7.99954 12.9968,-0.994293 13.0033,17.9941 20.0021,37.9962 24.0051,65.9978zm-248.005 -22.9979l-114.996 81.9968 -10.001 -12.9968 98.0024 -143.004c5.99804,-9.00028 9.99458,-9.00028 13.9976,-1.00075 12.0025,21.0028 16.9998,54.0017 12.9968,75.0045zm-61.0005 -231.005l-113.995 76.9996 -10.001 -13.9976 99.9974 -136.999c6.00449,-6.99879 9.00028,-6.99879 12.0025,0 7.99954,22.9979 11.0018,47.9972 11.9961,73.9973zm549.004 -257.496l-33.9996 29.9966c-30.0031,-9.00028 -74.0038,-14.9983 -118.999,-19.0013l0 143.004 125.998 9.00028c10.001,0 12.0025,2.99579 3.00225,11.0018l-33.0053 32.9989c-18.9949,-9.00028 -36.9954,-12.0025 -95.9944,-19.0013l0 123.002 142.997 10.9953c10.001,1.00075 12.0025,6.00449 3.00225,13.0033l-39.0034 32.9989c-21.9971,-12.0025 -61.0005,-21.0028 -278.002,-38.0026l38.0026 -35.0004c20.0021,7.00524 32.9989,10.001 93.9994,14.004l0 -123.499 -124.002 -11.1696 42.0056 -35.3297c20.9964,5.99804 35.9947,9.00028 81.9968,11.9961l0 -142.997 -152.998 -11.0018 37.0019 -38.0026c51.9938,10.001 88.9956,14.004 304.996,26.0001 13.0033,1.00075 14.004,5.00374 3.00225,15.0048zm106.996 511.499c5.00374,3.99654 5.00374,7.99954 0,12.9968l-42.9999 42.0056 -31.9981 -40.0041 -224 -20.0021 47.0029 -40.9984c37.9962,9.00028 55.9967,12.0025 186.998,27.0009l0 -570.498c0,-58.0047 -5.99804,-117.004 -12.0025,-135.004l-114.996 64.0027 -11.0018 -13.9976c61.0005,-49.0044 93.9994,-83.0041 142.997,-143.004 6.00449,-6.99879 9.00028,-6.99879 12.0025,0 22.9979,53.001 24.9994,67.9993 24.9994,217.001l0 527.498c0,50.9995 3.00225,59.9997 22.9979,73.003zm-463.999 -90.0028c3.00225,6.00449 2.0015,10.001 -1.00075,14.004l-53.9952 62.0012 -12.0025 -9.00028c10.001,-41.0049 12.9968,-80.0018 12.9968,-156.001l0 -376.501c0,-61.0005 -8.99383,-116.003 -24.9994,-135.004l42.9999 -84.9991c5.00374,-6.99879 9.00028,-7.99954 12.0025,0 6.99879,16.9998 11.0018,58.0047 11.0018,176.003l0 414.497c0,59.9997 2.99579,80.0018 12.9968,95.0001zm-98.9967 -168.997l-15.9991 5.99804 -122.001 -376.501 -63.002 49.0044 -12.9968 -13.0033c32.9989,-44.0007 58.999,-83.9983 87.9949,-132.996 5.00374,-7.00524 7.99954,-7.00524 10.001,2.99579l116.003 464.502z"
     id="path301" /></glyph>
   <glyph
   unicode="i"
   horiz-adv-x="268"
   id="glyph303"><path
     d="M137 695.008c-26.0072,0 -44.9946,-21.0037 -44.9946,-59.0157 0,-38.9829 18.9873,-59.9866 44.9946,-59.9866 24.9991,0 46.0028,21.0037 46.0028,59.9866 0,35.0062 -17.9978,59.0157 -46.0028,59.0157zm32.0003 -182.013c-44.9946,-24.9991 -78.0031,-39.0015 -135.002,-46.0028l0 -21.9932c71.0018,0 74.0077,-1.99768 74.0077,-67.0065l0 -278.985c0,-65.0088 -4.01404,-72.9995 -74.0077,-72.9995l0 -26.0072 213.995 0 0 26.0072c-66.9878,0 -69.9937,7.99074 -69.9937,71.9913l0 409.992 -8.99892 5.00355z"
     id="path305" /></glyph>
  </font>
  <font
   id="FontID0"
   horiz-adv-x="503"
   font-variant="normal"
   font-style="normal"
   font-weight="400"
   horiz-origin-x="0"
   horiz-origin-y="0"
   vert-origin-x="45"
   vert-origin-y="90"
   vert-adv-y="90"
   style="font-style:normal;font-variant:normal;font-weight:400">
	<font-face
   font-family="方正幼线简体"
   id="font-face308">
	</font-face>
   <missing-glyph
   id="missing-glyph310"><path
     d="M0 0z"
     id="path312" /></missing-glyph>
   <glyph
   unicode="U"
   horiz-adv-x="519"
   id="glyph314"><path
     d="M410.162 718.827l50.8301 0 0 -535.159c0,-62.4987 -19.6524,-110.668 -58.6501,-144.67 -36.5002,-31.1572 -80.6772,-46.8382 -132.838,-46.8382 -41.6795,0 -80.6772,11.6686 -117.177,35.1696 -46.8177,38.9977 -70.3187,88.4972 -70.3187,148.498l0 543 46.8177 0 0 -507.83c0,-65.16 15.681,-115.99 47.002,-152.327 28.6802,-20.8397 59.8375,-31.3415 93.6764,-31.3415 44.3203,0 78.1592,12.9992 101.66,38.9977 25.9985,28.6802 38.9977,70.3392 38.9977,124.997l0 527.503z"
     id="path316" /></glyph>
   <glyph
   unicode="D"
   horiz-adv-x="511"
   id="glyph318"><path
     d="M82.0078 0l0 718.827 179.656 0c78.1797,0 135.499,-34.0027 171.999,-101.66 28.496,-54.6582 42.8463,-140.658 42.8463,-257.835 0,-124.997 -18.1785,-218.674 -54.6787,-281.173 -38.9977,-52.1607 -97.6683,-78.1592 -175.664,-78.1592l-164.159 0zm46.8177 679.666l0 -640.668 90.0121 0c93.656,-2.49749 153.493,28.6597 179.656,93.8402 20.8397,46.8382 31.1777,122.336 31.1777,226.494 0,109.501 -11.6686,187.496 -35.1696,234.498 -28.6597,62.4987 -87.1666,90.9947 -175.664,85.8359l-90.0121 0z"
     id="path320" /></glyph>
   <glyph
   unicode="万"
   horiz-adv-x="1000"
   id="glyph322"><path
     d="M66.3322 -23.4975c229.171,117.332 351.668,350.328 367.336,699.332l-382.832 0 0 31.1638 902.333 0 0 -31.1638 -488.337 0c0,-47.0028 -7.82991,-117.168 -23.4975,-211.002l371.169 0c0,-145.831 -5.17319,-273.501 -15.6676,-382.832 -2.5009,-93.6628 -89.8375,-133.997 -261.667,-121.001l-11.6708 35.1684c161.335,-15.6676 239.502,14.3354 234.336,89.8297 15.6676,98.836 22.1653,213.503 19.5008,343.667l-339.834 0c-62.499,-236.993 -180.999,-397.159 -355.501,-480.499l-15.6676 27.3385z"
     id="path324" /></glyph>
   <glyph
   unicode="南"
   horiz-adv-x="1000"
   id="glyph326"><path
     d="M468.835 488.333l0 148.33 -402.501 0 0 31.3396 402.501 0 0 120.994 31.1653 -7.6638 0 -113.33 418.003 0 0 -31.3396 -418.003 0 0 -148.33 347.667 0 0 -484.498c2.66651,-57.1654 -41.6634,-87.1685 -132.835,-89.835l-11.6668 31.3331c78.1682,5.16516 114.499,24.6636 109.333,58.5018l0 453.165 -648.498 0 0 -535.168 -35.1683 0 0 566.501 340.003 0zm128.832 -187.502l-23.5015 23.3336c26.168,23.5015 50.838,49.5016 74.333,78.1682l23.3336 -23.5015c-31.1653,-38.9969 -55.9967,-64.997 -74.1652,-78.0003zm-203.165 0c-15.6698,13.0033 -40.3334,36.3369 -74.1652,70.3365l23.495 23.3336c10.3368,-7.83812 26.0001,-23.3336 46.8351,-46.8351 10.3303,-10.4982 18.1684,-18.1684 23.3336,-23.5015l-19.4985 -23.3336zm-140.667 -242.162l0 31.1653 222.663 0 0 129 -179.663 0 0 27.3301 398.498 0 0 -27.3301 -187.502 0 0 -129 214.838 0 0 -31.1653 -214.838 0 0 -136.838 -31.3331 0 0 136.838 -222.663 0z"
     id="path328" /></glyph>
   <glyph
   unicode="通"
   horiz-adv-x="1000"
   id="glyph330"><path
     d="M394.503 39.0015l-35.1684 0 0 460.998 542.998 0 0 -421.833c2.66451,-41.666 -40.3338,-62.499 -128.831,-62.499l-4.00455 35.1684c65.1713,-2.6723 97.6674,6.49765 97.6674,27.3307l0 93.6628 -218.661 0 0 -148.332 -35.1684 0 0 148.332 -218.832 0 0 -132.828zm-308.506 -117.168l-23.4975 23.4975c52.1682,39.0015 98.9996,72.8376 140.666,101.501l0 320.333 -144.499 0 0 31.3352 179.667 0 0 -343.83c15.504,-70.3367 106.666,-108.006 273.33,-113.335 135.5,0 231.835,1.33225 289.169,3.99676 59.8345,2.6723 114.504,9.16995 164,19.5008l7.8377 -31.1638c-98.9996,-20.833 -252.668,-28.6707 -461.006,-23.4975 -150.996,0 -249.996,33.8283 -296.828,101.493 -49.5037,-28.6629 -92.502,-58.4945 -128.839,-89.8297zm300.668 816.5l0 31.1638 398.499 0c20.833,0 33.8361,-6.49765 39.0015,-19.493 5.3368,-13.0031 0,-26.0062 -15.4962,-39.0015 -31.3352,-26.1698 -78.1666,-62.499 -140.673,-109.502 -15.6598,-13.0031 -27.3307,-22.0017 -35.1606,-27.3307 12.9953,-7.8377 28.6629,-19.5008 46.8314,-35.1684l-23.3339 -23.3339c-80.8311,57.3336 -143.33,98.9996 -187.497,124.998l19.5008 27.3307c7.82991,-5.1654 23.3261,-15.6598 46.8314,-31.3274 33.8283,-20.833 57.3336,-35.1684 70.3289,-42.8347 5.17319,5.1654 19.5008,15.4962 43.0061,31.1638 72.8298,54.6691 113.164,87.1652 120.994,97.6674 5.17319,5.1654 6.50545,9.16995 4.00455,11.6708 0,2.66451 -2.66451,3.99676 -7.8377,3.99676l-378.999 0zm7.8377 -386.836l218.832 0 0 117.34 -218.832 0 0 -117.34zm254.001 -31.1638l0 -117.168 218.661 0 0 117.168 -218.661 0zm-254.001 0l0 -117.168 218.832 0 0 117.168 -218.832 0zm254.001 148.503l0 -117.34 218.661 0 0 117.34 -218.661 0zm-382.84 113.164l-31.3274 -15.6676c-23.3339,65.1713 -48.1715,119.833 -74.1699,164.171l31.1638 11.6631c2.6723,-7.82991 11.8345,-25.9984 27.5021,-54.6691 20.833,-49.4959 36.337,-84.6643 46.8314,-105.497z"
     id="path332" /></glyph>
   <glyph
   unicode="股"
   horiz-adv-x="1000"
   id="glyph334"><path
     d="M113.331 288.998l0 476.671 230.502 0 0 -773.505c5.16821,-49.4993 -35.1669,-72.8285 -121.167,-70.3281l-11.6646 31.3326c72.8343,-2.66784 106.667,10.3307 101.499,38.9955l0 265.669 -167.999 0c-2.50038,-125.001 -26.0027,-239.666 -70.3339,-343.833l-35.1669 7.83605c49.4993,114.665 74.3299,236.999 74.3299,367.163zm671.833 74.3356l-382.829 0 0 31.1652 410.165 0c28.6648,-2.50038 36.5009,-20.8345 23.4966,-54.6676 -41.6633,-109.329 -89.8287,-200.498 -144.664,-273.499 52.1672,-46.8315 122.501,-88.5006 211.002,-125.001l-15.6663 -31.1652c-91.1684,41.6691 -165.337,86.0002 -222.666,132.832 -75.5021,-52.1614 -167.837,-88.4948 -277.334,-109.329l-7.83605 34.9995c114.665,18.3342 201.832,53.5011 261.835,105.501 -41.6691,62.4978 -80.832,139.334 -117.165,230.496l31.1652 19.5006c39.1629,-101.499 76.8302,-177.001 113.331,-226.501 57.3354,80.6703 101.499,162.836 132.837,246.169 5.16244,15.4989 0,22.001 -15.6721,19.5006zm-640.662 132.832l0 -207.167 167.999 0 0 207.167 -167.999 0zm0 238.165l0 -207 167.999 0 0 207 -167.999 0zm406.331 -23.3291l0 54.6676 250.003 0 0 -207c0,-20.8345 10.3307,-31.3384 31.1652,-31.3384l93.8305 0 0 -31.1652 -101.667 0c-36.3334,2.50038 -56.0015,22.001 -58.4961,58.5019l0 179.663 -179.669 0c0,-124.996 -44.3311,-212.162 -132.832,-261.662l-15.6663 31.1652c72.9959,34.0005 110.663,103 113.331,207.167z"
     id="path336" /></glyph>
   <glyph
   unicode="士"
   horiz-adv-x="1000"
   id="glyph338"><path
     d="M507.832 765.669l31.166 -7.83562 0 -328.166 414.165 0 0 -31.166 -414.165 0 0 -398.502 339.835 0 0 -31.3345 -722.497 0 0 31.3345 351.496 0 0 398.502 -417.999 0 0 31.166 417.999 0 0 336.001z"
     id="path340" /></glyph>
   <glyph
   unicode="电"
   horiz-adv-x="999"
   id="glyph342"><path
     d="M464.834 171.834l-324.167 0 0 472.666 324.167 0 0 160.166 31.3331 -7.83329 0 -152.333 328 0 0 -472.666 -328 0 0 -171.834c0,-26.0008 14.3331,-39.0003 42.8331,-39.0003l273.499 0c46.8336,-2.66699 74.1679,33.834 82.0012,109.334l31.3331 -7.83329c-10.5003,-93.6673 -48.1671,-138 -113.334,-132.834l-273.499 0c-49.3329,0 -74.1663,23.4999 -74.1663,70.3335l0 171.834zm31.3331 222.667l0 -191.333 292.832 0 0 191.333 -292.832 0zm292.832 218.832l-292.832 0 0 -187.499 292.832 0 0 187.499zm-324.165 -410.166l0 191.333 -289.001 0 0 -191.333 289.001 0zm-289.001 410.166l0 -187.499 289.001 0 0 187.499 -289.001 0z"
     id="path344" /></glyph>
   <glyph
   unicode="方"
   horiz-adv-x="1000"
   id="glyph346"><path
     d="M406.332 601.498l-339.995 0 0 31.3337 894.667 0 0 -31.3337 -519.669 0c-5.16681,-70.1642 -11.665,-130.161 -19.5022,-179.666l379 0c-7.82964,-93.6682 -18.3297,-186.164 -31.3337,-277.336 -12.9964,-137.998 -67.6678,-201.831 -163.999,-191.331 -31.3337,0 -65.1638,5.16681 -101.664,15.5004l0 31.3337c20.8336,-5.16681 55.9952,-10.3336 105.5,-15.6668 73.001,-7.82964 116,47.0005 128.996,164.165 13.004,98.835 22.1651,179.666 27.3319,242.167l-351.66 0c-33.8377,-218.829 -151.002,-369.831 -351.502,-453.166l-15.6668 31.1673c231.833,83.501 351.668,294.334 359.498,632.832zm128.837 58.6656l-31.3337 -15.6668c-18.1708,54.6713 -39.0045,101.672 -62.5009,140.669l31.3337 15.6668c5.16681,-10.5 15.6668,-33.8301 31.1673,-70.3306 13.1629,-31.3337 23.4965,-54.6713 31.3337,-70.3381z"
     id="path348" /></glyph>
   <glyph
   unicode="二"
   horiz-adv-x="1000"
   id="glyph350"><path
     d="M171.832 578.168l0 31.1653 656.336 0 0 -31.1653 -656.336 0zm-113.162 -492.168l894.495 0 0 -31.3331 -894.495 0 0 31.3331z"
     id="path352" /></glyph>
   <glyph
   unicode="阳"
   horiz-adv-x="1000"
   id="glyph354"><path
     d="M886.664 -19.4985l-429.663 0 0 730.502 429.663 0 0 -730.502zm-398.33 23.3336l363.169 0 0 328.162 -363.169 0 0 -328.162zm363.169 359.501l0 312.498 -363.169 0 0 -312.498 363.169 0zm-734.337 386.664l250 0c18.3363,0 28.6666,-5.16516 31.3331,-15.6698 2.49864,-7.83167 -2.66651,-24.6636 -15.6633,-50.6637 -46.8351,-91.165 -83.3333,-162.832 -109.333,-214.832 67.6635,-67.8379 110.663,-134.165 128.832,-199.336 23.5015,-112 -28.6666,-167.997 -156.168,-167.997l-3.99654 35.1618c109.333,-10.3303 150.997,31.3396 124.997,125.003 -10.3303,65.1649 -54.6667,132.835 -132.835,203.165 10.5046,20.8349 27.3366,53.3367 50.838,97.6666 41.6634,75.5017 67.6635,127.67 78.1682,156.336l-211.003 0 0 -789.171 -35.1683 0 0 820.337z"
     id="path356" /></glyph>
   <glyph
   unicode="泥"
   horiz-adv-x="1000"
   id="glyph358"><path
     d="M222.665 675.832c-38.9998,23.3334 -78.1658,45.5029 -117.166,66.3329l19.4999 27.3378c2.66966,0 5.1683,-1.33483 7.83321,-3.83347 49.5026,-26.003 84.669,-46.8377 105.504,-62.5042l-15.6712 -27.3331zm50.8375 -738.331c75.4962,119.831 114.496,280 117.166,480.5l0 339.835 511.667 0 0 -230.502 -476.5 0c7.83321,-265.669 -32.6677,-467.499 -121.165,-605.499l-31.1666 15.6664zm597.666 624.999l0 163.999 -445.334 0 0 -163.999 445.334 0zm-687.503 -132.832l-11.8329 -31.1666c-12.9968,5.16355 -33.8315,13.0015 -62.4994,23.3334 -25.9983,10.4981 -46.833,18.3313 -62.4994,23.4996l15.6664 31.1666c41.6694,-15.5002 81.9993,-31.1666 121.165,-46.833zm734.336 -320.335c-7.83321,-104.164 -39.166,-153.667 -93.8322,-148.332l-191.336 0c-46.833,-2.66491 -68.9978,16.835 -66.4991,58.4997l0 410.167 35.1663 -7.83321 0 -398.335c0,-20.8347 10.5029,-29.998 31.3328,-27.3331l187.503 0c36.4964,-5.33456 58.4997,35.1663 66.3329,120.999l31.3328 -7.83321zm-296.835 129.003c85.8328,36.3301 171.837,74.1661 257.669,113.166l15.6664 -27.3331c-85.8328,-38.9998 -170.502,-77.9996 -253.836,-117.17l-19.4999 31.3376zm-535.166 -300.835c54.6662,91.1673 100.169,195.331 136.665,312.502l31.1666 -7.83796c-38.9998,-124.999 -85.8328,-231.666 -140.499,-320.33l-27.3331 15.6664z"
     id="path360" /></glyph>
   <glyph
   unicode="R"
   horiz-adv-x="503"
   id="glyph362"><path
     d="M82.001 0l0 718.835 171.834 0c122.5,-5.33657 186.33,-70.3352 191.497,-195.336 0,-46.998 -11.6659,-88.6649 -35.1676,-125.001 -23.4962,-36.5004 -58.6638,-62.4976 -105.497,-78.1672l195.336 -320.331 -58.6693 0 -179.666 312.499 -132.833 0 0 -312.499 -46.8334 0zm46.8334 679.669l0 -328.169 117.333 0c96.3324,7.83208 145.831,66.5014 148.332,175.832 -2.501,98.998 -49.499,149.835 -140.665,152.336l-125.001 0z"
     id="path364" /></glyph>
   <glyph
   unicode="A"
   horiz-adv-x="503"
   id="glyph366"><path
     d="M261.665 750.002l242.172 -750.002 -54.674 0 -62.4994 218.838 -245.995 0 -66.502 -218.838 -50.6619 0 238.16 750.002zm0 -128.831l-113.161 -363.339 226.493 0 -113.332 363.339z"
     id="path368" /></glyph>
   <glyph
   unicode="苏"
   horiz-adv-x="1000"
   id="glyph370"><path
     d="M445.333 371.167l-288.998 0 0 35.1661 292.833 0c5.33066,57.1687 7.83281,108 7.83281,152.332l31.3313 -11.8308c0,-49.499 -1.33267,-96.3327 -3.998,-140.501l242.164 0c23.4984,0 35.1661,-11.8308 35.1661,-35.1661 -5.16748,-127.664 -13.0003,-226.667 -23.3298,-297 -7.83281,-109.333 -65.1701,-164 -172.001,-164l-7.66963 35.1661c88.4999,-7.83281 136.666,36.4987 144.505,132.831 13.0003,106.668 20.8331,201.836 23.3298,285.169 0,5.16748 -3.83481,7.83281 -11.6676,7.83281l-238.33 0c-13.0003,-226.667 -132.668,-378.999 -359.336,-457.164l-15.6656 31.3313c208.331,62.4993 323,204.333 343.833,425.833zm-124.999 269.498l-254.001 0 0 35.1715 254.001 0 0 113.162 35.1661 -7.66419 0 -105.498 320.335 0 0 105.498 35.1661 -7.83281 0 -97.6654 242.164 0 0 -35.1715 -242.164 0 0 -85.9978 -35.1661 0 0 85.9978 -320.335 0 0 -93.8306 -35.1661 0 0 93.8306zm-109.333 -351.666l31.1626 -19.5004c-25.9951,-44.1629 -75.4996,-101.5 -148.328,-171.832l-23.5039 27.3333c54.6665,49.499 101.5,104.166 140.67,164zm574.167 -42.8303l23.4984 27.3333c46.8337,-47.0023 91.0021,-96.3327 132.668,-148.503l-27.3333 -23.4984c-28.5027,39.1641 -71.5016,87.3304 -128.833,144.668z"
     id="path372" /></glyph>
   <glyph
   unicode="t"
   horiz-adv-x="460"
   id="glyph374"><path
     d="M390.671 527.335l0 -39.0058 -191.51 0 0 -359.492c2.66717,-67.6684 30.0025,-101.503 82.1688,-101.503 52.0035,0 93.6639,31.3298 125.006,93.8267l42.8249 -7.8262c-36.3261,-75.5071 -92.3241,-114.663 -167.831,-117.168 -49.4991,-2.66717 -83.3333,11.6704 -101.665,42.8375 -18.1693,23.4911 -27.3353,62.4969 -27.3353,117.33l0 331.993 -120.999 0 0 39.0058 120.999 0 0 171.826 46.832 0 0 -171.826 191.51 0z"
     id="path376" /></glyph>
   <glyph
   unicode="凯"
   horiz-adv-x="1000"
   id="glyph378"><path
     d="M586.003 320.33l0 402.335 257.83 0 0 -714.83c2.50227,-20.8362 11.6692,-30.0031 27.3324,-27.3324l35.1681 0c28.5034,-5.17295 46.8293,19.4968 54.6649,74.1617l31.166 -7.8276c-15.6632,-70.3361 -42.9957,-102.833 -81.9973,-97.6686l-39.0017 0c-41.6643,0 -62.5005,19.6652 -62.5005,58.6669l0 683.495 -191.496 0 0 -371.001c0,-179.666 -53.3335,-315.165 -160.169,-406.329l-27.3324 23.4988c101.663,78.1637 153.665,205.667 156.335,382.831zm-132.837 -78.1637l0 171.83 -359.332 0 0 31.3345 390.498 0 0 -234.331 -339.835 0 0 -250.002c135.499,41.6643 248.671,83.3367 339.835,125.001l15.6632 -31.3345c-91.1643,-36.4994 -206.998,-78.1637 -347.663,-125.001 -28.6638,-10.3299 -41.6643,-1.33133 -39.0017,27.3324l0 285.17 339.835 0zm-359.332 281.336l0 218.668 34.9996 -7.83562 0 -179.666 148.5 0 0 230.497 31.3345 -7.83562 0 -222.662 156.167 0 0 187.502 31.3345 -7.83562 0 -210.832 -402.335 0z"
     id="path380" /></glyph>
   <glyph
   unicode="湘"
   horiz-adv-x="1000"
   id="glyph382"><path
     d="M449.164 546.831l-171.829 0 0 31.3352 171.829 0 0 210.831 35.1684 -7.6663 0 -203.165 113.335 0 0 -31.3352 -113.335 0 0 -644.499 -35.1684 0 0 644.499zm199.339 -632.828l0 836 281.16 0 0 -836 -281.16 0zm31.1638 566.496l214.836 0 0 238.333 -214.836 0 0 -238.333zm-410.17 -386.665c46.8392,124.998 83.3398,253.829 109.338,386.665l31.3352 -7.82991c-31.3352,-156.333 -66.34,-285.172 -105.505,-386.673l-35.1684 7.8377zm304.673 124.998c-7.8377,46.8314 -22.0017,121.001 -42.8347,222.502 -2.6723,13.1667 -5.3368,23.4975 -7.8377,31.3352l35.1684 7.82991c20.833,-91.1697 36.337,-175.834 46.8314,-254.001l-31.3274 -7.6663zm-394.503 136.669c-39.0015,18.1685 -83.332,35.1684 -132.836,50.836l11.8345 31.1638c41.666,-10.3308 85.8329,-27.3307 132.664,-50.836l-11.6631 -31.1638zm714.836 93.6628l-214.836 0 0 -238.162 214.836 0 0 238.162zm-777.335 -519.501l-27.3385 15.6676c52.1682,106.837 89.8375,218.669 113.335,336l35.1684 -11.8345c-31.3352,-122.334 -71.669,-235.661 -121.165,-339.834zm777.335 250.004l-214.836 0 0 -234.336 214.836 0 0 234.336zm-660.166 449.164c-20.833,10.5022 -56.0014,24.8376 -105.505,42.9983 -10.3308,2.6723 -18.1607,5.3368 -23.3339,7.8377l7.8377 31.3352c59.8345,-18.3321 104.165,-35.1684 132.828,-50.836l-11.8267 -31.3352z"
     id="path384" /></glyph>
   <glyph
   unicode="神"
   horiz-adv-x="1000"
   id="glyph386"><path
     d="M691.33 183.666l-199.162 0 0 457 199.162 0 0 175.667 35.1683 -7.6638 0 -168.003 199.336 0 0 -457 -199.336 0 0 -281.333 -35.1683 0 0 281.333zm-425.66 164l0 -461.003 -35.1683 0 0 461.003c-36.5047,-46.8351 -85.9998,-96.3302 -148.505,-148.498l-23.3271 23.5015c114.499,93.6636 202.997,201.828 265.495,324.165 5.33302,5.33302 6.50164,9.16815 4.003,11.8347 0,2.49864 -4.003,3.82867 -11.8347,3.82867l-242.168 0 0 31.3331 277.337 0c20.8285,0 27.3301,-13.1647 19.6663,-39.1648 -39.1713,-70.3365 -84.6698,-139.337 -136.838,-207l31.3396 0zm460.829 -132.835l164.168 0 0 183.666 -164.168 0 0 -183.666zm0 394.502l0 -183.499 164.168 0 0 183.499 -164.168 0zm-35.1683 -394.502l0 183.666 -164 0 0 -183.666 164 0zm0 394.502l-164 0 0 -183.499 164 0 0 183.499zm-378.832 -285.168l19.4985 27.3366c33.8382,-26.0001 70.3365,-61.1684 109.333,-105.337l-27.3301 -23.495c-18.1684,18.162 -40.3334,41.6634 -66.3335,70.3301 -15.6698,13.0033 -27.3301,23.3336 -35.1683,31.1653zm-23.5015 328.168l-31.1653 -15.6698c-18.162,54.6667 -38.9969,101.67 -62.4984,140.667l31.1653 15.6698c7.83167,-12.9968 23.5015,-46.8351 47.0029,-101.67 7.83167,-18.162 12.9968,-31.1653 15.4955,-38.9969z"
     id="path388" /></glyph>
   <glyph
   unicode="O"
   horiz-adv-x="511"
   id="glyph390"><path
     d="M265.665 -7.83872c-67.6684,0 -119.835,24.8435 -156.336,74.1673 -36.3261,57.3378 -54.6582,155.009 -54.6582,293 0,127.673 14.3251,218.833 43.0003,273.504 36.5014,67.6684 92.4994,101.503 167.994,101.503 80.6662,0 136.664,-33.8342 168.007,-101.503 31.167,-57.3378 45.4921,-148.497 42.8249,-273.504 0,-106.662 -10.3306,-186.163 -31.167,-238.167 -28.6627,-88.6677 -88.4924,-131.493 -179.664,-129.001zm-164.162 367.168c0,-114.5 14.3251,-197.834 43.0003,-250 23.4911,-54.6582 63.8242,-81.9935 121.162,-81.9935 67.6684,-2.66717 113.173,35.1615 136.664,113.336 18.1693,49.4991 27.3353,122.327 27.3353,218.658 0,119.835 -15.6649,208.34 -46.832,265.665 -25.9955,46.8445 -65.164,70.3356 -117.168,70.3356 -49.4991,2.66717 -89.8322,-23.4911 -121.162,-78.1618 -28.6752,-52.0035 -43.0003,-138.004 -43.0003,-257.839z"
     id="path392" /></glyph>
   <glyph
   unicode="修"
   horiz-adv-x="1000"
   id="glyph394"><path
     d="M531.333 601.502l27.3366 7.83167c20.8285,-46.8351 51.9938,-89.835 93.6636,-128.832 54.6667,41.6634 104.168,93.6636 148.498,156.162 5.17161,5.33948 6.50164,9.16815 3.83513,11.8347 -2.49864,2.49864 -7.83167,3.83513 -15.6698,3.83513l-222.663 0 0 31.3331 246.165 0c36.5047,-2.66651 45.4986,-18.3363 27.3366,-47.0029 -44.3364,-70.3301 -97.6666,-128.832 -160.171,-175.66 52.1681,-41.6699 126.34,-79.5047 222.67,-113.336l-11.6668 -31.3331c-93.8315,33.9996 -173.168,74.333 -238.333,121.168 -62.4984,-41.6699 -138,-80.6668 -226.499,-117.165l-15.6698 23.495c78.1682,31.1717 151.003,70.1686 218.667,117.172 -41.6634,38.9969 -74.1652,85.832 -97.4988,140.499zm-355.498 -93.6701l35.1683 -7.83167 0 -581.997 -35.1683 0 0 589.829zm171.832 -464.832l-31.3331 0 0 593.664 31.3331 -7.83167 0 -585.832zm558.67 132.835l19.4985 -27.3366c-112,-119.832 -269.498,-192.835 -472.67,-218.835l-7.83167 35.1683c197.832,20.8349 351.502,91.1715 461.003,211.003zm-648.505 605.498l27.3366 -15.6633c-36.5047,-114.673 -101.502,-241.006 -195.333,-379.006l-27.3366 19.6728c85.9998,122.33 151.003,247.333 195.333,374.997zm550.838 -531.333l27.3301 -19.4985c-88.6664,-85.9998 -199.336,-143.333 -332.165,-171.832l-7.67026 35.1618c119.67,20.8349 223.832,72.8352 312.505,156.168zm-379.006 304.667l-23.3271 23.5015c70.1622,64.997 127.495,135.334 171.832,210.829l31.1653 -15.4955c-52.0002,-85.9998 -112,-158.835 -179.67,-218.835zm304.667 -207l19.5049 -27.3301c-72.8352,-57.3397 -158.835,-100.34 -257.67,-129.006l-15.6633 31.3396c106.667,28.6666 191.33,70.3301 253.829,124.997z"
     id="path396" /></glyph>
   <glyph
   unicode="天"
   horiz-adv-x="1000"
   id="glyph398"><path
     d="M484.332 445.331c7.8377,75.5021 13.0031,155.001 15.6676,238.333l-296.835 0 0 31.1716 617.168 0 0 -31.1716 -285.164 0c-7.8377,-78.1666 -13.0031,-157.666 -15.6676,-238.333l402.333 0 0 -31.3274 -406.166 0c-25.9984,-236.837 -162.831,-395.835 -410.17,-476.502l-7.82991 31.1638c229.163,70.3367 358.002,218.832 386.665,445.339l-382.832 0 0 31.3274 382.832 0zm425.838 -507.83c-200.5,62.499 -332.004,186.165 -394.503,371.169l35.1684 7.6663c62.499,-182.168 184.833,-296.835 367.164,-343.667l-7.82991 -35.1684z"
     id="path400" /></glyph>
   <glyph
   unicode="豪"
   horiz-adv-x="1000"
   id="glyph402"><path
     d="M246.163 515.668l0 128.831 507.674 0 0 -128.831 -507.674 0zm-148.496 -89.8375l0 -148.496 -31.3352 0 0 175.834 867.336 0 0 -156.333 -31.3352 0 0 128.995 -804.665 0zm624.998 191.338l-445.331 0 0 -70.3367 445.331 0 0 70.3367zm-214.836 124.998l-15.6598 -7.82991 425.83 0 0 -31.1716 -851.668 0 0 31.1716 410.17 0c-10.3386,18.3321 -23.3339,36.5006 -39.0015,54.6613l23.4975 15.6676c2.5009,-2.5009 6.49765,-7.82991 11.6708,-15.6676 12.9953,-12.9953 24.6662,-28.4993 35.1606,-46.8314zm-74.1621 -445.331l27.3307 23.4975c88.5052,-67.6644 131.503,-149.836 128.831,-246.163 5.17319,-114.504 -44.3305,-173.17 -148.496,-175.67l-7.6663 35.1684c83.332,-7.8377 124.998,39.0015 124.998,140.502 -2.66451,88.661 -44.3305,162.831 -124.998,222.665zm132.664 3.99676l31.3352 11.6708c59.8345,-192.67 166.664,-306.005 320.333,-339.834l-15.6676 -31.3352c-164,41.666 -276.002,161.499 -336,359.498zm-370.997 54.6691l589.83 0 0 -27.3307 -589.83 0 0 27.3307zm328.163 -226.67l23.3339 -23.3339c-122.334,-91.1619 -261.667,-150.996 -418,-179.667l-7.6663 31.1716c153.505,28.6629 287.665,85.9965 402.333,171.829zm-54.6613 82.1712l19.5008 -23.5053c-93.8342,-70.3289 -207.006,-119.833 -339.834,-148.496l-7.8377 35.1684c117.168,23.4975 226.499,68.9967 328.171,136.833zm-74.3335 89.8297l19.5008 -27.3307c-78.003,-52.1682 -162.667,-92.502 -253.837,-121.165l-11.6631 31.3274c93.6628,28.4993 175.663,67.6722 245.999,117.168zm308.662 -167.996l-23.4975 23.4975c28.6629,20.833 70.3367,58.5023 124.998,113.164l23.5053 -23.3339c-52.1682,-49.4959 -93.8342,-87.3288 -125.006,-113.327z"
     id="path404" /></glyph>
   <glyph
   unicode="鼓"
   horiz-adv-x="1000"
   id="glyph406"><path
     d="M722.665 410.17l0 183.664 -164 0 0 31.1638 164 0 0 175.834 35.1684 -11.8345 0 -164 175.834 0 0 -31.1638 -175.834 0 0 -183.664 164 0c-39.0015,-143.167 -87.1652,-259.174 -144.499,-347.671 44.3305,-41.666 108.162,-81.9998 191.502,-121.165l-15.6676 -27.3307c-75.5021,39.1651 -142.006,79.4989 -199.332,121.165 -70.1731,-59.8345 -147.007,-105.505 -230.34,-136.669l-7.82991 31.1638c101.501,41.6738 173.17,86.0043 214.836,132.836 -44.3383,59.8345 -86.0043,139.333 -125.006,238.333l31.1716 11.6708c44.3305,-104.173 83.332,-178.335 117.168,-222.673 49.4959,78.1666 91.1619,174.502 124.998,289.005l-339.834 0 0 31.3352 183.664 0zm-453.169 136.661l0 97.6674 -203.165 0 0 31.3352 203.165 0 0 97.6674 35.1684 -7.8377 0 -89.8297 203.165 0 0 -31.3352 -203.165 0 0 -97.6674 129.003 0 0 -35.1684 -320.333 0 0 35.1684 156.162 0zm168.004 -136.661l0 -168.004 -316.336 0 0 168.004 316.336 0zm-35.1684 -31.3352l-245.999 0 0 -105.334 245.999 0 0 105.334zm-50.836 -343.667l-31.1638 7.82991c7.8377,18.1685 18.1685,44.1669 31.1638,78.1666 13.1667,36.337 22.1731,62.499 27.3385,78.003l31.3352 -7.8377c-10.5022,-33.8283 -28.6707,-81.9998 -54.6691,-144.499 -2.66451,-5.1654 -4.00455,-8.99855 -4.00455,-11.6631zm-117.16 15.6676l-31.1716 -15.6676c-10.4944,33.8283 -28.6629,78.1666 -54.6613,132.828l31.1638 15.6676c20.833,-44.3305 39.1651,-88.661 54.6691,-132.828zm-128.839 -136.833l-3.99676 31.3274c135.5,28.6707 256.502,50.836 363.331,66.3322l4.00455 -27.3307c-119.833,-23.3339 -241.005,-46.8314 -363.339,-70.3289z"
     id="path408" /></glyph>
   <glyph
   unicode="集"
   horiz-adv-x="1000"
   id="glyph410"><path
     d="M332.004 800.832l23.4975 -27.3307c-23.4975,-36.5006 -53.3369,-75.5021 -89.8375,-117.168l609.338 0 0 -31.3352 -320.333 0 0 -93.6628 254.001 0 0 -31.3352 -254.001 0 0 -97.6674 254.001 0 0 -31.1638 -254.001 0 0 -97.6674 351.668 0 0 -31.3352 -648.503 0 0 -31.1638 -35.1684 0 0 402.333c-33.8283,-39.1651 -74.1621,-75.5021 -121.165,-109.502l-23.3339 23.4975c112.003,88.5052 196.503,179.667 253.837,273.501zm-261.667 -691.502l0 31.3352 418 0 0 50.6646 35.1606 -7.6663 0 -42.9983 410.17 0 0 -31.3352 -410.17 0 0 -195.327 -35.1606 0 0 195.327 -418 0zm187.497 164.171l261.667 0 0 97.6674 -261.667 0 0 -97.6674zm261.667 226.499l-261.667 0 0 -97.6674 261.667 0 0 97.6674zm0 124.998l-261.667 0 0 -93.6628 261.667 0 0 93.6628zm50.836 -574.162l11.6631 31.1638c104.165,-59.8345 216.168,-106.666 336,-140.666l-11.6631 -31.1638c-117.34,33.8283 -229.171,80.6597 -336,140.666zm-453.169 -136.833l-7.8377 31.3274c125.006,26.0062 229.171,75.5021 312.503,148.503l23.4975 -23.4975c-91.1619,-78.1666 -200.5,-130.171 -328.163,-156.333zm460.998 761.831l-31.3352 -15.6676c-2.5009,5.1654 -5.1654,11.6631 -7.82991,19.5008 -15.504,39.1651 -29.8316,68.9967 -42.8347,89.8297l31.1638 15.6676c13.0031,-23.4975 30.003,-59.8345 50.836,-109.33z"
     id="path412" /></glyph>
   <glyph
   unicode="n"
   horiz-adv-x="511"
   id="glyph414"><path
     d="M144.503 218.833l0 -218.833 -46.8364 0 0 265.669c2.66555,117.163 -3.83324,206.995 -19.4964,269.494l42.9951 0 19.5044 -152.331 3.83324 0c33.8307,96.3302 96.3302,148.498 187.498,156.164 78.1626,-2.49644 118.5,-56.0007 121.166,-160.167l0 -378.83 -46.8364 0 0 355.501c5.17004,98.9958 -22.1619,147.169 -82.165,144.503 -59.8339,-2.6736 -106.67,-36.5043 -140.501,-101.5 -23.4987,-41.6744 -36.4963,-101.669 -39.1618,-179.671z"
     id="path416" /></glyph>
   <glyph
   unicode="华"
   horiz-adv-x="1000"
   id="glyph418"><path
     d="M828.168 308.67l-234.337 0c-52.1616,0 -78.1617,23.3271 -78.1617,70.1622l0 140.667c-10.5046,-2.49864 -26.0001,-7.83167 -46.8351,-15.6633 -18.3363,-5.17161 -45.6664,-13.0033 -82.1712,-23.3336l-11.6603 31.1653c36.4983,7.83167 83.3333,22.165 140.667,42.9999l0 226.666 35.1618 -7.83167 0 -207.168c143.165,52.1681 252.499,101.67 328,148.498l15.6698 -27.3301c-88.4985,-52.0002 -203.171,-104.168 -343.67,-156.168l0 -152.501c0,-26.0001 14.3333,-38.9969 42.9999,-38.9969l234.337 0c36.4983,-5.16516 61.1684,31.3331 74.1652,109.333l35.1683 -11.6668c-18.1684,-93.6701 -54.6667,-136.67 -109.333,-128.832zm-757.832 -179.838l0 27.5045 406.162 0 0 152.333 35.1683 -7.83812 0 -144.495 422 0 0 -27.5045 -422 0 0 -222.663 -35.1683 0 0 222.663 -406.162 0zm359.327 644.67l23.5015 -23.5015c-57.3332,-49.5016 -105.498,-84.6698 -144.495,-105.498l0 -355.505 -35.1683 0 0 336.006c-47.0029,-26.0001 -100.333,-53.3367 -160.165,-82.0033l-19.5049 27.3366c117.172,44.33 229.172,112 335.832,203.165z"
     id="path420" /></glyph>
   <glyph
   unicode="份"
   horiz-adv-x="1000"
   id="glyph422"><path
     d="M550.833 351.502l-132.832 0 0 31.3326 421.83 0c0,-161.502 -3.83429,-270.837 -11.6646,-328.167 -5.16821,-88.5006 -54.6676,-130.17 -148.498,-125.001l-7.83605 31.3326c75.5021,-7.83027 117.165,23.3349 125.001,93.6688 7.83027,65.1657 10.4981,164.164 7.83027,296.834l-218.664 0c2.50038,-205.666 -82.1659,-351.502 -253.999,-437.502l-19.5006 27.3309c163.997,83.3381 243.501,220.172 238.333,410.171zm-265.669 449.334l31.171 -15.6721c-33.833,-88.4948 -76.6686,-174.495 -128.836,-257.833l27.3367 -7.83027 0 -617.165 -35.1669 0 0 617.165c-10.3364,-12.9985 -27.3367,-36.5009 -50.8333,-70.3339 -26.0027,-31.1652 -44.1694,-54.6676 -54.6676,-70.3339l-27.3367 23.5024c104.167,122.334 183.671,255.165 238.333,398.501zm410.171 -27.3367l27.3309 11.6646c41.6691,-145.83 125.001,-269.498 250.003,-371.164l-27.3367 -23.3349c-122.334,109.335 -205.666,237.004 -249.997,382.835zm-211.002 -113.331l27.3309 -15.6663c-51.9997,-109.335 -115.831,-204.338 -191.334,-285.17l-27.3309 23.5024c80.6645,78.1642 144.502,170.499 191.334,277.334z"
     id="path424" /></glyph>
   <glyph
   unicode="L"
   horiz-adv-x="480"
   id="glyph426"><path
     d="M136.664 718.833l0 -679.827 316.504 0 0 -39.0058 -363.336 0 0 718.833 46.832 0z"
     id="path428" /></glyph>
   <glyph
   unicode="机"
   horiz-adv-x="999"
   id="glyph430"><path
     d="M281.334 527.333l0 -617.166 -31.3331 0 0 617.166 -164.001 0 0 31.3347 164.001 0 0 214.833 31.3331 -7.83329 0 -207 148.333 0 0 -31.3347 -148.333 0zm85.8324 -578.167c86.0001,62.5002 136.666,157.667 152.333,285.167 13.0012,65.1672 18.3336,217.5 15.6666,457.001l238.335 0 0 -695.166c-2.66699,-26.1668 8.9991,-37.8345 35.1659,-35.1675l54.6669 0c31.1671,-5.33238 51.9999,31.1671 62.5002,109.334l27.3327 -11.6661c-12.9996,-93.8333 -42.9992,-136.834 -89.8329,-129.001l-66.5007 0c-36.3334,0 -54.6669,19.4994 -54.6669,58.6674l0 671.832 -171.832 0c0,-205.666 -5.1663,-347.667 -15.6666,-425.834 -15.6666,-130.167 -70.3335,-232.999 -164.001,-308.499l-23.4999 23.3322zm-312.499 156.334c41.6657,109.334 75.4998,225.167 101.667,347.667l31.1671 -7.83329c-26.0008,-125 -61.1667,-242.166 -105.501,-351.5l-27.3327 11.6661zm328.166 140.667c-12.9996,72.8344 -28.6662,139.333 -46.8336,199.167l27.3343 7.83329c23.3338,-65.1656 40.3338,-130.167 50.6664,-195.332l-31.1671 -11.6677z"
     id="path432" /></glyph>
   <glyph
   unicode="石"
   horiz-adv-x="1000"
   id="glyph434"><path
     d="M74.1653 691.336l0 31.3313 851.669 0 0 -31.3313 -851.669 0zm-15.4943 -546.84c197.833,119.833 317.666,294.337 359.333,523.501l31.1646 -7.83515c-46.8349,-239.667 -170.502,-420.495 -371.003,-542.996l-19.4953 27.3304zm769.493 -167.993l0 371.16 -441.5 0 0 -371.16 441.5 0zm-476.666 402.334l507.84 0 0 -433.508 -507.84 0 0 433.508z"
     id="path436" /></glyph>
   <glyph
   unicode="五"
   horiz-adv-x="1000"
   id="glyph438"><path
     d="M171.832 398.498l250 0c2.66651,10.3368 7.83167,27.3366 15.6698,50.6702 23.5015,91.165 40.3334,158.829 50.8316,203.165l-339.835 0 0 31.3331 703.004 0 0 -31.3331 -328 0c-2.66651,-12.9968 -7.83167,-32.5017 -15.6698,-58.5018 -23.5015,-93.8315 -38.9969,-158.996 -46.8286,-195.333l285.162 0c-10.4982,-106.828 -24.8315,-227.996 -42.9999,-363.33l250 0 0 -31.3331 -879 0 0 31.3331 242.168 0c18.3363,57.3332 48.3329,156.162 90.0028,296.829 2.49864,13.0033 5.16516,23.5015 7.6638,31.3396l-242.168 0 0 35.1618zm500 -363.33c7.83167,75.4952 20.8349,184.829 39.1713,328.168l-261.835 0c-26.0001,-99.0031 -58.5018,-208.337 -97.6666,-328.168l320.33 0z"
     id="path440" /></glyph>
   <glyph
   unicode="武"
   horiz-adv-x="1000"
   id="glyph442"><path
     d="M58.6693 527.331l535.161 0c-2.66206,36.5009 -3.99598,73.0017 -3.99598,109.335 0,28.6648 0,83.3324 0,164.17l31.3326 -11.8378c0,-114.498 2.50038,-201.832 7.66859,-261.667l304.832 0 0 -31.1652 -300.836 0c18.1667,-252.665 86.0002,-429.834 203.166,-531.333 13.0043,-15.6663 23.3349,-23.5024 31.171,-23.5024 5.16244,0 14.3324,9.16997 27.3309,27.3367 15.6663,21.002 26.0027,45.6651 31.3326,74.3299l35.1669 -15.6663c-15.6663,-38.9955 -31.3326,-67.666 -46.999,-86.0002 -28.4973,-41.6633 -62.4978,-42.8298 -101.499,-3.82852 -119.833,109.329 -191.334,295.5 -214.836,558.664l-538.995 0 0 31.1652zm695.162 254.005c44.3369,-20.8345 83.3324,-45.6708 117.333,-74.3356l-15.6663 -27.3309c-39.1629,25.997 -79.4981,50.8333 -121.167,74.1624l19.5006 27.5041zm-284.997 -66.4996l0 -31.171 -304.832 0 0 31.171 304.832 0zm-66.4996 -660.168l-35.1669 0 0 374.999 35.1669 -7.83027 0 -148.336 156.334 0 0 -31.3326 -156.334 0 0 -187.499zm-187.499 -43.003l-35.1669 0 0 328.167 35.1669 -7.83027 0 -320.337zm-156.167 -31.1652c130.164,18.1667 311.167,50.8333 542.83,97.6648l4.00176 -31.3326c-60.0032,-12.9985 -158.834,-31.1652 -296.834,-54.6676 -109.503,-20.8288 -190.167,-36.4951 -242.334,-46.8315l-7.66281 35.1669z"
     id="path444" /></glyph>
   <glyph
   unicode="I"
   horiz-adv-x="390"
   id="glyph446"><path
     d="M328.162 718.833l0 -39.1685 -97.6584 0 0 -640.659 97.6584 0 0 -39.0058 -246.156 0 0 39.0058 101.665 0 0 640.659 -101.665 0 0 39.1685 246.156 0z"
     id="path448" /></glyph>
   <glyph
   unicode="F"
   horiz-adv-x="488"
   id="glyph450"><path
     d="M445.338 718.827l0 -39.1566 -320.33 0 0 -285.173 242.163 0 0 -38.989 -242.163 0 0 -355.508 -46.8413 0 0 718.827 367.171 0z"
     id="path452" /></glyph>
   <glyph
   unicode="三"
   horiz-adv-x="1000"
   id="glyph454"><path
     d="M859.335 660.163l0 -31.3329 -738.171 0 0 31.3329 738.171 0zm-687.498 -335.993l0 31.3329 656.328 0 0 -31.3329 -656.328 0zm-124.999 -304.668l0 35.1684 886.832 0 0 -35.1684 -886.832 0z"
     id="path456" /></glyph>
   <glyph
   unicode="y"
   horiz-adv-x="511"
   id="glyph458"><path
     d="M453.168 527.336l54.6639 0 -195.334 -500.004c-2.66555,-5.16199 -5.16199,-11.6688 -7.82754,-19.4964 -20.8332,-46.8364 -39.0008,-80.6671 -54.672,-101.669 -31.1652,-44.1628 -66.3327,-66.3327 -105.495,-66.3327 -57.3375,2.66555 -97.667,36.4963 -121.005,101.5l39.0008 19.6655c20.8332,-54.6639 48.1651,-82.165 82.0039,-82.165 36.4963,0 67.6615,32.6631 93.8338,97.667l42.9951 85.9982 -171.996 464.836 50.8307 0 144.503 -406.17 148.498 406.17z"
     id="path460" /></glyph>
   <glyph
   unicode="航"
   horiz-adv-x="1000"
   id="glyph462"><path
     d="M46.8314 375.002l74.3335 0 0 324.166 281.168 0 0 -710.831c5.1654,-52.1682 -28.6629,-74.3335 -101.501,-66.5036l-7.82991 31.3352c54.6613,-5.1654 79.3275,6.49765 74.1621,35.1684l0 355.493 -210.831 0c5.1654,-195.327 -18.3321,-333.328 -70.3367,-414.167l-31.3274 15.6676c49.4959,75.5021 71.6612,208.338 66.4958,398.499l-74.3335 0 0 31.1716zm109.502 0l210.831 0 0 292.994 -210.831 0 0 -292.994zm402.333 105.497l261.667 0 0 -441.498c2.66451,-31.1716 19.5008,-46.8314 50.836,-46.8314l23.3339 0c28.6629,-2.5009 48.1637,28.6629 58.6659,93.8264l31.1638 -7.82991c-7.82991,-83.332 -37.6693,-122.497 -89.8297,-117.168l-23.3339 0c-54.8327,2.5009 -83.332,28.6707 -86.0043,78.003l0 406.329 -195.335 0c5.17319,-169.329 0,-282.5 -15.6598,-339.834 -13.0031,-59.9981 -46.8392,-110.663 -101.501,-152.329l-23.5053 27.3307c52.1682,36.5006 84.6721,85.8329 97.6674,148.332 13.0031,54.8327 16.9999,172.001 11.8345,351.668zm-89.8297 121.001l0 31.3352 472.498 0 0 -31.3352 -472.498 0zm-265.672 -332.004l27.3385 19.5008c5.1654,-10.3308 14.3276,-27.3307 27.3307,-50.6646 28.6629,-49.4959 48.1637,-85.9965 58.5023,-109.502l-31.1716 -19.5008c-20.833,49.5037 -48.1637,102.833 -81.9998,160.166zm523.334 382.84l-27.3307 -15.6676c-2.5009,5.32901 -6.49765,12.9953 -11.6708,23.4975 -15.6676,39.0015 -32.4961,78.1666 -50.8282,117.168l27.3307 11.6631c23.4975,-44.1669 44.3305,-89.8297 62.499,-136.661zm-511.663 -89.8375l27.3307 19.5008c20.833,-28.6629 44.3305,-67.6644 70.3367,-117.168l-27.3385 -19.5008c-2.66451,2.6723 -5.1654,6.50545 -7.82991,11.6708 -25.9984,52.1682 -46.8314,87.3288 -62.499,105.497zm31.3274 152.337l-27.3307 15.6676c2.5009,5.1654 7.6663,14.3276 15.504,27.3307 18.3321,25.9984 29.9952,44.3305 35.1606,54.6691l31.3352 -15.6676c0,0 -1.33225,-2.5009 -3.99676,-7.8377 -23.3339,-38.9937 -40.3338,-63.6677 -50.6724,-74.1621z"
     id="path464" /></glyph>
   <glyph
   unicode="立"
   horiz-adv-x="999"
   id="glyph466"><path
     d="M54.6674 -39.0022l0 31.1665 890.665 0 0 -31.1665 -890.665 0zm843.834 601.499l-797.002 0 0 31.3367 797.002 0 0 -31.3367zm-179.667 -50.8283l31.1665 -7.83575c-54.6674,-192.666 -104.166,-354.166 -148.501,-484.335l-31.1665 7.83575c52.0009,153.664 101.499,315.163 148.501,484.335zm-460.998 -27.3337l31.1665 11.8324c54.8313,-169.335 97.6663,-315.17 128.997,-437.503l-31.3304 -7.82944c-46.838,171.832 -89.8369,316.33 -128.833,433.5zm187.497 296.996l31.1665 11.6685c0,-2.66655 1.33643,-6.49932 4.00298,-11.6685 25.9973,-65.1634 45.4952,-123.827 58.5002,-175.828l-31.1665 -7.83575c-18.1678,72.8352 -39.0022,134.166 -62.5032,183.664z"
     id="path468" /></glyph>
   <glyph
   unicode="W"
   horiz-adv-x="472"
   id="glyph470"><path
     d="M246.168 476.496l124.994 -398.335 3.83171 0 39.0058 640.671 58.6652 0 -58.6652 -718.833 -62.4969 0 -105.334 355.497 -101.665 -355.497 -66.3411 0 -54.6582 718.833 54.6582 0 43.0003 -640.671 125.006 398.335z"
     id="path472" /></glyph>
   <glyph
   unicode="部"
   horiz-adv-x="999"
   id="glyph474"><path
     d="M519.499 226.499l0 -273.333 -414 0 0 273.333 414 0zm-378.832 -35.1659l0 -202.999 343.666 0 0 202.999 -343.666 0zm535.166 500l0 -769.5 -35.1659 0 0 800.833 273.333 0 27.3327 -39.0003c-12.9996,-23.4999 -34.9999,-58.6658 -66.333,-105.499 -39.0003,-62.5002 -71.667,-116 -97.6661,-160.166 91.1664,-91.1664 139.333,-183.668 144.5,-277.333 -5.1663,-93.8333 -56.0004,-140.667 -152.333,-140.667l-11.6661 23.4999c88.4994,5.1663 131.499,44.1666 128.833,117.167 -2.5009,91.1664 -54.6669,182.333 -156.167,273.333 31.1671,41.6673 80.6661,123.833 148.334,246.166 10.4987,20.8345 15.6666,31.1671 15.6666,31.1671l-218.668 0zm-105.499 -324.167l0 -27.3327 -523.5 0 0 27.3327 523.5 0zm-35.1675 277.333l0 -35.1659 -456.999 0 0 35.1659 456.999 0zm-78.1652 -58.4997l35.1659 -7.83329c-2.49931,-7.83329 -6.49979,-19.4994 -11.6661,-35.1675 -20.8345,-62.4986 -39.168,-108.166 -54.6669,-136.666l-31.3331 7.6672c2.66539,7.83329 7.83329,19.6671 15.6666,35.1659 23.4999,57.3339 38.9987,103 46.8336,136.834zm-218.668 -172l-35.1659 -7.6672c-10.5003,54.6669 -26.0008,106.667 -46.8336,156.167l31.1671 7.83329c15.6666,-36.4994 31.3331,-84.6666 46.832,-144.5 0,2.49931 1.3335,-1.3335 4.00049,-11.8338zm101.501 254l-31.1671 -15.6666c-2.66699,5.1663 -6.49979,12.9996 -11.8338,23.4999 -15.4989,39.0003 -32.499,78.0007 -50.6664,117.167l27.3343 15.6666c28.6662,-54.833 50.6664,-101.667 66.333,-140.667z"
     id="path476" /></glyph>
   <glyph
   unicode="业"
   horiz-adv-x="999"
   id="glyph478"><path
     d="M66.333 -35.1659l0 31.3331 316.5 0 0 781.166 35.1675 -7.83329 0 -773.333 160.166 0 0 781.166 35.1659 -7.83329 0 -773.333 320.334 0 0 -31.3331 -867.334 0zm625 226.499l-31.1671 19.6671c62.5002,98.8336 125,227.833 187.501,386.666l31.1671 -19.4994c-46.8336,-114.666 -109.334,-243.499 -187.501,-386.833zm-562.5 379l27.5003 19.4994c62.5002,-114.5 117.167,-239.499 163.999,-375l-31.3331 -15.6666c-64.9995,172 -118.499,295.667 -160.166,371.167z"
     id="path480" /></glyph>
   <glyph
   unicode="T"
   horiz-adv-x="523"
   id="glyph482"><path
     d="M503.842 718.827l0 -39.1566 -207.006 0 0 -679.67 -46.8413 0 0 679.67 -206.985 0 0 39.1566 460.833 0z"
     id="path484" /></glyph>
   <glyph
   unicode="v"
   horiz-adv-x="418"
   id="glyph486"><path
     d="M363.336 527.336l50.6616 0 -167.833 -527.336 -54.833 0 -167.833 527.336 50.6696 0 144.664 -464.836 144.503 464.836z"
     id="path488" /></glyph>
   <glyph
   unicode="e"
   horiz-adv-x="500"
   id="glyph490"><path
     d="M433.663 82.0039l19.5044 -46.8364c-75.4971,-26.0032 -139.333,-39.0008 -191.501,-39.0008 -132.835,2.49644 -203.001,90.9991 -210.836,265.5 0,80.8362 19.5044,148.498 58.5052,203.17 33.8307,49.4939 85.9982,74.1603 156.333,74.1603 127.495,-7.66648 192.66,-101.5 195.334,-281.163l-363.336 0c5.17004,-153.668 61.1627,-230.502 168.002,-230.502 51.9984,0 107.999,18.1676 167.994,54.672zm-335.996 214.83l316.331 0c-7.66648,124.999 -58.4971,192.83 -152.331,203.17 -101.5,-10.3401 -156.164,-78.1707 -164,-203.17z"
     id="path492" /></glyph>
   <glyph
   unicode="源"
   horiz-adv-x="1000"
   id="glyph494"><path
     d="M269.497 -39.0015c70.3367,127.499 105.505,270.837 105.505,429.671l0 355.493 554.661 0 0 -27.3307 -523.326 0 0 -328.163c-2.6723,-169.336 -37.8407,-317.668 -105.505,-445.339l-31.3352 15.6676zm476.666 714.836c-15.6598,-31.3352 -33.9997,-61.1668 -54.8327,-89.8375l-31.1638 15.504c13.0031,15.6676 27.3307,39.1651 42.9983,70.3289 5.1654,7.8377 8.99855,14.3354 11.6708,19.5008l31.3274 -15.4962zm136.669 -113.335l0 -312.495 -386.665 0 0 312.495 386.665 0zm-355.501 -27.3307l0 -117.168 320.333 0 0 117.168 -320.333 0zm0 -140.666l0 -121.001 320.333 0 0 121.001 -320.333 0zm89.8375 -472.669l-7.8377 31.3352c57.3336,0 86.0043,15.6676 86.0043,46.8314l0 234.336 31.1638 -7.8377 0 -226.499c0,-51.9968 -36.3292,-78.1666 -109.33,-78.1666zm304.665 46.8314c-18.1685,23.5053 -49.5037,61.3382 -93.6628,113.335 -18.3399,23.4975 -31.3352,40.3338 -39.1729,50.836l27.3385 19.5008c41.666,-49.5037 85.9965,-102.833 132.828,-160.166l-27.3307 -23.5053zm-445.331 -11.6631l-27.3385 23.4975c49.5037,49.5037 91.1697,104.165 125.006,164l27.3307 -19.5008c-39.0015,-62.499 -80.6675,-118.5 -124.998,-167.996zm-214.836 718.832l-23.3339 -27.3307c-54.6691,41.666 -98.9996,72.8298 -132.836,93.6628l19.5008 27.3307c46.8314,-28.6629 92.502,-59.8267 136.669,-93.6628zm-167.833 -718.832c57.1622,78.1666 106.666,183.664 148.332,316.5l35.1684 -15.6676c-46.8314,-132.836 -98.9996,-238.333 -156.17,-316.5l-27.3307 15.6676zm113.164 429.663l-19.5008 -27.3307c-44.3305,33.8361 -89.8297,65.1635 -136.661,93.8342l19.5008 31.1638c31.1638,-18.1685 76.8266,-50.6646 136.661,-97.6674z"
     id="path496" /></glyph>
   <glyph
   unicode="工"
   horiz-adv-x="1000"
   id="glyph498"><path
     d="M156.333 652.337l0 31.3274 738.169 0 0 -31.3274 -359.334 0 0 -609.338 418 0 0 -31.3352 -871.169 0 0 31.3352 418 0 0 609.338 -343.667 0z"
     id="path500" /></glyph>
   <glyph
   unicode="力"
   horiz-adv-x="1000"
   id="glyph502"><path
     d="M488.337 542.998c2.49311,18.1685 5.1654,44.1669 7.82991,78.1666 7.6663,64.9999 13.0031,115.836 15.4962,152.337l35.1684 -4.00455c-2.5009,-46.8314 -10.3308,-122.334 -23.3339,-226.499l363.167 0c-7.82991,-244.831 -31.1638,-419.332 -70.3289,-523.498 -20.833,-46.8314 -58.5023,-69.0045 -113.171,-66.3322 -33.8283,0 -68.9967,2.5009 -105.497,7.82991l-7.8377 35.1684c28.6707,-5.3368 66.5036,-7.82991 113.335,-7.82991 39.0015,-2.6723 64.9999,10.3308 78.1666,38.9937 39.0015,104.173 62.499,265.672 70.1653,484.332l-335.829 0c-49.5037,-268.165 -170.669,-456.994 -363.331,-566.332l-23.5053 23.3339c182.332,96.4987 300.832,277.498 355.501,542.998l-363.167 0 0 31.3352 367.172 0z"
     id="path504" /></glyph>
   <glyph
   unicode="C"
   horiz-adv-x="500"
   id="glyph506"><path
     d="M449.161 586.001l-46.832 0c-10.3306,67.6684 -50.8264,104.17 -120.999,109.329 -119.835,0 -179.827,-113.323 -179.827,-339.832 -2.50438,-218.833 55.998,-328.162 175.833,-328.162 83.3333,7.8262 127.661,50.8264 132.832,129.001l50.8264 0c-15.6649,-106.837 -78.1618,-161.508 -187.491,-164.175 -80.8415,0 -139.331,35.1741 -175.833,105.51 -28.6752,59.8297 -43.0003,144.49 -43.0003,253.832 0,132.832 19.4966,230.503 58.6652,293 41.6604,59.9925 97.6584,89.8322 167.994,89.8322 96.3311,-5.17155 152.342,-54.6707 167.831,-148.335z"
     id="path508" /></glyph>
   <glyph
   unicode="国"
   horiz-adv-x="1000"
   id="glyph510"><path
     d="M898.499 765.664l0 -820.333 -796.999 0 0 820.333 796.999 0zm-761.831 -789.161l726.662 0 0 757.834 -726.662 0 0 -757.834zm144.662 437.501l191.338 0 0 164.163 -226.506 0 0 31.1638 484.34 0 0 -31.1638 -226.67 0 0 -164.163 199.332 0 0 -31.1716 -199.332 0 0 -222.665 261.831 0 0 -31.3352 -554.661 0 0 31.3352 261.667 0 0 222.665 -191.338 0 0 31.1716zm320.169 -85.8329l31.3352 11.6631c28.6629,-65.1635 49.4959,-115.836 62.499,-152.337l-31.3352 -7.82991c-20.833,54.6691 -41.666,104.165 -62.499,148.503z"
     id="path512" /></glyph>
   <glyph
   unicode="s"
   horiz-adv-x="410"
   id="glyph514"><path
     d="M374.997 484.333l-19.4964 -39.0008c-49.5019,36.5043 -97.667,54.672 -144.503,54.672 -65.165,-7.83559 -100.333,-40.3376 -105.495,-97.667 0,-44.3399 39.0008,-79.3384 117.163,-105.503 114.498,-36.3352 170.499,-92.3359 168.002,-168.002 0,-46.8283 -19.5044,-83.3327 -58.6663,-109.336 -28.6688,-15.6631 -62.4995,-23.3296 -101.5,-23.3296 -70.3351,2.49644 -136.668,28.4996 -199.167,78.0016l27.332 39.1618c59.8339,-54.6639 118.5,-83.3327 175.669,-85.9982 70.3351,5.17004 106.831,37.8331 109.497,97.667 5.17004,54.6639 -36.4963,97.667 -124.999,128.832 -109.497,33.9999 -162.832,84.6695 -160.167,152.5 7.66648,80.6671 59.8339,124.999 156.164,132.665 54.672,0 108.168,-18.1596 160.167,-54.6639z"
     id="path516" /></glyph>
   <glyph
   unicode="泵"
   horiz-adv-x="1000"
   id="glyph518"><path
     d="M85.9993 523.503c106.667,59.8298 192.666,130.166 257.838,210.832l-261.84 0 0 31.3345 843.833 0 0 -31.3345 -543 0c-52.1626,-83.3367 -144.498,-162.671 -277.334,-238.164l-19.4968 27.3324zm710.836 -78.1717l0 148.5 -468.67 0 0 -148.5 468.67 0zm-363.165 -531.33l-15.6712 31.3345c62.5005,2.66267 89.8329,16.8342 81.9973,42.9957l0 402.335 31.3345 -11.8296 0 -394.5c10.3379,-46.8373 -22.1675,-70.3361 -97.6605,-70.3361zm277.326 273.501c44.1666,52.1626 85.8389,109.33 125.001,171.83l23.3384 -19.4968c-39.0017,-65.1712 -79.3347,-122.338 -120.999,-171.838l-27.3405 19.5048zm199.171 -238.333c-158.838,65.1632 -268.167,173.162 -328.166,324.332l35.1681 7.83562c46.8293,-132.837 149.831,-234.499 308.661,-304.835l-15.6632 -27.3324zm-800.837 3.994c122.507,75.5011 211,166.673 265.673,273.34 5.16493,13.161 0,20.8282 -15.6712,23.4988l-246 0 0 31.3345 273.332 0c31.3345,-2.67069 37.8387,-22.1675 19.6652,-58.6669 -46.9977,-112 -139.333,-209.669 -277.495,-293.006l-19.5048 23.4988zm187.502 675.668l531.338 0 0 -214.834 -531.338 0 0 214.834z"
     id="path520" /></glyph>
   <glyph
   unicode="比"
   horiz-adv-x="1000"
   id="glyph522"><path
     d="M480.499 46.8373l3.8336 -35.1681c-33.8367,-5.17295 -45.4979,-7.83562 -35.1681,-7.83562 -112,-15.5028 -209.501,-32.4974 -292.829,-50.6709l-4.00202 35.1681c5.16493,0 11.6692,0 19.4968,0 7.83562,2.50227 13.0006,3.8336 15.6712,3.8336l0 765.669 31.3345 -7.83562 0 -336.001 265.497 0 0 -31.166 -265.497 0 0 -382.831c77.9953,5.16493 165.334,20.8362 261.663,46.8373zm85.8309 -31.1741l0 750.006 35.1681 -7.83562 0 -742.17c-2.49425,-39.1621 15.6712,-57.3275 54.8333,-54.6649l160.001 0c36.4994,-13.0006 67.8339,21.9991 93.835,105.336l27.3324 -15.5028c-23.4988,-91.1643 -63.8318,-131.497 -121.167,-121.167l-160.001 0c-62.5005,-2.49425 -92.4956,26.0011 -90.0014,85.9993zm58.6669 382.839l-7.8276 31.166c91.1643,28.6638 178.335,58.6669 261.663,89.8329l7.83562 -31.166c-83.3367,-31.3345 -170.499,-61.1692 -261.671,-89.8329z"
     id="path524" /></glyph>
   <glyph
   unicode="辰"
   horiz-adv-x="1000"
   id="glyph526"><path
     d="M128.831 464.832l0 285.172 765.672 0 0 -31.1716 -730.503 0 0 -254.001c-2.5009,-164 -32.4961,-324.166 -89.8297,-480.499l-35.1684 11.8345c59.9981,143.167 89.8297,299.336 89.8297,468.665zm437.501 -410.163l7.8377 -35.1684c-49.5037,-10.3308 -115.836,-23.3339 -199.168,-39.0015 -31.1716,-7.82991 -56.0014,-13.0031 -74.1699,-15.6676l-7.82991 31.3352c2.5009,0 6.49765,1.16864 11.6631,3.83315 5.1654,0 9.16995,0 11.6708,0l0 363.331 -93.6706 0 0 35.1684 711.002 0 0 -35.1684 -582.171 0 0 -359.498c15.6676,2.66451 36.5006,7.82991 62.5068,15.6676 57.3336,10.5022 108.162,22.1653 152.329,35.1684zm-27.3307 285.164l35.1684 0c36.5006,-205.666 153.661,-332.004 351.66,-378.835l-7.82991 -31.3352c-211.002,49.5037 -337.333,186.173 -378.999,410.17zm312.495 254.001l0 -31.3352 -546.831 0 0 31.3352 546.831 0zm27.3385 -312.503l19.6644 -23.4975c-52.1682,-46.8314 -108.17,-91.1697 -167.996,-132.836l-27.3385 23.5053c46.8392,31.1638 105.505,75.4943 175.67,132.828z"
     id="path528" /></glyph>
   <glyph
   unicode="事"
   horiz-adv-x="999"
   id="glyph530"><path
     d="M81.9996 699.167l386.833 0 0 101.667 31.1671 -11.8338 0 -89.8329 402.334 0 0 -23.3338 -402.334 0 0 -89.8329 285.167 0 0 -156.334 -285.167 0 0 -81.9996 304.666 0 0 -121.168 121.168 0 0 -27.3327 -121.168 0 0 -121 -304.666 0 0 -66.5007c5.1663,-64.9995 -46.8336,-92.3322 -156.166,-81.9996l-7.83488 31.3331c101.501,-5.33238 145.835,11.6677 132.834,50.6664l0 66.5007 -347.667 0 0 23.3338 347.667 0 0 97.6661 -410.166 0 0 27.3327 410.166 0 0 97.6677 -320.333 0 0 23.4999 320.333 0 0 81.9996 -281.332 0 0 156.334 281.332 0 0 89.8329 -386.833 0 0 23.3338zm386.833 -246l0 109.334 -246.166 0 0 -109.334 246.166 0zm285.001 0l0 109.334 -253.834 0 0 -109.334 253.834 0zm-253.834 -128.999l0 -97.6677 269.5 0 0 97.6677 -269.5 0zm0 -125l0 -97.6661 269.5 0 0 97.6661 -269.5 0z"
     id="path532" /></glyph>
   <glyph
   unicode="宝"
   horiz-adv-x="1000"
   id="glyph534"><path
     d="M238.335 238.335l0 31.1645 245.999 0 0 187.502 -289 0 0 31.3325 605.501 0 0 -31.3325 -285.168 0 0 -187.502 249.999 0 0 -31.1645 -249.999 0 0 -254.004 386.667 0 0 -31.1645 -812.498 0 0 31.1645 394.499 0 0 254.004 -245.999 0zm-124.999 402.331l781.166 0 0 -148.5 -35.1697 0 0 117.168 -714.832 0 0 -117.168 -31.1645 0 0 148.5zm296.832 140.668l31.1645 23.3327c33.9991,-46.8334 61.337,-91.1682 82.1658,-132.831l-35.1644 -19.5008c-20.8341,38.9964 -47.0014,81.9978 -78.1659,128.999zm218.666 -621.165l31.3325 19.4956c5.16522,-7.83182 14.3356,-22.1621 27.3326,-42.9962 25.9993,-39.0016 43.0015,-67.6675 50.8333,-85.835l-31.3325 -19.5008c-25.9993,51.9986 -51.9986,95.0001 -78.1659,128.837z"
     id="path536" /></glyph>
   <glyph
   unicode="欧"
   horiz-adv-x="1000"
   id="glyph538"><path
     d="M101.498 691.331l0 -656.169 359.502 0 0 -31.325 -390.667 0 0 718.827 390.667 0 0 -31.3335 -359.502 0zm589.833 -202.996l31.3335 -7.83548c-7.82703,-65.1689 -15.6625,-123.669 -23.498,-175.829 54.6709,-143.169 130.329,-263 226.663,-359.342l-23.498 -23.498c-96.3333,101.667 -167.994,213.671 -214.829,336.004 -23.498,-156.338 -105.504,-273.498 -246.171,-351.667l-11.6645 27.496c156.329,70.1728 243.5,255.164 261.664,554.671zm-546.827 -339.833l-27.3354 23.3289c52.1605,47.0044 106.831,112.004 164.165,195.338 -33.996,52.1605 -75.6669,115.833 -125.004,191.5l27.3354 15.5019c18.1645,-28.6709 58.4998,-87.1708 121.006,-175.669 44.325,72.8353 75.4979,133.998 93.8314,183.496l35.1625 -15.6625c-31.3335,-70.1728 -67.8314,-136.669 -109.494,-199.167 70.3334,-99.0043 111.996,-162.669 124.996,-191.34l-31.1644 -19.4999c-33.8354,57.1728 -71.6689,118.335 -113.331,183.504 -52.0083,-72.8353 -105.504,-136.669 -160.167,-191.331zm722.665 292.829l-31.1729 11.8335c23.3374,38.9999 46.8354,76.8334 70.3334,113.171 2.50194,5.33354 2.50194,9.16252 0,11.8335 0,0 -2.66254,0 -7.82703,0l-293.006 0 0 31.1644 324.171 0c13,0 20.8354,-2.50194 23.498,-7.83548 2.50194,-5.16449 1.3355,-13 -3.99804,-23.3289 -7.83548,-15.671 -20.8354,-37.8335 -38.9999,-66.5044 -18.1645,-31.1644 -32.4999,-54.6624 -42.9979,-70.3334zm-253.837 347.669l31.1729 -7.66643c-31.1729,-135.502 -89.8333,-257.835 -175.669,-367.329l-27.5045 23.498c83.3333,106.831 140.667,224 172,351.498z"
     id="path540" /></glyph>
   <glyph
   unicode="津"
   horiz-adv-x="1000"
   id="glyph542"><path
     d="M605.502 531.328l0 121.009 -218.834 0 0 31.3336 218.834 0 0 132.664 35.1692 -7.67121 0 -124.993 238.16 0 0 -152.343 82.1639 0 0 -31.3222 -82.1639 0 0 -152.343 -238.16 0 0 -121.157 253.833 0 0 -35.1692 -253.833 0 0 -128.84 285.166 0 0 -35.1578 -285.166 0 0 -125.004 -35.1692 0 0 125.004 -292.997 0 0 35.1578 292.997 0 0 128.84 -226.665 0 0 35.1692 226.665 0 0 121.157 -238.331 0 0 31.1742 238.331 0 0 121.169 -300.839 0 0 31.3222 300.839 0zm-359.34 152.343l-23.4917 -27.3386c-36.5008,36.3301 -74.174,70.1677 -113.338,101.501l19.4967 23.503c31.3336,-20.8397 70.3384,-53.505 117.333,-97.6656zm394.51 -31.3336l0 -121.009 203.162 0 0 121.009 -203.162 0zm203.162 -273.5l0 121.169 -203.162 0 0 -121.169 203.162 0zm-761.828 -417.842c65.1597,96.334 114.658,200.51 148.496,312.505l31.1629 -11.8369c-41.6681,-124.993 -91.1667,-229.169 -148.325,-312.494l-31.3336 11.8255zm113.327 441.333l-23.503 -23.4917c-2.49257,2.6633 -6.4989,5.3266 -11.6662,7.83055 -28.6589,28.6703 -62.4964,58.6608 -101.49,89.8351l19.4967 27.3273c33.8262,-28.4996 72.8309,-62.4964 117.162,-101.501z"
     id="path544" /></glyph>
   <glyph
   unicode="N"
   horiz-adv-x="511"
   id="glyph546"><path
     d="M398.501 0l-261.835 656.334 -3.83229 -4.00261 0 -652.331 -46.8296 0 0 718.833 66.3317 0 246.165 -617.33 3.83229 3.99315 0 613.336 46.8296 0 0 -718.833 -50.6619 0z"
     id="path548" /></glyph>
   <glyph
   unicode="尔"
   horiz-adv-x="1000"
   id="glyph550"><path
     d="M336 656.335l500 0c28.6659,-2.67077 35.1661,-17.0037 19.5004,-43.0043 -7.83281,-10.4981 -16.9983,-26.1638 -27.3333,-46.9969 -31.3367,-52.0012 -55.9992,-91.0021 -74.3356,-117.166l-27.3333 19.6636c5.3361,7.66963 11.8363,18.1678 19.6691,31.1681 26.0006,36.4987 48.1664,72.9975 66.3341,109.333 2.66533,5.3361 3.82938,9.16548 3.82938,11.8363 -2.49671,2.49671 -7.66419,3.82938 -15.497,3.82938l-464.834 0 0 31.3367zm152.332 -152.501l35.1661 -11.6676 0 -480.5c10.335,-59.834 -39.1641,-84.5019 -148.497,-74.1669l-7.83281 35.1661c93.8306,-7.83281 134.164,5.16748 121.164,39.0009l0 492.167zm-128.997 300.834l27.3333 -19.5004c-67.6668,-132.837 -158.837,-244.835 -273.338,-336l-23.4984 23.4984c109.333,83.3324 199.166,193.998 269.503,332.002zm316.5 -480.505l27.3333 19.6691c83.3324,-106.831 154.829,-207.167 214.831,-300.834l-27.3333 -23.4984c-73.0029,114.664 -144.499,216.164 -214.831,304.664zm-394.502 7.83825l31.1681 -15.6711c-46.8337,-119.663 -117.171,-216.001 -211.002,-288.998l-23.3353 27.3333c91.1707,62.4993 158.837,155.003 203.169,277.336z"
     id="path552" /></glyph>
   <glyph
   unicode="达"
   horiz-adv-x="1000"
   id="glyph554"><path
     d="M195.335 101.501l0 281.331 -140.666 0 0 31.1716 171.829 0 0 -312.503c7.8377,-72.8376 82.1712,-114.504 222.665,-124.998 216.168,-13.0031 389.337,-7.6663 519.672,15.6676l7.6663 -31.1716c-104.173,-23.4975 -279.835,-29.9952 -527.338,-19.6644 -93.6628,2.66451 -170.497,30.003 -230.332,82.1634 -59.9981,-39.1651 -108.162,-74.3335 -144.662,-105.497l-19.5008 27.3307c18.3321,15.6676 50.8282,39.0015 97.6674,70.3367 25.9984,18.1685 42.9983,31.1638 50.8282,39.0015 -5.1654,12.9953 -7.82991,28.6629 -7.82991,46.8314zm675.834 398.499l-285.172 0c-31.3274,-158.834 -113.327,-305.997 -246.163,-441.334l-23.4975 19.5008c122.497,127.499 199.332,268.165 230.495,421.833l-206.998 0 0 31.3352 214.836 0c7.82991,54.6613 11.6631,109.33 11.6631,164l0 97.6674 35.1684 -7.8377 0 -89.8297c0,-57.3336 -3.83315,-112.003 -11.6708,-164l281.339 0 0 -31.3352zm27.3307 -398.499l-27.3307 -23.3339c-96.4987,127.499 -190.169,239.502 -281.339,335.837l19.5008 19.6644c78.1666,-73.0012 174.502,-183.664 289.169,-332.167zm-785.164 601.664l23.3339 27.3385c23.4975,-18.3399 59.9981,-50.836 109.494,-97.6674 18.1685,-15.6676 31.1716,-27.3385 39.0015,-35.1684l-23.4975 -27.3307c-62.499,62.499 -112.003,106.83 -148.332,132.828z"
     id="path556" /></glyph>
   <glyph
   unicode="重"
   horiz-adv-x="1000"
   id="glyph558"><path
     d="M824.166 804.665l11.8345 -31.1638c-221.333,-26.1698 -448.003,-44.3383 -679.667,-54.6691l-7.82991 31.1716c252.497,15.6598 477.827,33.8283 675.663,54.6613zm-652.337 -316.328l312.503 0 0 93.6628 -445.331 0 0 27.3307 445.331 0 0 109.502 31.3352 -7.82991 0 -101.672 425.667 0 0 -27.3307 -425.667 0 0 -93.6628 331.996 0 0 -308.67 -331.996 0 0 -89.8375 355.501 0 0 -27.3307 -355.501 0 0 -109.33 425.667 0 0 -27.3385 -882.668 0 0 27.3385 425.667 0 0 109.33 -363.167 0 0 27.3307 363.167 0 0 89.8375 -312.503 0 0 308.67zm312.503 -27.3385l-281.168 0 0 -109.502 281.168 0 0 109.502zm328.171 0l-296.835 0 0 -109.502 296.835 0 0 109.502zm-328.171 -136.833l-281.168 0 0 -117.168 281.168 0 0 117.168zm328.171 0l-296.835 0 0 -117.168 296.835 0 0 117.168z"
     id="path560" /></glyph>
   <glyph
   unicode=","
   horiz-adv-x="234"
   id="glyph562"><path
     d="M35.1615 -101.503l0 39.0058c41.6729,15.6649 67.6684,35.1615 78.1743,58.6652 -5.33434,0 -11.8332,0 -19.4966,0 -39.1685,0 -58.6777,18.1693 -58.6777,54.6707 2.66717,38.9932 24.6682,59.8297 66.3411,62.4969 44.3276,-2.66717 67.8312,-30.0025 70.3356,-82.006 -5.17155,-59.9925 -50.6762,-104.157 -136.677,-132.832z"
     id="path564" /></glyph>
   <glyph
   unicode="顿"
   horiz-adv-x="1000"
   id="glyph566"><path
     d="M50.836 609.33l0 31.3352 191.33 0 0 132.836 35.1684 -7.8377 0 -124.998 191.502 0 0 -31.3352 -191.502 0 0 -355.493 129.003 0 0 273.494 34.997 -7.82991 0 -296.835 -164 0 0 -222.665c20.833,18.1685 62.499,56.0014 124.998,113.335 18.1685,15.4962 31.3352,27.3307 39.0015,35.1684l19.6644 -27.3385c-10.5022,-7.82991 -24.8298,-20.833 -42.9983,-39.1651 -67.6644,-54.6691 -114.667,-96.3351 -140.666,-124.998 -18.1685,-13.0031 -30.003,-7.8377 -35.1684,15.6676l0 249.996 -160.166 0 0 300.832 35.1684 -11.8345 0 -257.826 124.998 0 0 355.493 -191.33 0zm484.332 -523.334l0 496.003 371.169 0 0 -496.003 -35.1684 0 0 468.673 -300.832 0 0 -468.673 -35.1684 0zm164 210.839l0 199.332 31.3352 -7.82991 0 -191.502c0,-164 -93.8342,-296.835 -281.339,-398.336l-15.4962 23.3339c177.003,93.8342 265.5,218.832 265.5,375.002zm-214.836 457.002l457.002 0 0 -27.3385 -457.002 0 0 27.3385zm254.001 -671.837l19.5008 23.4975c80.6675,-57.3336 153.669,-115.828 218.669,-175.834l-23.3339 -23.4975c-59.9981,59.9981 -131.503,118.5 -214.836,175.834zm-62.499 511.834l-27.3307 15.4962c31.1638,36.5006 54.6613,70.3367 70.3289,101.672l27.3307 -23.5053c-10.4944,-20.833 -33.9997,-51.9968 -70.3289,-93.6628z"
     id="path568" /></glyph>
   <glyph
   unicode="门"
   horiz-adv-x="1000"
   id="glyph570"><path
     d="M456.996 675.835l0 31.1617 414.171 0 0 -710.832c10.3355,-57.3303 -50.8309,-80.8278 -183.67,-70.3292l-3.82823 35.1685c114.498,-10.5063 166.664,1.16478 156.166,35.1607l0 679.671 -382.839 0zm-316.33 -89.8354l31.1694 -15.6624 0 -656.336 -31.1694 0 0 671.999zm183.499 93.6636l-23.3344 -23.3266c-31.3325,31.1617 -66.501,61.1663 -105.498,89.8276l23.4974 27.3334c36.3333,-26.1609 71.5018,-57.3303 105.335,-93.8344z"
     id="path572" /></glyph>
   <glyph
   unicode="调"
   horiz-adv-x="1000"
   id="glyph574"><path
     d="M418.003 328.168l0 417.997 511.66 0 0 -734.498c5.17161,-52.0002 -40.327,-79.3303 -136.664,-82.0033l-7.83167 31.3396c78.1682,5.16516 114.499,21.9971 109.333,50.6637l0 703.165 -441.337 0 0 -386.664c0,-140.667 -31.3331,-272.165 -93.8315,-394.502l-31.1653 11.6668c59.8319,106.835 89.835,234.33 89.835,382.835zm370.994 -15.6698l0 -238.333 -250 0 0 238.333 250 0zm-35.1618 -207l0 175.835 -179.67 0 0 -175.835 179.67 0zm-105.337 449.168l-117.165 0 0 31.3331 117.165 0 0 97.6666 35.1683 -7.83167 0 -89.835 113.169 0 0 -31.3331 -113.169 0 0 -121 144.502 0 0 -31.3331 -324.333 0 0 31.3331 144.663 0 0 121zm-570.33 -54.6667l164 0 0 -414c7.83167,7.83167 20.8285,20.8349 39.1648,39.0034 33.8318,36.4983 55.8353,62.4984 66.3335,78.1617l19.4985 -27.3301c-49.5016,-52.1681 -92.5015,-101.67 -128.832,-148.505 -18.3363,-7.83167 -28.6666,-3.82867 -31.3331,11.6668l0 429.838 -128.832 0 0 31.1653zm70.3301 261.667l31.1653 19.6663c41.6699,-47.0029 78.1682,-96.498 109.333,-148.498l-27.3301 -19.4985c-28.6666,49.4951 -66.3335,98.8288 -113.169,148.33z"
     id="path576" /></glyph>
   <glyph
   unicode="水"
   horiz-adv-x="1000"
   id="glyph578"><path
     d="M523.501 3.83513c5.16516,-59.8383 -40.5013,-87.1685 -136.838,-82.0033l-7.83167 31.3331c83.3333,-2.66651 121.168,14.3333 113.336,50.6702l0 777.498 31.3331 -7.83167 0 -769.666zm355.33 605.498c-80.6668,-72.8352 -150.997,-127.502 -210.829,-164l-19.5049 27.3366c72.8352,46.8286 140.499,101.495 203.004,163.994l27.3301 -27.3301zm31.3331 -589.835c-171.832,109.333 -288.997,281.333 -351.495,515.67l31.1653 11.6668c65.1649,-231.67 179.663,-398.337 343.832,-500l-23.5015 -27.3366zm-527.33 453.171c2.66651,15.6633 -2.66651,23.495 -15.6698,23.495l-277.33 0 0 31.1653 293 0c36.4983,2.67297 49.5016,-11.6603 38.9969,-42.9999 -59.8319,-257.832 -170.495,-425.66 -331.997,-503.829l-15.6698 23.3336c145.832,75.6631 248.838,231.832 308.67,468.835z"
     id="path580" /></glyph>
   <glyph
   unicode="日"
   horiz-adv-x="999"
   id="glyph582"><path
     d="M226.499 722.666l562.503 0 0 -777.334 -562.503 0 0 777.334zm35.1694 -31.3304l0 -343.67 492.164 0 0 343.67 -492.164 0zm0 -375l0 -335.834 492.164 0 0 335.834 -492.164 0z"
     id="path584" /></glyph>
   <glyph
   unicode="核"
   horiz-adv-x="1000"
   id="glyph586"><path
     d="M89.8297 554.668l171.834 0 0 218.833 35.1733 -7.83315 0 -211 121.162 0 0 -35.1653 -121.162 0 0 -621.007 -35.1733 0 0 621.007 -171.834 0 0 35.1653zm363.335 -476.505l-11.8336 31.1729c114.671,57.3313 216.166,126.328 304.838,207 -75.6725,-10.3324 -152.335,-19.499 -230.499,-27.3402l-4.00042 31.3406c2.66694,0 5.33389,1.33347 7.83315,3.83273 5.1662,0 7.83315,0 7.83315,0 46.8312,44.3319 109.329,119.829 187.5,226.666l23.4994 -23.4994c-5.33389,-7.83315 -14.3328,-19.499 -27.3322,-35.1733 -54.6723,-67.6637 -100.338,-122.328 -136.837,-163.993 10.5001,2.49926 28.6656,5.1662 54.6644,7.83315 67.8314,7.83315 114.671,12.9994 140.669,15.4986l0 -11.6659c5.1662,5.1662 12.9994,12.9994 23.4994,23.4994 31.1649,33.8319 53.3309,61.164 66.3302,81.9965l27.3322 -19.499c-117.162,-148.502 -261.664,-264.331 -433.498,-347.669zm464.839 210.832l27.3322 -19.499c-59.8385,-78.1638 -118.503,-139.328 -175.835,-183.5 12.9994,-7.83315 31.3326,-19.6667 54.6644,-35.1653 59.9982,-39.1657 101.671,-67.8314 125.003,-85.9969l-23.3318 -23.4994c-47.0069,36.4988 -108.171,76.8303 -183.668,121.162 -57.3393,-41.665 -139.336,-89.8297 -246.006,-144.494l-19.6667 31.1649c187.5,80.8307 334.669,194 441.507,339.828zm46.8312 300.838l0 -31.1649 -500.004 0 0 31.1649 500.004 0zm-785.167 -128.836l35.1653 -4.00042c-15.6663,-140.661 -51.9974,-275.997 -109.329,-406.166l-31.3406 11.6659c57.3393,125.003 92.5046,257.839 105.504,398.5zm253.998 -242.165l-31.3326 -11.8336c-20.8325,78.1638 -42.9985,155.002 -66.3302,230.499l31.1649 7.83315c10.5001,-33.8319 25.9987,-85.9969 46.8312,-156.336 7.83315,-31.1649 14.3328,-54.6644 19.6667,-70.163zm312.503 413.999l-27.3322 -15.6663c-23.5074,57.3313 -47.0069,105.504 -70.3386,144.502l31.1649 11.8336c28.6736,-52.1651 50.8396,-99.0043 66.5059,-140.669z"
     id="path588" /></glyph>
   <glyph
   unicode="海"
   horiz-adv-x="1000"
   id="glyph590"><path
     d="M277.33 511.667c80.6668,78.1682 147.168,177.165 199.168,297.003l27.3366 -15.6698c-54.6667,-124.997 -121,-225.336 -199.168,-300.832l-27.3366 19.4985zm-38.9969 179.663l-23.5015 -23.3271c-33.8318,31.1653 -70.3301,61.1619 -109.333,89.8285l23.3336 23.5015c36.4983,-28.6666 73.003,-58.6633 109.501,-90.0028zm230.502 -38.9969l0 31.3331 457 0 0 -31.3331 -457 0zm-215 -351.502l148.498 0c2.66651,13.0033 5.16516,35.1683 7.83167,66.3335 7.83812,65.1714 13.0033,115.835 15.6698,152.333l417.997 0c-2.66651,-75.5017 -6.66305,-148.33 -11.8347,-218.667l121.168 0 0 -35.1618 -124.997 0c-2.66651,-46.8351 -7.83167,-119.838 -15.6698,-218.835l113.336 0 0 -31.1653 -113.336 0c5.16516,-99.0031 -54.6667,-138 -179.663,-117.172l-11.6668 31.1653c111.832,-20.8285 164,7.83812 156.162,86.0063l-413.994 0c7.83167,46.8286 16.832,109.333 27.3301,187.495 2.49864,28.6666 5.16516,49.5016 7.83167,62.5048l-144.663 0 0 35.1618zm203.165 187.502c-2.49864,-12.9968 -5.16516,-35.1683 -7.83167,-66.5014 -7.83812,-57.1654 -13.0033,-97.6666 -15.5019,-121l363.169 0c5.33302,62.5048 9.16815,125.003 11.8347,187.502l-351.67 0zm218.835 -124.997l-19.4985 -23.5015c-31.3331,23.5015 -70.3365,50.8316 -117.339,81.9968l19.6728 23.5015c26.0001,-15.6698 62.4984,-40.3334 109.333,-74.1652 2.49864,-2.66651 5.16516,-5.33302 7.83167,-7.83167zm105.498 -316.501c2.49864,18.3298 3.83513,41.6634 3.83513,70.3301 5.16516,65.1714 9.16815,114.666 11.6668,148.505l-363.169 0c-5.33302,-28.6666 -11.8347,-74.3395 -19.6663,-136.838 -5.16516,-36.3304 -9.00028,-63.667 -11.6668,-81.9968l379 0zm-707.168 -109.333c41.6699,96.3302 79.5047,203.165 113.336,320.33l35.1683 -7.83167c-46.8351,-145.832 -86.0063,-252.667 -117.172,-320.337l-31.3331 7.83812zm589.835 195.333l-19.4985 -23.5015c-54.6667,36.4983 -95.0001,63.8349 -121,81.9968l19.4985 23.5015c33.8318,-18.162 74.1652,-45.4986 121,-81.9968zm-460.835 265.663l-23.5015 -23.495c-33.8318,31.3331 -70.3301,61.1619 -109.327,89.8285l23.495 23.5015c41.6699,-28.6666 78.0003,-58.6697 109.333,-89.835z"
     id="path592" /></glyph>
   <glyph
   unicode="马"
   horiz-adv-x="1000"
   id="glyph594"><path
     d="M656.333 -97.6674l-3.99676 35.1684c132.828,-10.3308 196.667,23.4975 191.494,101.501 7.6663,140.666 11.6708,225.33 11.6708,254.001 5.1654,23.3339 -2.66451,33.8283 -23.4975,31.1638l-527.338 0c-36.5006,0 -53.3291,13.0031 -50.8282,39.1651 2.66451,20.833 7.82991,75.5021 15.6598,164 5.17319,52.1682 9.16995,87.3366 11.8345,105.505l35.0048 -4.00455c-7.6663,-75.4943 -16.8362,-162.667 -27.3385,-261.667 2.6723,-7.82991 11.8345,-12.9953 27.3385,-15.6676l359.498 0c0,13.1667 3.83315,54.8405 11.6631,125.006 13.0031,119.833 20.833,193.995 23.5053,222.665 2.5009,15.6676 -2.6723,23.4975 -15.6676,23.4975l-511.671 0 0 31.1716 527.338 0c25.9984,-2.5009 40.3338,-14.1717 42.8347,-35.0048 -2.5009,-20.833 -7.67409,-71.669 -15.504,-152.5 -13.0031,-122.334 -20.833,-194.003 -23.4975,-214.836l124.998 0c39.0015,2.6723 56.0014,-15.4962 50.836,-54.6613 -2.6723,-106.666 -7.8377,-195.335 -15.6676,-265.5 2.66451,-96.4987 -70.3367,-139.333 -218.669,-129.003zm81.9998 257.834l0 -27.3307 -644.499 0 0 27.3307 644.499 0z"
     id="path596" /></glyph>
   <glyph
   unicode="长"
   horiz-adv-x="1000"
   id="glyph598"><path
     d="M281.331 390.67l0 406.166 35.0048 -15.504 0 -390.662 593.834 0 0 -31.3352 -406.337 0c85.9965,-187.505 221.497,-312.503 406.337,-375.002l-15.6676 -35.1684c-200.5,73.0012 -343.667,209.67 -429.671,410.17l-148.496 0 0 -394.503c54.8327,33.8361 109.494,70.3367 164.163,109.338l11.6708 -31.1716c-57.3336,-41.666 -115.836,-80.8311 -175.834,-117.168 -10.3386,-7.82991 -19.5008,-10.4944 -27.3385,-7.82991 -5.1654,2.5009 -7.6663,11.6631 -7.6663,27.3307l0 414.003 -207.161 0 0 31.3352 207.161 0zm472.506 394.495l27.4943 -23.4975c-88.661,-91.1697 -199.332,-191.33 -332.167,-300.668l-19.5008 23.3339c104.173,86.0043 212.335,186.165 324.174,300.832z"
     id="path600" /></glyph>
   <glyph
   unicode="原"
   horiz-adv-x="1000"
   id="glyph602"><path
     d="M39.0015 -54.6691c65.1635,130.171 98.9996,269.505 101.664,418l0 378.835 812.503 0 0 -31.1638 -781.339 0 0 -347.671c-5.1654,-164.163 -38.9937,-307.33 -101.493,-429.663l-31.3352 11.6631zm535.168 621.001l-35.1684 11.8345c10.5022,23.3339 24.8298,63.8313 42.9983,121.001l31.3352 -7.8377c-10.5022,-44.1669 -23.5053,-85.8329 -39.1651,-124.998zm-7.8377 -339.834l-238.162 0 0 320.333 515.66 0 0 -320.333 -246.163 0 0 -249.996c2.66451,-41.666 -40.3338,-62.499 -128.831,-62.499l-7.8377 31.3274c67.6644,-2.66451 102.833,7.8377 105.334,31.1716l0 249.996zm246.171 293.002l-453.169 0 0 -121.001 453.169 0 0 121.001zm0 -269.497l0 121.165 -453.169 0 0 -121.165 453.169 0zm-519.501 -296.835l-27.3385 19.5008c46.8392,41.666 89.8375,89.8297 128.839,144.499l27.3307 -15.6676c-39.0015,-54.6691 -81.9998,-104.165 -128.831,-148.332zm621.001 23.3339l-23.3339 -27.3385c-39.1729,39.1729 -91.1697,88.6688 -156.333,148.503l27.3307 23.4975c15.6676,-15.6676 41.666,-41.666 78.1666,-78.1666 36.5006,-31.3352 61.1668,-53.3291 74.1699,-66.4958z"
     id="path604" /></glyph>
   <glyph
   unicode="东"
   horiz-adv-x="1000"
   id="glyph606"><path
     d="M500.004 519.498l35.1603 0 0 -171.828 296.835 0 0 -31.3329 -296.835 0 0 -316.337c10.3389,-65.1633 -38.9958,-92.4984 -148.499,-81.9974l-7.83322 31.1626c96.5042,-5.16538 136.838,11.8309 121.172,50.8348l0 316.337 -320.335 0c-15.6664,5.32756 -18.1721,15.6664 -7.83322,31.3329 57.3301,75.494 113.33,163.995 168.001,265.664l-242.173 0 0 31.1626 261.667 0c10.5011,15.6664 26.1675,43.0016 46.9993,82.0055 18.1721,36.4982 32.5005,63.8334 42.8394,82.1677l31.3329 -19.6722c-10.5011,-15.4961 -24.8376,-40.3338 -43.0016,-74.1642 -15.6664,-31.1707 -28.665,-54.6703 -39.0039,-70.3368l531.167 0 0 -31.1626 -550.831 0c-65.0011,-114.668 -119.663,-203.169 -164.003,-265.664l285.174 0 0 171.828zm-191.338 -269.5l27.3352 -19.502c-62.5035,-101.662 -144.671,-186.165 -246.171,-253.996l-23.4996 23.4996c93.8364,57.3301 174.504,140.665 242.335,249.998zm351.497 -27.3352l23.4996 19.502c91.0064,-70.3287 169.168,-144.501 234.34,-222.663l-27.3352 -19.502c-41.6636,52.1647 -102.837,113.33 -183.667,183.667 -20.8318,15.4961 -36.4982,28.5029 -46.8371,38.9958z"
     id="path608" /></glyph>
   <glyph
   unicode="H"
   horiz-adv-x="523"
   id="glyph610"><path
     d="M128.831 718.833l0 -324.335 285.17 0 0 324.335 46.9999 0 0 -718.833 -46.9999 0 0 355.504 -285.17 0 0 -355.504 -46.8296 0 0 718.833 46.8296 0z"
     id="path612" /></glyph>
   <glyph
   unicode="北"
   horiz-adv-x="1000"
   id="glyph614"><path
     d="M336 496.165l-254.003 0 0 31.1653 254.003 0 0 238.34 31.1653 -7.83812 0 -836 -31.1653 0 0 574.333zm589.835 -410.165c-15.6698,-93.8315 -56.0032,-138 -121.168,-132.835l-132.835 0c-57.1654,2.49864 -87.162,29.8352 -89.835,82.0033l0 730.502 31.3396 -7.83812 0 -722.663c0,-31.3331 19.4985,-46.8351 58.4954,-46.8351l132.835 0c46.8351,-5.33302 76.8317,29.8352 89.835,105.498l31.3331 -7.83167zm-269.498 296.835l-15.6698 31.1653c80.6668,28.6666 170.502,66.5014 269.498,113.33l19.4985 -27.3301c-91.165,-46.8351 -182.33,-85.9998 -273.327,-117.165zm-601.67 -312.498l-15.6698 31.1653c106.835,39.1648 195.333,75.6631 265.67,109.501l11.6668 -31.3396c-72.8352,-36.4983 -159.997,-72.8287 -261.667,-109.327z"
     id="path616" /></glyph>
   <glyph
   unicode="利"
   horiz-adv-x="1000"
   id="glyph618"><path
     d="M793.002 -81.9998l-7.8377 35.1684c83.332,-2.6723 118.5,14.3276 105.505,50.6646l0 804.837 35.1606 -7.8377 0 -800.832c10.3386,-54.6691 -33.8283,-81.9998 -132.828,-81.9998zm-671.837 800.832c135.337,7.6663 269.505,28.4993 402.333,62.499l7.8377 -31.3274c-130.335,-36.5006 -264.331,-58.6737 -402.504,-66.34l-7.6663 35.1684zm624.998 -609.502l-31.3274 0 0 648.503 31.3274 -7.82991 0 -640.673zm-664.163 382.84l242.166 0 0 191.494 35.1684 -7.82991 0 -183.664 222.665 0 0 -31.1716 -222.665 0 0 -562.499 -35.1684 0 0 562.499 -242.166 0 0 31.1716zm-7.82991 -414.003c72.9934,101.501 132.828,208.33 179.667,320.333l31.3274 -15.6676c-46.8314,-114.667 -107.998,-222.665 -183.664,-324.166l-27.3307 19.5008zm441.498 66.3322c-39.1651,91.1697 -76.8344,169.336 -113.335,234.336l27.3307 15.6676c44.3383,-80.6675 83.3398,-158.834 117.168,-234.336l-31.1638 -15.6676z"
     id="path620" /></glyph>
   <glyph
   unicode="涅"
   horiz-adv-x="1000"
   id="glyph622"><path
     d="M886.665 726.499l0 -375.002 -468.665 0 0 375.002 468.665 0zm-35.1684 -199.168l-398.328 0 0 -144.499 398.328 0 0 144.499zm0 168.004l-398.328 0 0 -132.836 398.328 0 0 132.836zm-519.493 -742.166l0 31.1638 296.828 0 0 179.667 -238.162 0 0 31.3352 238.162 0 0 117.168 31.3352 0 0 -117.168 242.166 0 0 -31.3352 -242.166 0 0 -179.667 300.832 0 0 -31.1638 -628.995 0zm-46.8392 273.33l27.3385 -19.5008c-52.0046,-93.6628 -112.003,-189.998 -179.667,-288.998l-27.3385 19.5008c70.3367,101.501 130.171,197.999 179.667,288.998zm-144.499 507.838l15.6676 27.3307c10.3308,-5.1654 24.6662,-14.3354 42.8347,-27.3307 33.8283,-18.1685 61.3304,-33.8361 82.1634,-46.8392l-19.6644 -27.3307c-18.1685,13.0031 -48.1637,31.1638 -89.8375,54.6691 -12.9953,7.82991 -23.3261,14.3276 -31.1638,19.5008zm-66.4958 -273.338l15.6598 31.1716c46.8392,-26.0062 88.5052,-50.836 125.006,-74.1699l-19.5008 -27.3307c-5.1654,2.5009 -14.3354,7.82991 -27.3385,15.6676 -41.666,25.9984 -72.9934,44.1591 -93.8264,54.6613z"
     id="path624" /></glyph>
   <glyph
   unicode="用"
   horiz-adv-x="1000"
   id="glyph626"><path
     d="M66.3322 -46.8314c59.9981,96.3351 91.1697,192.662 93.8342,288.998l0 488.337 703.165 0 0 -726.67c20.833,-39.0015 -32.6675,-55.83 -160.166,-50.6646l-3.99676 35.1684c101.664,-2.6723 144.662,2.49311 129.003,15.4962l0 207.169 -304.673 0 0 -250.004 -35.1606 0 0 250.004 -293.002 0c-10.5022,-86.0043 -42.9983,-177.166 -97.6674,-273.501l-31.3352 15.6676zm129.003 535.168l293.002 0 0 210.831 -293.002 0 0 -210.831zm328.163 0l304.673 0 0 210.831 -304.673 0 0 -210.831zm-35.1606 -246.171l0 214.836 -293.002 0 0 -214.836 293.002 0zm339.834 0l0 214.836 -304.673 0 0 -214.836 304.673 0z"
     id="path628" /></glyph>
   <glyph
   unicode="钢"
   horiz-adv-x="1000"
   id="glyph630"><path
     d="M500 -78.1642l-35.1669 0 0 835.997 468.835 0 0 -761.667c7.66281,-57.3296 -29.9987,-82.1659 -113.337,-74.3299l-7.83027 31.3326c67.666,-5.16821 96.3309,8.99673 86.0002,42.9972l0 726.501 -398.501 0 0 -800.83zm-425.832 359.5l0 31.1652 136.833 0 0 148.498 -105.501 0 0 31.1652 249.997 0 0 -31.1652 -109.329 0 0 -148.498 140.5 0 0 -31.1652 -140.5 0 0 -281.336c12.9985,12.9985 29.8313,28.6648 50.6658,46.8315 28.6648,23.5024 52.1672,48.1712 70.3339,74.3356l23.4966 -23.5024c-33.833,-41.6633 -80.832,-84.6663 -140.668,-128.997 -10.3307,-10.3364 -19.4948,-14.1649 -27.3309,-11.6646 -7.83027,2.66206 -11.6646,11.832 -11.6646,27.3309l0 297.002 -136.833 0zm472.663 304.665l19.5006 19.5006c49.4993,-65.1657 97.6706,-134.166 144.67,-207 36.3334,80.6645 64.9982,158.834 85.8327,234.331l31.3326 -11.6646c-31.3326,-93.8363 -63.8318,-178.503 -97.6648,-253.999 46.8315,-80.6703 92.4966,-169.171 136.666,-265.669l-27.3367 -15.4989c-5.16244,10.3307 -11.6646,24.6688 -19.5006,42.8355 -41.6633,96.4983 -76.8302,166.665 -105.495,210.996 -49.5051,-101.499 -109.335,-184.831 -179.669,-249.997l-19.5006 31.3326c64.9982,54.6676 125.001,136.666 179.669,246.001 -39.0012,70.3339 -88.5006,143.33 -148.504,218.832zm-331.996 195.335l27.3309 -11.8378c-7.83605,-23.3291 -24.6688,-57.3296 -50.8333,-101.499 -5.16821,-10.4981 -9.00251,-18.3342 -11.6646,-23.4966l210.996 0 0 -31.171 -230.496 0c-13.0043,-23.4966 -33.833,-55.9957 -62.5036,-97.6648 -5.16244,-2.66784 -7.83027,-5.16821 -7.83027,-7.83027l-23.5024 19.4948c52.1672,70.3339 101.667,155 148.504,254.005z"
     id="path632" /></glyph>
   <glyph
   unicode="中"
   horiz-adv-x="1000"
   id="glyph634"><path
     d="M136.669 550.836l363.331 0 0 249.996 31.3352 -11.8345 0 -238.162 363.167 0 0 -351.668 -363.167 0 0 -296.835 -31.3352 0 0 296.835 -363.331 0 0 351.668zm35.1606 -316.5l328.171 0 0 285.164 -328.171 0 0 -285.164zm359.506 285.164l0 -285.164 327.999 0 0 285.164 -327.999 0z"
     id="path636" /></glyph>
   <glyph
   unicode="子"
   horiz-adv-x="1000"
   id="glyph638"><path
     d="M691.334 699.169l-476.503 0 0 35.1607 503.999 0c28.506,0 45.504,-5.16385 50.6678,-15.4993 2.67122,-10.4985 -6.49946,-26.1609 -27.3334,-46.9949 -67.6658,-65.0023 -143.167,-127.504 -226.495,-187.506 23.3266,-36.3333 44.1606,-74.1652 62.4942,-113.162l375.004 0 0 -31.3325 -363.333 0c18.1628,-70.337 24.833,-147.166 19.4984,-230.502 0,-132.831 -80.6647,-195.333 -242.165,-187.498l-7.83507 31.3325c148.501,-10.4985 220.166,42.9958 214.831,160.165 5.33468,91.171 -2.50039,166.664 -23.3344,226.503l-476.666 0 0 31.3325 464.831 0c-12.9989,36.3333 -36.3333,75.5009 -70.1662,117.169 80.6725,59.8307 156.173,120.997 226.503,183.499 10.3355,10.4985 15.6701,16.998 15.6701,19.4984 0,5.33468 -6.49946,7.83507 -19.6692,7.83507z"
     id="path640" /></glyph>
   <glyph
   unicode="光"
   horiz-adv-x="1000"
   id="glyph642"><path
     d="M66.3335 414l0 31.3331 433.666 0 0 343.664 35.1683 -7.6638 0 -336 417.997 0 0 -31.3331 -312.498 0 0 -378.832c2.49864,-26.0001 15.6698,-39.0034 38.9969,-39.0034l164.168 0c31.1717,2.49864 58.5018,37.6669 82.0033,105.337l35.1683 -7.67026c-33.8382,-91.165 -74.3395,-135.501 -121.168,-132.828l-168.003 0c-41.6634,2.49864 -63.8349,26.0001 -66.3335,70.3301l0 382.667 -179.663 0c18.162,-270.835 -93.838,-429.67 -336,-476.499l-7.83812 35.1683c221.333,36.4983 325.502,183.666 312.505,441.33l-328.168 0zm269.666 105.498c-12.9968,15.6698 -31.3331,42.9999 -54.6667,82.0033 -28.6666,44.33 -50.8316,76.8317 -66.5014,97.6666l27.3366 15.6633c39.1648,-54.6667 80.8347,-114.499 124.997,-179.663l-31.1653 -15.6698zm507.832 179.67c-49.4951,-72.8352 -98.9967,-135.334 -148.498,-187.502l-23.5015 23.5015c5.33302,7.83167 14.3333,19.4985 27.3366,35.1683 54.6667,65.1649 95.168,117.165 121.168,156.162l23.495 -27.3301z"
     id="path644" /></glyph>
   <glyph
   unicode="E"
   horiz-adv-x="515"
   id="glyph646"><path
     d="M441.333 718.835l0 -39.1659 -304.667 0 0 -289.003 218.832 0 0 -39.1659 -218.832 0 0 -312.499 312.499 0 0 -39.0014 -359.332 0 0 718.835 351.5 0z"
     id="path648" /></glyph>
   <glyph
   unicode="家"
   horiz-adv-x="1000"
   id="glyph650"><path
     d="M433.666 496.163l-218.833 0 0 31.1729 539.002 0 0 -31.1729 -312.503 0 19.6667 -23.4994c-10.5001,-12.9994 -22.166,-23.4994 -35.1653,-31.3326 106.67,-109.329 164.001,-210.832 171.834,-304.662 7.83315,-132.836 -54.6644,-201.833 -187.5,-207l-3.83273 31.3326c111.836,2.49926 165.335,59.8306 160.001,171.834 -18.1656,98.9963 -74.1714,194 -167.834,285.163 -83.33,-62.4975 -188.834,-118.503 -316.504,-168.001l-7.83315 31.3326c156.336,57.1716 276.172,128.836 359.502,214.833zm78.0041 195.174l-27.3402 -15.5066 410.166 0 0 -187.5 -35.1653 0 0 156.168 -753.827 0 0 -164.001 -35.1733 0 0 195.334 410.166 0c-7.83315,15.5066 -16.9998,35.1733 -27.3322,58.5051 -7.83315,10.5001 -12.9994,19.499 -15.6663,27.3322l31.3326 15.6663c5.1662,-10.3324 12.9994,-24.6652 23.3318,-42.9985 7.84113,-15.4986 14.3408,-29.8394 19.507,-42.9985zm78.1638 -269.505l35.1653 0c18.1656,-210.832 105.504,-351.502 261.664,-421.832l-15.4986 -23.4994c-161.494,65.1644 -255.332,213.667 -281.331,445.332zm-70.3307 -202.999l19.499 -27.4999c-114.503,-130.169 -261.672,-214.833 -441.339,-253.831l-3.83273 35.1653c171.834,31.1649 313.669,113.329 425.673,246.165zm-78.1718 105.336l27.4999 -23.3397c-96.497,-91.1632 -209.666,-160.16 -339.995,-207l-7.66547 35.0056c122.328,39.1657 229.166,104.163 320.161,195.334zm261.832 -66.3382l-15.6663 27.3322c18.1735,7.83315 24.6732,10.3404 19.507,7.83315 52.1651,26.0067 92.4966,45.5057 121.162,58.5051l15.6663 -27.3322c-41.665,-23.3397 -88.6639,-45.5057 -140.669,-66.3382z"
     id="path652" /></glyph>
   <glyph
   unicode="B"
   horiz-adv-x="503"
   id="glyph654"><path
     d="M128.831 38.9976l152.501 0c88.5001,10.5049 135.336,60.0011 140.501,148.501 -10.3304,104.17 -66.3315,160.165 -168.003,168.003l-124.999 0 0 -316.504zm160.171 -38.9976l-207.001 0 0 718.836 175.829 0c114.501,-5.33343 174.502,-63.833 179.667,-175.835 -2.66672,-75.503 -41.6643,-128.999 -117.161,-160.165 96.332,-31.3339 145.828,-95.0049 148.495,-191.505 0,-44.1628 -9.16528,-79.3286 -27.4958,-105.329 -36.3371,-57.3344 -87.1667,-86.0016 -152.333,-86.0016zm-160.171 394.5l74.3378 0c122.333,2.66672 184.832,53.5026 187.499,152.333 2.49849,88.6683 -48.1691,132.831 -152.333,132.831l-109.504 0 0 -285.164z"
     id="path656" /></glyph>
   <glyph
   unicode="菱"
   horiz-adv-x="1000"
   id="glyph658"><path
     d="M488.335 398.497l0 101.507 -277.333 0 0 31.3329 277.333 0 0 66.331 31.1626 -7.83322 0 -58.4977 281.339 0 0 -31.3329 -281.339 0 0 -101.507 421.834 0 0 -31.3329 -878.828 0 0 31.3329 425.832 0zm425.661 -433.665l-3.82741 -31.1626c-182.337,10.3308 -309.834,38.9958 -382.838,85.8329 -140.665,-44.1693 -282.499,-74.1723 -425.832,-89.8387l-3.83552 31.3329c153.672,15.5043 287.834,44.1693 402.34,85.841 -18.1721,18.3262 -45.5073,48.1589 -82.0055,89.8306l31.1707 19.6641c18.3343,-26.1675 45.6613,-57.3301 82.1677,-93.8283 44.1612,25.9972 79.3296,53.3324 105.327,81.9974 5.33567,10.5011 7.83322,16.9963 7.83322,19.502 -2.49755,5.32756 -7.83322,7.83322 -15.6664,7.83322l-148.328 0 0 31.3329 171.828 0c23.4996,0 36.5064,-5.16538 39.0039,-15.6664 5.33567,-10.3389 0,-24.6673 -15.5043,-43.0016 -26.1594,-31.1707 -65.1633,-66.331 -117.166,-105.497 75.5021,-44.1693 194.006,-69.0069 355.333,-74.1723zm-589.827 707l-246 0 0 31.3329 246 0 0 82.0055 35.1603 -7.83322 0 -74.1723 285.166 0 0 93.6661 31.3329 -11.6606 0 -82.0055 257.839 0 0 -31.3329 -257.839 0 0 -81.9974 -31.3329 0 0 81.9974 -285.166 0 0 -81.9974 -35.1603 0 0 81.9974zm164.165 -390.501l23.3294 -23.4996c-88.5007,-80.6675 -187.494,-143.163 -296.835,-187.494l-23.4996 27.3271c112,44.3396 211.002,105.505 297.005,183.667zm-117.166 77.9997l27.3271 -23.3294c-67.8311,-75.5021 -152.326,-119.834 -253.996,-132.832l-7.83322 35.1684c91.1686,7.83322 169.33,48.1589 234.502,120.993zm249.998 -35.1603l15.4961 31.3329c78.17,-39.1661 152.334,-79.4998 222.671,-121.172l-11.6687 -35.1684c-65.1633,41.6717 -140.665,83.3354 -226.498,125.007z"
     id="path660" /></glyph>
   <glyph
   unicode="芝"
   horiz-adv-x="1000"
   id="glyph662"><path
     d="M960.996 11.6687l7.83322 -27.3352c-122.493,-28.665 -283.999,-39.0039 -484.5,-31.1707 -140.495,13.0067 -230.496,65.0011 -269.5,156.17 -23.4996,-72.8343 -54.6622,-141.833 -93.6661,-206.996l-31.3329 19.4938c49.505,70.3368 83.3354,153.672 101.499,250.006 2.66783,18.3343 9.17119,27.3271 19.6722,27.3271 10.3308,0 18.164,-10.3308 23.3294,-31.1626 2.66783,-23.4996 9.17119,-44.3315 19.502,-62.5035 177.164,52.0025 339.999,143.171 488.335,273.335 5.16538,5.33567 6.49524,10.5011 3.9977,15.6664 0,2.66783 -3.9977,3.9977 -11.8309,3.9977l-531.167 0 0 31.1707 570.333 0c25.9972,-7.83322 32.5005,-23.3375 19.502,-46.8371 -145.839,-140.665 -320.335,-242.165 -523.504,-304.66 52.1647,-57.3382 123.669,-87.3331 214.83,-89.8387 179.669,-7.83322 338.669,0 476.667,23.3375zm-621.159 632.828l0 -89.8306 -35.1684 0 0 89.8306 -238.337 0 0 31.3329 238.337 0 0 97.6719 35.1684 -7.83322 0 -89.8387 308.666 0 0 113.168 35.1603 -7.66293 0 -105.505 242.173 0 0 -31.3329 -242.173 0 0 -89.8306 -35.1603 0 0 89.8306 -308.666 0zm183.667 -179.661l-27.3352 -15.6664c-34.0007,67.8311 -58.668,115.998 -74.3345,144.663l27.3352 15.5043c2.66783,-5.17349 6.49524,-11.6687 11.8309,-19.502 31.1626,-54.6703 52.0025,-96.334 62.5035,-124.999z"
     id="path664" /></glyph>
   <glyph
   unicode="u"
   horiz-adv-x="511"
   id="glyph666"><path
     d="M386.666 316.331l0 211.005 46.9974 0 0 -257.834c0,-88.5027 6.50684,-178.334 19.5044,-269.502l-43.0031 0 -19.4964 148.498 -4.00235 0c-33.8307,-96.3302 -96.3302,-147.161 -187.498,-152.331 -78.0016,2.49644 -118.5,56.0007 -120.997,160.167l0 371.003 46.8283 0 0 -347.673c0,-104.166 27.332,-154.996 82.0039,-152.331 49.4939,2.66555 93.8338,31.3343 132.827,85.9982 31.3343,54.672 46.8364,122.333 46.8364,203.001z"
     id="path668" /></glyph>
   <glyph
   unicode=" "
   horiz-adv-x="449"
   id="glyph670" />
   <glyph
   unicode="螺"
   horiz-adv-x="1000"
   id="glyph672"><path
     d="M886.668 445.334l-425.668 0 0 328.168 425.668 0 0 -328.168zm-628.832 -425.834l-31.3376 0 0 191.498 -136.665 0 0 359.335 136.665 0 0 195.336 31.3376 -7.83321 0 -187.503 136.665 0 0 -359.335 -136.665 0 0 -191.498zm413.996 418.001l19.4999 -23.4996c-38.9998,-36.3349 -84.4979,-71.5012 -136.665,-105.333 18.3361,2.49865 46.833,5.16355 85.999,7.66695 36.5011,2.66491 63.8342,3.99973 81.9993,3.99973l0 -3.99973c36.5011,23.4996 71.6674,50.8327 105.504,82.1656l19.4999 -19.6662c-86.0038,-80.6692 -183.669,-149.667 -293.002,-207.003 33.8315,5.33456 83.3341,10.5029 148.498,15.6664 65.0028,7.83321 114.501,13.0015 148.337,15.6664l7.83321 -31.3328c-18.1698,-2.49865 -42.9995,-5.16355 -74.1661,-7.83321 -36.5011,-5.16355 -63.8342,-8.99703 -82.004,-11.6667l0 -187.498c2.5034,-46.833 -27.3331,-69.0025 -89.8325,-66.3329l-7.83321 27.3331c46.833,0 69.0025,13.0015 66.3329,38.9998l0 183.665c-10.3319,0 -27.3331,-1.33008 -50.6665,-3.99973 -67.834,-7.83321 -122.5,-14.3316 -164.165,-19.4999l-7.83321 35.1663c7.83321,0 15.6664,0 23.4996,0 91.1673,44.3343 163.999,87.1676 218.665,128.837 -18.1651,0 -45.4982,-1.16857 -81.9993,-3.83347 -62.4994,-5.1683 -105.499,-7.83321 -128.832,-7.83321l-3.99973 27.3331c7.83321,0 14.3316,0 19.6662,0 75.5009,49.4979 134.001,93.8322 175.665,132.832zm-413.996 101.499l0 -296.835 101.499 0 0 296.835 -101.499 0zm-132.837 0l0 -296.835 101.499 0 0 296.835 -101.499 0zm562.499 58.6659l0 -121.165 164.003 0 0 121.165 -164.003 0zm-195.331 0l0 -121.165 164.165 0 0 121.165 -164.165 0zm195.331 148.503l0 -117.337 164.003 0 0 117.337 -164.003 0zm-195.331 0l0 -117.337 164.165 0 0 117.337 -164.165 0zm-410.167 -808.668l-7.83321 35.1663c93.8322,18.1651 178.501,31.1666 254.002,38.9998l7.83321 -23.3334c-49.5026,-10.4981 -121.17,-24.8345 -214.836,-42.9995 -18.3313,-2.66491 -31.3328,-5.1683 -39.166,-7.83321zm339.835 23.4996l-27.3331 -15.6664c-10.3366,23.4996 -27.3331,56.001 -50.6665,97.6657 -15.6664,28.6679 -27.4994,50.8327 -35.1663,66.3329l27.3331 15.6664c15.5002,-28.6632 36.3301,-68.9978 62.4994,-121.165 10.3319,-18.1651 18.1651,-32.5014 23.3334,-42.8333zm500 15.5002l-23.3334 -23.3334c-18.3361,20.8347 -45.6692,49.4979 -82.1656,85.8328 -18.1698,20.8347 -32.5014,36.5011 -42.8333,46.9992l23.3334 23.3334c20.83,-20.8347 49.4979,-52.0013 85.999,-93.666 18.1651,-18.3313 31.1666,-31.3328 38.9998,-39.166zm-445.334 -31.1666l-23.3334 23.3334c38.9998,36.5011 75.5009,80.8307 109.332,132.832l23.4996 -27.3331c-31.3328,-44.1681 -67.834,-87.1676 -109.499,-128.832zm461 187.498l-27.3331 -15.6664c-28.6679,62.4994 -56.001,112.002 -81.9993,148.503l31.1666 15.6664c28.6632,-44.3343 54.6662,-93.837 78.1658,-148.503z"
     id="path674" /></glyph>
   <glyph
   unicode="信"
   horiz-adv-x="1000"
   id="glyph676"><path
     d="M394.503 140.666l484.332 0 0 -195.335 -484.332 0 0 195.335zm31.3274 -31.3352l0 -132.828 418 0 0 132.828 -418 0zm-164.163 672.001l35.1684 -7.82991c-33.8361,-98.9996 -67.6722,-185.004 -101.501,-257.834l27.3307 -7.8377 0 -585.997 -35.1684 0 0 582c-31.1638,-57.17 -67.6644,-117.168 -109.33,-179.667l-27.3307 19.6644c88.4974,117.168 158.834,262.999 210.831,437.501zm683.664 -172.001l0 -31.1638 -624.998 0 0 31.1638 624.998 0zm-117.16 -312.495l0 -31.1716 -394.503 0 0 31.1716 394.503 0zm0 156.333l0 -31.3352 -386.836 0 0 31.3352 386.836 0zm-250.004 324.166l31.1638 11.6631c23.5053,-41.666 40.3338,-87.1652 50.836,-136.661l-27.3307 -15.6676c-13.0031,46.995 -31.3352,93.8342 -54.6691,140.666z"
     id="path678" /></glyph>
   <glyph
   unicode="d"
   horiz-adv-x="515"
   id="glyph680"><path
     d="M437.503 742.161l0 -554.658c0,-78.1743 7.8262,-140.671 23.4911,-187.503l-46.9947 -3.83171 -15.5021 77.999c-31.3298,-52.0035 -78.1618,-77.999 -140.659,-77.999 -62.5094,0 -113.336,24.6682 -152.342,74.1673 -36.5014,52.0035 -54.6582,118.495 -54.6582,199.161 5.15903,161.508 74.1548,251.34 207,269.509 49.4991,0 93.6639,-14.3376 132.832,-42.8375l0 245.993 46.832 0zm-46.832 -605.497l0 312.497c-44.3401,33.8342 -84.6732,50.839 -121.175,50.839 -111.996,-10.3306 -169.159,-88.5049 -171.826,-234.335 2.66717,-145.83 55.998,-225.332 160.168,-238.33 57.3253,0 101.49,36.5014 132.832,109.329z"
     id="path682" /></glyph>
   <glyph
   unicode="S"
   horiz-adv-x="492"
   id="glyph684"><path
     d="M441.335 652.329l-27.3353 -35.1615c-59.8297,54.6707 -111.833,80.829 -156.161,78.1618 -86.0005,-5.15903 -131.505,-48.1593 -136.677,-129.001 -5.33434,-49.3238 32.5069,-97.4956 113.173,-144.49l62.4969 -35.1741c117.168,-65.0013 172.001,-131.493 164.162,-199.161 -5.32181,-125.006 -72.9902,-190.17 -203.156,-195.342 -80.6662,0 -148.51,33.8342 -203.168,101.678l35.1615 27.3228c44.3401,-62.4969 100.338,-93.8267 168.007,-93.8267 93.6639,7.8262 144.49,57.3253 152.329,148.497 15.6649,54.6707 -31.3298,111.996 -140.671,171.838l-66.3286 38.9932c-88.5049,49.4991 -131.505,108.164 -129.001,175.833 5.33434,106.837 66.5039,163.999 183.671,171.838 67.6559,0 128.825,-27.3353 183.496,-82.006z"
     id="path686" /></glyph>
   <glyph
   unicode="r"
   horiz-adv-x="441"
   id="glyph688"><path
     d="M144.503 214.83l0 -214.83 -46.8364 0 0 367.169 -19.4964 167.994 42.9951 0 19.5044 -148.498c49.4939,101.669 109.328,152.331 179.663,152.331 72.8315,-2.49644 110.665,-56.0007 113.33,-160.167l-46.9974 0c2.66555,80.8362 -20.8332,121.174 -70.3351,121.174 -39.0008,-2.6736 -76.6648,-27.34 -113.161,-74.1683 -39.1699,-60.0031 -58.6663,-130.338 -58.6663,-211.005z"
     id="path690" /></glyph>
   <glyph
   unicode="管"
   horiz-adv-x="1000"
   id="glyph692"><path
     d="M261.663 -70.3384l0 449.175 468.831 0 0 -179.67 -433.662 0 0 -89.8351 492.164 0 0 -179.67 -527.333 0zm492.175 148.507l-457.006 0 0 -117.174 457.006 0 0 117.174zm-58.5015 269.494l-398.504 0 0 -113.327 398.504 0 0 113.327zm-156.338 168.004l-23.3323 -11.8369 413.995 0 0 -163.998 -35.1578 0 0 132.835 -765.675 0 0 -140.665 -31.1629 0 0 171.828 410.171 0c-7.83055,23.503 -20.8397,48.3377 -39.0048,74.3333l27.3386 15.6725c18.1651,-28.6703 32.4945,-54.8366 42.829,-78.1689zm414.166 175.664l-312.494 0 0 31.3336 312.494 0 0 -31.3336zm-476.662 31.3336l0 -31.3336 -253.833 0 0 31.3336 253.833 0zm-371.006 -113.327l-23.4917 27.3273c44.3314,41.6681 91.1667,100.34 140.665,175.835l31.1629 -11.6662c-44.1607,-67.8344 -93.6707,-131.503 -148.337,-191.496zm453.17 27.3273l-31.3336 11.8369c33.8375,54.6659 66.5028,108 97.6656,160.162l31.3336 -19.6674c-31.3336,-54.6659 -63.8281,-105.325 -97.6656,-152.332zm-195.331 -46.8353l-27.3386 -11.6662c-12.9978,23.3323 -23.4917,50.6709 -31.3336,82.0045l27.3386 15.6611c5.16725,-12.9978 11.8369,-29.9906 19.4967,-50.8303 5.33798,-15.6611 9.17358,-27.3273 11.8369,-35.1692zm413.995 4.00633l-31.1629 -15.6725c-7.83055,26.007 -18.3358,50.6709 -31.3336,74.174l27.3386 15.6611c5.15587,-10.4938 12.9978,-25.9956 23.4917,-46.8353 5.16725,-13.1685 9.00286,-22.16 11.6662,-27.3273z"
     id="path694" /></glyph>
   <glyph
   unicode="成"
   horiz-adv-x="1000"
   id="glyph696"><path
     d="M511.663 628.831c0,5.3368 -1.16085,14.3354 -3.83315,27.5021 -5.1654,67.6644 -9.16216,121.001 -11.6631,160.003l35.1684 0c0,-64.9999 5.1654,-127.499 15.4962,-187.505l363.339 0 0 -34.997 -359.334 0c23.3339,-192.834 53.3291,-334.668 89.8297,-425.838 52.0046,67.6722 104.165,162.667 156.17,285.172l27.3307 -11.8345c-51.9968,-124.998 -107.998,-226.499 -167.833,-304.665 57.17,-70.3367 114.504,-118.5 171.837,-144.499 28.6629,-10.3386 48.1637,-9.16995 58.4945,3.99676 10.5022,10.3308 22.1653,29.8316 35.1684,58.5023 5.3368,12.9953 9.16995,22.1653 11.8345,27.3307l31.1638 -15.6676c-23.4975,-44.1669 -41.666,-76.663 -54.6613,-97.6674 -20.8408,-25.9984 -52.1682,-29.8316 -93.8342,-11.6631 -72.8376,39.1651 -134.004,91.1619 -183.5,156.333 -83.332,-73.0012 -190.169,-129.003 -320.333,-168.004l-11.6708 31.1716c127.499,33.9997 231.672,89.8297 312.503,167.996 -44.3383,104.165 -76.8344,254.001 -97.6674,449.335l-343.838 0 0 -172.001 230.503 0 0 -164c7.8377,-122.334 -39.0015,-177.166 -140.666,-164l-7.82991 31.1638c83.332,-18.1685 121.165,25.9984 113.327,132.836l0 132.836 -195.335 0c5.3368,-190.169 -28.6629,-338.501 -101.493,-445.339l-31.3352 15.6676c65.1635,96.3351 97.6674,223.834 97.6674,382.832l0 285.001 374.994 0zm343.838 97.6674l-19.5008 -27.3307c-15.6676,12.9953 -41.666,33.8283 -78.1666,62.499 -13.0031,10.5022 -23.4975,18.3321 -31.3352,23.4975l19.6644 23.5053c41.6738,-26.1698 78.003,-53.5005 109.338,-82.1712z"
     id="path698" /></glyph>
   <glyph
   unicode="."
   horiz-adv-x="296"
   id="glyph700"><path
     d="M93.8392 54.6707c2.49186,41.6604 24.6556,63.8242 66.3286,66.4914 38.9932,-5.33434 61.1695,-27.3228 66.3286,-66.4914 -2.49186,-39.0058 -24.6682,-59.8422 -66.3286,-62.5094 -41.6729,2.66717 -63.8367,23.5036 -66.3286,62.5094z"
     id="path702" /></glyph>
   <glyph
   unicode="投"
   horiz-adv-x="1000"
   id="glyph704"><path
     d="M863.336 328.165l-433.666 0 0 31.171 453.166 0c31.1636,-5.16813 40.3276,-20.8347 27.3299,-46.8376 -46.8302,-96.3292 -106.835,-179.668 -179.668,-250.002 67.6723,-44.3309 140.668,-80.6626 218.669,-109.327l-15.497 -31.3332c-80.8396,33.8325 -159.003,72.9952 -234.505,117.164 -88.4996,-44.1687 -180.995,-79.3356 -277.332,-105.331l-11.6633 34.9973c109.327,20.9969 196.662,52.1679 261.665,93.8299 -57.1664,59.8353 -106.665,123.666 -148.335,191.339l27.3299 19.6625c33.8398,-62.4968 83.3389,-125.001 148.335,-187.498 73.0026,67.6649 131.503,143.167 175.834,226.498 5.16813,5.16813 6.50255,9.1714 3.83371,11.6707 -2.49928,2.66148 -7.66741,3.9959 -15.497,3.9959zm-636.837 -50.8335l0 234.335 -152.331 0 0 35.1669 152.331 0 0 234.497 35.1669 -7.82961 0 -226.668 117.171 0 0 -35.1669 -117.171 0 0 -214.835c20.8347,15.6666 49.499,36.5013 86.0003,62.5041 7.83698,5.33033 12.9977,9.16403 15.6666,11.8329l15.5044 -27.3373c-31.171,-28.6643 -70.1716,-57.3286 -117.171,-86.0003l0 -261.665c5.3377,-57.336 -41.6621,-83.3315 -140.498,-78.1634l-4.00327 35.1669c80.8396,-5.16813 117.171,8.99446 109.334,42.9965l0 242.165c-10.3289,-7.82961 -33.8325,-23.4962 -70.1642,-46.9998 -36.5013,-23.334 -61.3319,-39.0006 -74.337,-46.8302l-15.6666 31.3332c54.8367,31.1636 108.169,64.9961 160.168,101.497zm222.672 136.672l-15.5044 31.3332c96.3366,25.9955 137.999,132.831 125.001,320.328l257.669 0 0 -253.998c-2.49928,-23.334 9.16403,-33.8325 35.1669,-31.1636l117.334 0 0 -35.1669 -117.334 0c-46.8376,0 -70.1716,22.1618 -70.1716,66.3305l0 222.665 -191.501 0c10.5058,-176.999 -36.4939,-283.834 -140.66,-320.328z"
     id="path706" /></glyph>
   <glyph
   unicode="煤"
   horiz-adv-x="1000"
   id="glyph708"><path
     d="M523.498 781.331l0 -113.335 261.667 0 0 132.836 35.1684 -11.8345 0 -121.001 140.666 0 0 -31.3274 -140.666 0 0 -304.665 -328.163 0 0 304.665 -132.836 0 0 31.3274 132.836 0 0 121.001 31.3274 -7.6663zm261.667 -144.662l-261.667 0 0 -117.168 261.667 0 0 117.168zm-261.667 -148.332l0 -125.006 261.667 0 0 125.006 -261.667 0zm-164.163 -297.007l0 35.1684 281.331 0 0 62.499 31.1638 -7.6663 0 -54.8327 289.169 0 0 -35.1684 -289.169 0 0 -288.998 -31.1638 0 0 288.998 -281.331 0zm-27.3307 -249.996c109.33,44.3305 190.162,112.003 242.166,203.165l31.3274 -15.6676c-62.499,-98.8282 -148.496,-171.829 -257.834,-218.661l-15.6598 31.1638zm621.165 -11.6708c-101.672,49.5037 -178.499,114.667 -230.503,195.335l31.1716 19.5008c52.1604,-83.332 123.829,-144.499 214.999,-183.5l-15.6676 -31.3352zm-906.337 359.334c20.833,65.1713 35.1684,164.171 42.9983,296.999l31.3352 -7.82991c-5.32901,-119.833 -18.3321,-218.832 -39.1651,-296.835l-35.1684 7.6663zm35.1684 -343.667c59.9981,86.0043 97.6674,169.336 113.335,250.004 18.1685,80.6675 27.3307,220.001 27.3307,418l0 187.497 31.1716 -11.8345 0 -175.663c0,-208.338 -9.00634,-351.668 -27.3385,-429.671 -15.4962,-85.9965 -54.6691,-173.162 -117.168,-261.831l-27.3307 23.4975zm300.832 601.501c-28.6629,-33.8283 -54.6613,-61.1668 -78.1666,-81.9998l-27.3307 19.5008c23.4975,20.833 49.4959,48.1715 78.1666,81.9998l27.3307 -19.5008zm-35.1684 -539.002c-44.3305,59.8345 -81.9998,105.505 -113.327,136.669l27.3307 19.5008c49.4959,-54.6691 85.9965,-100.168 109.502,-136.669l-23.5053 -19.5008z"
     id="path710" /></glyph>
   <glyph
   unicode="气"
   horiz-adv-x="1000"
   id="glyph712"><path
     d="M35.1684 542.998c88.4974,72.8376 164,161.499 226.499,265.672l23.4975 -19.6722c-49.4959,-88.4974 -124.998,-178.327 -226.499,-269.497l-23.4975 23.4975zm867.164 156.17l0 -27.3385 -656.17 0 0 27.3385 656.17 0zm-97.6674 -175.67l-582 0 0 31.1716 582 0 0 -31.1716zm-66.3322 -578.167c-62.499,112.003 -66.5036,251.336 -11.8345,418l-621.001 0 0 31.1716 632.836 0c20.833,0 27.3307,-13.0031 19.5008,-39.0015 -52.1682,-140.666 -50.836,-269.505 3.83315,-386.836 49.4959,-80.6675 108.17,-61.1668 175.834,58.6659l31.3352 -15.6676c-83.3398,-137.993 -160.166,-160.166 -230.503,-66.3322z"
     id="path714" /></glyph>
   <glyph
   unicode="西"
   horiz-adv-x="1000"
   id="glyph716"><path
     d="M894.503 -39.0015l-781.168 0 0 527.338 253.829 0 0 202.993 -285.164 0 0 31.3352 836 0 0 -31.3352 -316.5 0 0 -202.993 293.002 0 0 -527.338zm-745.999 496.003l0 -460.835 710.831 0 0 460.835 -257.834 0 0 -245.999c-2.5009,-33.8361 13.1667,-49.5037 47.0028,-47.0028l152.329 0 0 -31.1638 -160.166 0c-54.6691,-5.1654 -79.4989,18.1607 -74.3335,70.3289l0 253.837 -164 0c2.66451,-164 -41.666,-282.5 -132.836,-355.501l-23.3339 23.4975c83.3398,70.3367 123.674,180.999 121.001,332.004l-218.661 0zm253.829 234.328l0 -202.993 164 0 0 202.993 -164 0z"
     id="path718" /></glyph>
   <glyph
   unicode="荏"
   horiz-adv-x="1000"
   id="glyph720"><path
     d="M671.829 652.337l-331.996 0 0 -97.6674 -35.1684 0 0 97.6674 -238.333 0 0 31.3274 238.333 0 0 105.334 35.1684 -7.6663 0 -97.6674 331.996 0 0 117.168 31.3352 -11.8345 0 -105.334 238.169 0 0 -31.3274 -238.169 0 0 -105.505 -31.3352 0 0 105.505zm-589.83 -402.333l-19.5008 27.3307c83.332,57.3336 161.499,140.666 234.336,249.996l27.3307 -15.6676c-72.8298,-114.496 -153.669,-201.832 -242.166,-261.659zm754.001 238.333l7.82991 -35.1684c-93.8264,-13.0031 -167.996,-20.833 -222.665,-23.5053 -57.3336,-5.1654 -124.998,-7.82991 -203.165,-7.82991l-7.82991 31.3352c161.499,0 303.333,11.6631 425.83,35.1684zm-222.665 -496.167l0 199.16 -293.002 0 0 35.1684 293.002 0 0 179.839 35.1684 -7.8377 0 -172.001 304.665 0 0 -35.1684 -304.665 0 0 -199.16 261.667 0 0 -31.1716 -566.34 0 0 31.1716 269.505 0zm-418 -78.1666l0 425.83 35.1684 -15.6676 0 -410.163 -35.1684 0z"
     id="path722" /></glyph>
   <glyph
   unicode="沈"
   horiz-adv-x="1000"
   id="glyph724"><path
     d="M589.83 593.834l-245.999 0 0 -187.497 -31.3274 0 0 222.494 277.327 0 0 187.505 35.1684 -7.6663 0 -179.839 285.172 0 0 -238.162 -31.3352 0 0 203.165 -253.837 0c-7.82991,-315.167 -106.83,-539.165 -296.828,-672.001l-23.5053 23.4975c185.004,132.836 279.999,349.004 285.164,648.503zm355.501 -484.504c-23.4975,-106.666 -67.6644,-158.834 -132.828,-156.162l-93.6706 0c-65.1635,0 -97.6674,27.3307 -97.6674,81.9998l0 343.667 35.1684 -7.6663 0 -336c0,-33.8361 20.833,-50.836 62.499,-50.836l93.6706 0c52.1604,2.66451 84.6643,47.0028 97.6674,132.836l35.1606 -7.8377zm-710.995 593.834l-19.5008 -23.4975c-31.1716,23.4975 -67.6722,49.4959 -109.338,78.1666l19.5008 27.3307c41.666,-23.4975 78.1666,-50.8282 109.338,-81.9998zm-144.507 -742.166c46.8392,85.8329 89.8375,199.168 129.003,339.834l35.0048 -11.8345c-49.3401,-150.996 -93.6706,-265.5 -132.672,-343.667l-31.3352 15.6676zm105.505 449.172l-19.5008 -27.3385c-31.3352,28.6707 -67.8358,54.6691 -109.502,78.1666l19.6644 27.3385c41.6738,-23.5053 78.003,-49.5037 109.338,-78.1666z"
     id="path726" /></glyph>
   <glyph
   unicode="团"
   horiz-adv-x="1000"
   id="glyph728"><path
     d="M898.499 750.004l0 -796.835 -769.668 0 0 796.835 769.668 0zm-35.1684 -765.672l0 734.5 -703.165 0 0 -734.5 703.165 0zm-289.161 531.335l0 164 35.1606 -7.8377 0 -156.162 168.004 0 0 -31.3352 -168.004 0 0 -394.503c5.3368,-49.4959 -33.8283,-71.6612 -117.16,-66.3322l-3.83315 35.1684c62.499,-5.32901 91.1619,5.1654 85.8329,31.1638l0 394.503 -324.166 0 0 31.3352 324.166 0zm-78.003 -58.6659l31.1638 -15.6676c-62.499,-140.502 -157.494,-261.667 -285.164,-363.167l-15.6676 23.3339c119.833,96.4987 209.67,214.836 269.668,355.501z"
     id="path730" /></glyph>
   <glyph
   unicode="寿"
   horiz-adv-x="1000"
   id="glyph732"><path
     d="M484.334 788.998l31.3313 -11.6622c-2.66533,-10.335 -5.16748,-26.0006 -7.83281,-46.8337 -5.16748,-23.5039 -9.16548,-40.3335 -11.6676,-50.8371l343.67 0 0 -35.1661 -351.503 0c-10.4981,-39.0009 -23.4984,-78.1649 -39.1641,-117.166l355.501 0 0 -35.1661 -363.334 0c-18.1678,-44.1684 -36.3355,-83.3324 -54.6665,-117.166l523.498 0 0 -31.1681 -539.001 0c-67.8354,-135.502 -149.835,-244.835 -246.168,-328.168l-19.5004 19.5004c93.6674,86.0032 170.5,188.836 230.502,308.667l-242.164 0 0 31.1681 257.661 0c10.5036,18.1678 24.8365,50.8317 43.0043,97.6654 2.66533,7.83281 5.16748,14.333 7.83281,19.5004l-214.837 0 0 35.1661 226.504 0c15.6656,39.0009 28.6659,78.1649 39.1641,117.166l-300.834 0 0 35.1661 308.667 0c2.50215,13.0003 6.50015,31.3367 11.6676,54.6665 5.16748,26.1692 9.16548,44.337 11.6676,54.6665zm-105.504 -562.499l316.5 0 0 97.6654 35.1715 -7.83281 0 -89.8326 175.83 0 0 -35.1661 -175.83 0 0 -187.498c2.49671,-67.6668 -60.0026,-97.5022 -187.503,-89.8326l-3.998 31.3313c109.502,-5.16748 161.497,14.333 156.33,58.5013l0 187.498 -316.5 0 0 35.1661zm31.3367 -117.166l27.3333 19.5004c20.8331,-23.3353 44.3315,-52.0012 70.3321,-85.8346 -2.66533,2.50215 0,-1.33267 7.83281,-11.6676l-27.3333 -19.6636c-20.8331,31.3313 -46.9969,63.832 -78.1649,97.6654z"
     id="path734" /></glyph>
   <glyph
   unicode="都"
   horiz-adv-x="1000"
   id="glyph736"><path
     d="M156.333 664l156.17 0 0 136.833 31.3274 -11.8345 0 -124.998 156.17 0 0 -31.1638 -156.17 0 0 -168.004 42.8347 0c57.3336,62.499 118.5,140.666 183.672,234.336l27.3307 -19.5008c-52.1682,-72.8376 -106.837,-144.499 -164,-214.836l171.829 0 0 -31.1638 -199.16 0c-57.3336,-54.8327 -129.003,-101.664 -215.007,-140.666l316.5 0 0 -347.671 -320.333 0 0 343.667c-10.3308,-2.5009 -25.9984,-7.6663 -46.8314,-15.4962 -23.4975,-7.8377 -40.3338,-14.3354 -50.836,-19.6644l-19.493 31.3274c109.33,31.1716 205.666,80.6675 288.998,148.503l-285.164 0 0 31.1638 238.333 0 0 168.004 -156.17 0 0 31.1638zm500 -749.996l0 828.163 245.999 0c20.833,2.66451 28.6707,-7.82991 23.4975,-31.1638 -20.833,-75.5021 -67.828,-180.999 -140.666,-316.5 98.9996,-57.3336 152.337,-149.672 160.166,-277.335 -12.9953,-85.8329 -66.4958,-124.998 -160.166,-117.168l-3.83315 27.3307c78.003,-5.1654 121.001,24.8376 128.839,89.8375 5.1654,101.664 -49.5037,192.662 -164.007,273.501 72.8376,140.666 121.001,244.831 144.507,312.495 5.1654,7.8377 3.83315,10.3386 -4.00455,7.8377l-199.168 0 0 -796.999 -31.1638 0zm-433.668 62.499l250.004 0 0 124.998 -250.004 0 0 -124.998zm0 285.164l0 -128.831 250.004 0 0 128.831 -250.004 0z"
     id="path738" /></glyph>
   <glyph
   unicode="化"
   horiz-adv-x="1000"
   id="glyph740"><path
     d="M50.8358 328.169c109.331,111.998 209.66,260.329 300.662,445.335l31.3313 -15.6703c-46.8257,-93.8365 -93.8273,-175.837 -140.662,-246.168l27.3304 -7.83515 0 -601.5 -31.1646 0 0 601.5c-62.4959,-83.3341 -117.166,-148.331 -164.168,-195.166l-23.3295 19.5045zm382.829 -101.672l-15.661 31.3406c18.1616,10.3265 24.6631,14.3274 19.4953,11.6601 62.4959,33.8319 110.665,60.0046 144.496,78.1662l0 433.665 31.3406 -7.82589 0 -406.335c101.496,70.3311 195.332,148.497 281.167,234.332l23.4962 -23.3295c-101.662,-101.672 -203.167,-185.006 -304.663,-250.002l0 -324.334c2.50058,-28.4973 20.8289,-42.834 54.6608,-42.834l152.332 0c57.3373,-5.33457 89.8356,41.6671 97.6708,140.495l31.1646 -7.65918c-10.3265,-117.333 -53.3272,-172.003 -128.835,-164.168l-152.332 0c-54.6608,2.66728 -83.3341,27.3304 -86.0014,74.1653l0 304.83c-51.9935,-26.1635 -101.496,-53.4939 -148.331,-82.1672z"
     id="path742" /></glyph>
   <glyph
   unicode="博"
   horiz-adv-x="1000"
   id="glyph744"><path
     d="M859.334 726.499l-23.3339 -19.5008c-2.66451,2.6723 -6.49765,7.8377 -11.8345,15.6676 -10.3308,15.6676 -28.6629,35.1684 -54.6691,58.6659l27.3385 19.5008c26.162,-26.162 46.995,-50.8282 62.499,-74.3335zm-793.002 -179.667l0 31.3352 121.165 0 0 203.165 35.1684 -7.82991 0 -195.335 121.165 0 0 -31.3352 -121.165 0 0 -644.499 -35.1684 0 0 644.499 -121.165 0zm320.333 97.6674l0 31.3352 246.171 0 0 113.164 31.1638 -7.6663 0 -105.497 304.837 0 0 -31.3352 -304.837 0 0 -105.497 214.836 0 0 -304.665 -35.0048 0 0 39.1651 -179.831 0 0 -66.5036 -31.1638 0 0 66.5036 -171.837 0 0 -31.3352 -35.1684 0 0 296.835 207.006 0 0 105.497 -246.171 0zm74.3335 -226.499l171.837 0 0 93.6628 -171.837 0 0 -93.6628zm382.832 0l0 93.6628 -179.831 0 0 -93.6628 179.831 0zm-382.832 -23.4975l0 -97.6674 171.837 0 0 97.6674 -171.837 0zm203.001 0l0 -97.6674 179.831 0 0 97.6674 -179.831 0zm89.8375 -406.166l0 113.164 -402.34 0 0 31.3352 402.34 0 0 66.3322 35.1606 -7.8377 0 -58.4945 172.001 0 0 -31.3352 -172.001 0 0 -117.168c2.6723,-54.6691 -44.1669,-77.9952 -140.494,-70.3289l-4.00455 31.3274c80.8311,-2.66451 117.168,11.6708 109.338,43.0061zm-179.667 7.82991l-15.504 -27.5021c-18.3321,13.1667 -42.9983,28.6707 -74.3335,47.0028 5.3368,-2.66451 2.66451,-1.33225 -7.82991,3.83315l19.6644 27.3307c23.3339,-15.4962 49.3323,-32.4961 78.003,-50.6646z"
     id="path746" /></glyph>
   <glyph
   unicode="i"
   horiz-adv-x="390"
   id="glyph748"><path
     d="M246.165 0l0 488.335 -152.331 0 0 39.0008 199.167 0 0 -527.336 -46.8364 0zm23.3377 734.331c31.3343,-2.49644 48.1651,-19.4964 50.8307,-50.6616 -2.66555,-33.9999 -19.4964,-52.1675 -50.8307,-54.833 -33.8388,2.66555 -52.0064,20.8332 -54.672,54.833 2.66555,31.1652 20.8332,48.1651 54.672,50.6616z"
     id="path750" /></glyph>
   <glyph
   unicode="迪"
   horiz-adv-x="1000"
   id="glyph752"><path
     d="M656.336 644.502l214.832 0 0 -550.67 -461.003 0 0 550.67 211.003 0 0 144.495 35.1683 -7.6638 0 -136.831zm-453.171 -585.832l0 320.162 -136.831 0 0 31.3331 172 0 0 -316.334c28.6666,-70.3301 96.3366,-112 202.997,-125.165 289.171,0.167868 450.673,5.33302 484.505,15.6633l7.83167 -31.1653c-26.168,-7.83167 -70.3301,-11.8347 -132.835,-11.8347 -28.6666,-2.49864 -69,-3.82867 -121.168,-3.82867 -41.6634,0 -120.994,0 -238.333,0 -88.4985,2.66651 -158.829,35.1683 -210.829,97.6666 -7.83167,-5.16516 -18.3363,-11.6668 -31.3331,-19.4985 -44.1685,-28.6666 -76.8381,-52.1681 -97.6666,-70.3365l-23.3336 27.3366c46.8351,28.6666 88.4985,57.3332 124.997,85.9998zm453.171 66.3335l179.663 0 0 230.495 -179.663 0 0 -230.495zm-215.006 230.495l0 -230.495 179.838 0 0 230.495 -179.838 0zm215.006 253.835l0 -218.667 179.663 0 0 218.667 -179.663 0zm-35.1683 0l-179.838 0 0 -218.667 179.838 0 0 218.667zm-355.498 -35.1683l-31.3396 -15.4955c-23.3271,64.997 -48.1651,119.664 -74.1652,164l31.1653 11.6603c15.6698,-28.6666 40.5013,-81.9968 74.3395,-160.165z"
     id="path754" /></glyph>
   <glyph
   unicode="G"
   horiz-adv-x="515"
   id="glyph756"><path
     d="M429.668 308.665l-175.832 0 0 39.0014 222.666 0 0 -355.499 -46.8334 0 0 109.331 -3.83377 0c-26.1673,-70.1651 -82.001,-106.665 -168,-109.331 -85.9993,0 -144.499,42.9997 -175.832,128.999 -18.1652,54.6655 -27.3355,126.169 -27.3355,214.834 0,140.5 17.0024,240.831 50.8317,300.669 33.8348,65.1631 88.5003,97.6652 164.002,97.6652 101.669,-2.501 158.835,-62.5031 171.834,-179.666l-46.8334 0c-5.16654,88.5003 -45.5007,135.498 -121.002,140.665 -59.9966,0 -104.164,-30.001 -132.833,-89.8331 -25.9972,-54.6655 -39.1659,-137.999 -39.1659,-250.001 0,-91.1659 9.17034,-164.167 27.3355,-218.832 23.4962,-72.8307 67.8342,-109.331 132.833,-109.331 109.501,5.16654 165.499,79.5 168,222.666l0 58.6638z"
     id="path758" /></glyph>
   <glyph
   unicode="上"
   horiz-adv-x="1000"
   id="glyph760"><path
     d="M464.832 773.501l35.1683 -7.83167 0 -336.006 351.502 0 0 -31.1653 -351.502 0 0 -394.663 433.666 0 0 -23.3336 -867.333 0 0 23.3336 398.498 0 0 769.666z"
     id="path762" /></glyph>
   <glyph
   unicode="克"
   horiz-adv-x="1000"
   id="glyph764"><path
     d="M523.498 535.168l-31.3274 0 0 117.168 -418 0 0 31.3274 418 0 0 117.168 31.3274 -11.8345 0 -105.334 417.837 0 0 -31.3274 -417.837 0 0 -117.168zm-418 -589.837c195.335,31.1716 296.835,122.334 304.673,273.501l-179.667 0 0 277.335 546.831 0 0 -277.335 -211.002 0 0 -218.832c0,-25.9984 16.9999,-39.0015 50.836,-39.0015l203.165 0c36.5006,-2.66451 63.8313,49.5037 81.9998,156.17l31.3352 -7.8377c-18.3321,-132.828 -56.0014,-192.662 -113.335,-179.667l-203.165 0c-57.3336,0 -85.8329,23.5053 -85.8329,70.3367l0 218.832 -86.0043 0c-10.4944,-172.001 -121.165,-274.834 -331.996,-308.662l-7.8377 35.1606zm640.666 304.673l0 214.828 -484.496 0 0 -214.828 484.496 0z"
     id="path766" /></glyph>
  </font>
</defs>
</svg>
