<svg preserveAspectRatio="none" width="100%" height="100%" overflow="visible" style="display: block;" viewBox="0 0 50 50" fill="none" xmlns="http://www.w3.org/2000/svg">
<g id="Frame">
<path id="Vector" d="M44.4714 34.6734L40.3194 32.6003L26.8888 39.3036L25 40.2494L23.1112 39.3036L9.68062 32.6003L5.52863 34.6734C4.82379 35.0254 4.82379 36.0317 5.52863 36.3891L24.5705 45.8969C24.8403 46.0344 25.1597 46.0344 25.4295 45.8969L44.4714 36.3891C45.1762 36.0317 45.1762 35.0254 44.4714 34.6734ZM5.52863 15.3224L24.5705 24.8302C24.7043 24.8954 24.8512 24.9292 25 24.9292C25.1488 24.9292 25.2957 24.8954 25.4295 24.8302L44.4714 15.3224C45.1762 14.9705 45.1762 13.9642 44.4714 13.6123L25.4295 4.09898C25.2957 4.03385 25.1488 4 25 4C24.8512 4 24.7043 4.03385 24.5705 4.09898L5.52863 13.6123C4.82379 13.9642 4.82379 14.9705 5.52863 15.3224Z" fill="var(--fill-0, white)"/>
<path id="Vector_2" d="M42.1582 24.2041L38.5742 22.4072L26.582 28.4033L24.9072 29.2432L23.2324 28.4033L11.2402 22.4072L7.65625 24.1992C7.02148 24.5166 7.02148 25.4199 7.65625 25.7324L24.5215 34.165C24.7607 34.2871 25.0488 34.2871 25.2881 34.165L42.1533 25.7324C42.793 25.4199 42.793 24.5166 42.1582 24.2041Z" fill="var(--fill-0, white)"/>
</g>
</svg>
