<svg preserveAspectRatio="none" width="100%" height="100%" overflow="visible" style="display: block;" viewBox="0 0 44 44" fill="none" xmlns="http://www.w3.org/2000/svg">
<g id="Frame">
<path id="Vector" d="M31.6721 20.8954C31.2274 18.8658 30.1126 17.0442 28.5065 15.7227C26.9067 14.3956 25.0135 14.1438 22.8178 13.3364H22.8088V10.0088L23.2329 9.89631L24.1635 9.55158C24.5214 9.43191 24.8435 9.3301 25.1781 9.25865C25.4121 9.19667 25.6521 9.15955 25.8939 9.14791C26.1999 9.14791 26.5864 9.19614 27.0392 9.29438C27.4973 9.4069 27.9876 9.52658 28.4886 9.66411C29.004 9.8195 29.4675 9.93917 29.9202 10.0392C30.3461 10.1392 30.704 10.1785 31.0011 10.1785C31.4735 10.1785 31.7133 10.1142 32.5239 9.96954V4.11813C31.7133 4.31103 31.5701 4.41641 30.9993 4.41641C30.7022 4.41641 30.3372 4.37176 29.9077 4.2628C29.4603 4.17707 28.9968 4.04311 28.4779 3.89307C28.0162 3.75554 27.5474 3.63408 27.0767 3.53406C26.7391 3.44005 26.3911 3.38786 26.0406 3.37866C25.0081 3.37866 23.6195 3.62158 22.8088 4.07169V3H21.1912V13.3364H21.1411C18.9615 14.1438 17.0539 14.442 15.4559 15.7692C13.8328 17.1338 12.7806 18.8002 12.2832 20.8275C12.2832 20.8275 10.7317 20.6078 10.7317 22.2243H33.3739C33.3739 20.6078 31.6739 20.8954 31.6739 20.8954H31.6721ZM39 25.6269V40H26.8584V36.7671H16.3327V40H5V25.6269H39Z" fill="var(--fill-0, white)"/>
</g>
</svg>
