<svg preserveAspectRatio="none" width="100%" height="100%" overflow="visible" style="display: block;" viewBox="0 0 50 50" fill="none" xmlns="http://www.w3.org/2000/svg">
<g id="Frame">
<path id="Union" d="M12.0176 19.1416C15.9148 19.1418 19.0056 22.1729 19.0059 25.9951V27.9072L24.6504 32.916L31.0342 27.8408V25.9951C31.0344 22.2387 34.1933 19.1416 38.0234 19.1416H38.6953C42.4581 19.1418 45.6164 22.1729 45.415 25.9951V43.1309C45.415 44.5149 44.2725 45.6357 42.8613 45.6357H33.4531C32.0421 45.6355 30.9004 44.5148 30.9004 43.1309V31.5977L25.457 36.0137C25.1884 36.1454 24.9195 36.2772 24.5166 36.2773C24.1807 36.2773 23.7768 36.0795 23.5752 35.8818L19.0059 31.7949V43.1309C19.0059 44.5149 17.8633 45.6357 16.4521 45.6357H7.04492C5.63376 45.6357 4.42383 44.5149 4.42383 43.1309V25.9951C4.42407 22.2387 7.58274 19.1416 11.3457 19.1416H12.0176ZM11.748 4.44434C15.3768 4.44434 18.2666 7.27849 18.2666 10.9033C18.2666 14.4622 15.3767 17.2959 11.748 17.2959C8.18671 17.2957 5.16327 14.3957 5.23047 10.8369C5.2307 7.27832 8.18685 4.44455 11.748 4.44434ZM38.292 4.51074C41.9206 4.51087 44.8096 7.34447 44.8096 10.9033C44.8095 14.4621 41.9205 17.2958 38.292 17.2959C34.6633 17.2959 31.7734 14.3958 31.7734 10.8369C31.7736 7.27815 34.6634 4.44484 38.292 4.51074Z" fill="var(--fill-0, white)"/>
</g>
</svg>
