<svg preserveAspectRatio="none" width="100%" height="100%" overflow="visible" style="display: block;" viewBox="0 0 44 44" fill="none" xmlns="http://www.w3.org/2000/svg">
<g id="Frame">
<path id="Vector" d="M37.4286 9.74109H34.8571C34.8571 6.74447 32.5429 4.29268 29.7143 4.29268H14.2857C11.4571 4.29268 9.14286 6.74447 9.14286 9.74109H6.57143C5.13143 9.74109 4 10.9397 4 12.4653V17.9137C4 20.9103 6.31429 23.3621 9.14286 23.3621H10.2229C11.8686 27.3939 15.2629 30.3905 19.4286 31.2623V34.2589H16.8571C15.16 34.2589 14.2857 35.1851 14.2857 36.9831C14.2857 38.7811 15.16 39.7073 16.8571 39.7073H27.1429C28.84 39.7073 29.7143 38.7811 29.7143 36.9831C29.7143 35.1851 28.84 34.2589 27.1429 34.2589H24.5714V31.2623C28.7371 30.3905 32.1314 27.3394 33.7771 23.3621H34.8571C37.6857 23.3621 40 20.9103 40 17.9137V12.4653C40 10.9942 38.8686 9.74109 37.4286 9.74109ZM18.6571 16.8785C18.2971 16.8785 17.9886 16.715 17.7314 16.4971C17.2171 15.9523 17.2171 15.0805 17.7314 14.5902L21.3829 10.7218C21.64 10.4494 21.9486 10.3404 22.3086 10.3404C22.6686 10.3404 22.9771 10.5039 23.2343 10.7218C23.7486 11.2666 23.7486 12.1384 23.2343 12.6287L19.5829 16.4971C19.3257 16.7695 19.0171 16.8785 18.6571 16.8785ZM27.6057 18.0771L22.1543 23.9069C21.8971 24.1794 21.5886 24.2883 21.2286 24.2883C20.8686 24.2883 20.56 24.1249 20.3029 23.9069C19.7886 23.3621 19.7886 22.4904 20.3029 22L25.7543 16.2247C26.0114 15.9523 26.32 15.8433 26.68 15.8433C27.04 15.8433 27.3486 16.0068 27.6057 16.2247C28.12 16.715 28.12 17.5868 27.6057 18.0771Z" fill="var(--fill-0, white)"/>
</g>
</svg>
