<svg preserveAspectRatio="none" width="100%" height="100%" overflow="visible" style="display: block;" viewBox="0 0 40 40" fill="none" xmlns="http://www.w3.org/2000/svg">
<g id="Frame">
<path id="Vector" d="M35.2594 33.5006V18.2506C35.2595 18.0613 35.2222 17.8738 35.1498 17.6989C35.0775 17.524 34.9713 17.365 34.8375 17.2311C34.7036 17.0972 34.5447 16.991 34.3698 16.9185C34.1949 16.846 34.0074 16.8087 33.8181 16.8087H26.975V12.6587C26.9749 12.4663 26.9235 12.2774 26.8261 12.1115C26.7286 11.9456 26.5886 11.8088 26.4206 11.715L20.8637 8.61625C20.8333 8.59929 20.802 8.58385 20.77 8.57V6.80125H23.7619C24.0006 6.80125 24.1944 6.60813 24.1944 6.36938V4.185C24.1942 4.0704 24.1486 3.96055 24.0675 3.87958C23.9864 3.79861 23.8765 3.75313 23.7619 3.75313H20.7687V3.5575C20.771 3.49936 20.7614 3.44137 20.7407 3.38701C20.72 3.33265 20.6885 3.28302 20.6481 3.24111C20.6078 3.19919 20.5594 3.16585 20.5059 3.14307C20.4523 3.1203 20.3947 3.10856 20.3366 3.10856C20.2784 3.10856 20.2208 3.1203 20.1673 3.14307C20.1137 3.16585 20.0653 3.19919 20.025 3.24111C19.9846 3.28302 19.9532 3.33265 19.9324 3.38701C19.9117 3.44137 19.9022 3.49936 19.9044 3.5575V8.57C19.8725 8.58437 19.8406 8.59938 19.8106 8.61625L14.2531 11.7156C14.0851 11.8093 13.9451 11.9462 13.8476 12.1121C13.7502 12.278 13.6988 12.467 13.6987 12.6594V16.8087H6.855C6.66568 16.8087 6.4782 16.8459 6.30327 16.9183C6.12833 16.9907 5.96938 17.0968 5.83548 17.2307C5.70158 17.3645 5.59536 17.5234 5.52289 17.6983C5.45042 17.8732 5.41312 18.0607 5.41312 18.25V33.5006C5.04476 33.6665 4.74444 33.9537 4.56232 34.3143C4.38019 34.6749 4.32729 35.0871 4.41243 35.482C4.49757 35.8769 4.7156 36.2306 5.03013 36.4842C5.34466 36.7377 5.73664 36.8757 6.14062 36.875H34.5325C34.9361 36.8748 35.3274 36.7364 35.6413 36.4828C35.9553 36.2292 36.1729 35.8757 36.2578 35.4812C36.3428 35.0867 36.2901 34.6749 36.1084 34.3146C35.9267 33.9542 35.6271 33.6669 35.2594 33.5006ZM29.6887 21.8319C29.6887 21.3687 30.0644 20.9925 30.5288 20.9925H32.0981C32.5619 20.9925 32.9375 21.3687 32.9375 21.8325V23.4025C32.9375 23.8656 32.5619 24.2419 32.0981 24.2419H30.5288C30.4185 24.242 30.3093 24.2203 30.2073 24.1782C30.1054 24.136 30.0128 24.0742 29.9348 23.9962C29.8568 23.9183 29.7949 23.8257 29.7527 23.7239C29.7105 23.622 29.6887 23.5128 29.6887 23.4025V21.8325V21.8319ZM29.6887 26.8769C29.6887 26.4131 30.0644 26.0369 30.5288 26.0369H32.0981C32.5619 26.0369 32.9375 26.4131 32.9375 26.8763V28.4463C32.9375 28.91 32.5619 29.2856 32.0981 29.2856H30.5288C30.4185 29.2857 30.3093 29.2641 30.2073 29.2219C30.1054 29.1798 30.0128 29.118 29.9348 29.04C29.8568 28.962 29.7949 28.8695 29.7527 28.7676C29.7105 28.6657 29.6887 28.5565 29.6887 28.4463V26.8763V26.8769ZM24.645 21.8325C24.645 21.3687 25.02 20.9925 25.4837 20.9925H27.0538C27.5175 20.9925 27.8931 21.3687 27.8931 21.8325V23.4025C27.8931 23.8656 27.5175 24.2419 27.0538 24.2419H25.4837C25.2611 24.2419 25.0476 24.1534 24.8902 23.996C24.7328 23.8386 24.6444 23.6251 24.6444 23.4025V21.8325H24.645ZM24.645 26.8763C24.645 26.4131 25.02 26.0369 25.4837 26.0369H27.0538C27.5175 26.0369 27.8931 26.4131 27.8931 26.8763V28.4463C27.8931 28.91 27.5175 29.2856 27.0538 29.2856H25.4837C25.2611 29.2856 25.0476 29.1972 24.8902 29.0398C24.7328 28.8824 24.6444 28.6689 24.6444 28.4463V26.8763H24.645ZM20.3356 12.6625C20.9663 12.6625 21.5712 12.9131 22.0172 13.359C22.4632 13.805 22.7137 14.4099 22.7137 15.0406C22.7137 15.6713 22.4632 16.2762 22.0172 16.7222C21.5712 17.1682 20.9663 17.4188 20.3356 17.4188C19.7049 17.4188 19.1 17.1682 18.654 16.7222C18.2081 16.2762 17.9575 15.6713 17.9575 15.0406C17.9575 14.4099 18.2081 13.805 18.654 13.359C19.1 12.9131 19.7049 12.6625 20.3356 12.6625ZM17.9544 26.3144C17.9544 25.8506 18.33 25.475 18.7944 25.475H21.8775C22.3413 25.475 22.7169 25.8506 22.7169 26.3144V32.9288C22.7169 33.08 22.6762 33.2219 22.6062 33.3444H18.0656C17.993 33.2179 17.9549 33.0746 17.955 32.9288V26.3144H17.9544ZM12.7787 21.8325C12.7787 21.3687 13.1544 20.9925 13.6181 20.9925H15.1881C15.6519 20.9925 16.0275 21.3687 16.0275 21.8325V23.4025C16.0275 23.8656 15.6519 24.2419 15.1881 24.2419H13.6188C13.3961 24.2419 13.1826 24.1534 13.0252 23.996C12.8678 23.8386 12.7794 23.6251 12.7794 23.4025V21.8325H12.7787ZM12.7787 26.8763C12.7787 26.4131 13.1544 26.0369 13.6181 26.0369H15.1881C15.6519 26.0369 16.0275 26.4131 16.0275 26.8763V28.4463C16.0275 28.91 15.6519 29.2856 15.1881 29.2856H13.6188C13.3961 29.2856 13.1826 29.1972 13.0252 29.0398C12.8678 28.8824 12.7794 28.6689 12.7794 28.4463V26.8763H12.7787ZM7.73437 21.8325C7.73437 21.3687 8.10938 20.9925 8.57375 20.9925H10.1437C10.6075 20.9925 10.9831 21.3687 10.9831 21.8325V23.4025C10.9831 23.8656 10.6075 24.2419 10.1437 24.2419H8.57375C8.35113 24.2419 8.13764 24.1534 7.98022 23.996C7.82281 23.8386 7.73437 23.6251 7.73437 23.4025V21.8325ZM7.73437 26.8763C7.73437 26.4131 8.10938 26.0369 8.57375 26.0369H10.1437C10.6075 26.0369 10.9831 26.4131 10.9831 26.8763V28.4463C10.9831 28.91 10.6075 29.2856 10.1437 29.2856H8.57375C8.35113 29.2856 8.13764 29.1972 7.98022 29.0398C7.82281 28.8824 7.73437 28.6689 7.73437 28.4463V26.8763Z" fill="var(--fill-0, white)"/>
</g>
</svg>
