<svg preserveAspectRatio="none" width="100%" height="100%" overflow="visible" style="display: block;" viewBox="0 0 50 50" fill="none" xmlns="http://www.w3.org/2000/svg">
<g id="Frame">
<path id="Union" d="M25.223 12.7588C34.8168 12.7588 42.7322 20.1352 42.972 29.3555C42.9719 38.3451 35.0565 45.7217 25.223 45.7217C15.3896 45.7216 7.47513 38.1146 7.47495 29.125C7.47495 20.1353 15.3895 12.7589 25.223 12.7588ZM26.183 22.4404C25.4634 21.2879 24.5035 21.2879 24.0238 22.4404L22.3451 25.667L18.5072 26.1279C17.0687 26.1281 16.829 27.0498 17.5482 27.9717L20.4261 30.5078L19.7064 34.1963C19.4669 35.3485 20.187 35.8096 21.3861 35.3486L24.9837 33.7344L28.5814 35.3486C29.7803 36.0397 30.4997 35.3485 30.2601 34.1963L29.5404 30.5078L32.4183 27.9717C33.3776 27.0497 33.1376 26.1279 31.6986 26.1279L27.8617 25.667L26.183 22.4404ZM18.0277 4.23047C18.7472 4.23047 19.2277 4.46086 19.7074 4.92188L23.5443 9.30078C23.7841 9.53127 23.5449 9.99311 23.305 10.2236C23.0652 10.4541 23.0644 10.4541 22.8246 10.4541C20.6658 10.6847 16.3486 11.6062 13.2308 13.9111C12.7511 14.3721 12.2714 14.1416 12.0316 13.9111L7.23471 6.99609C6.51545 5.8437 7.4747 4.23083 8.91342 4.23047H18.0277ZM41.0531 4C42.7318 4.00005 43.451 5.61312 42.7318 6.76562L38.1751 13.6816C37.9353 14.1424 37.4555 14.1424 36.9759 13.9121C33.8581 11.6071 29.5409 10.6847 27.3822 10.4541C27.1423 10.4541 26.6624 10.2237 26.6624 9.7627C26.6624 9.53683 26.8924 9.31076 26.9017 9.30176L30.2601 4.69141C30.7397 4.23048 31.2194 4.00002 31.9388 4H41.0531Z" fill="var(--fill-0, white)"/>
</g>
</svg>
