<svg preserveAspectRatio="none" width="100%" height="100%" overflow="visible" style="display: block;" viewBox="0 0 8 16" fill="none" xmlns="http://www.w3.org/2000/svg">
<path id="Vector" d="M0.304829 15.6657C0.11764 15.4515 0.0124837 15.1612 0.0124837 14.8584C0.0124837 14.5556 0.11764 14.2652 0.304829 14.0511L5.58985 8.00714L0.304829 1.96321C0.209462 1.85787 0.133395 1.73187 0.0810647 1.59256C0.0287346 1.45325 0.00118982 1.30341 3.77023e-05 1.1518C-0.00111441 1.00018 0.0241492 0.849817 0.0743543 0.709485C0.124559 0.569153 0.198701 0.44166 0.292452 0.334447C0.386203 0.227233 0.497687 0.142446 0.620398 0.0850313C0.743109 0.0276169 0.87459 -0.00127444 1.00717 4.31164e-05C1.13975 0.00136068 1.27077 0.0328608 1.39259 0.0927053C1.51441 0.15255 1.62459 0.23954 1.7167 0.348601L7.70765 7.19983C7.89484 7.41397 8 7.70435 8 8.00714C8 8.30992 7.89484 8.60031 7.70765 8.81444L1.7167 15.6657C1.52945 15.8797 1.27553 16 1.01076 16C0.745998 16 0.492074 15.8797 0.304829 15.6657Z" fill="var(--fill-0, #1A8E85)"/>
</svg>
