<svg preserveAspectRatio="none" width="100%" height="100%" overflow="visible" style="display: block;" viewBox="0 0 44 44" fill="none" xmlns="http://www.w3.org/2000/svg">
<g id="Frame">
<path id="Union" d="M10.5752 16.8447C14.0049 16.8447 16.7255 19.5122 16.7256 22.876V24.5576L21.6924 28.9658L27.3105 24.5V22.876C27.3106 19.5703 30.0894 16.8449 33.46 16.8447H34.0518C37.3632 16.8448 40.1422 19.5122 39.9648 22.876V37.9551C39.9648 39.173 38.9596 40.1592 37.7178 40.1592H29.4395C28.1976 40.1592 27.1924 39.173 27.1924 37.9551V27.8057L22.4023 31.6914C22.1658 31.8074 21.929 31.9238 21.5742 31.9238C21.2785 31.9238 20.9235 31.7492 20.7461 31.5752L16.7256 27.9795V37.9551C16.7256 39.1729 15.7201 40.1589 14.4785 40.1592H6.19922C4.95739 40.1592 3.89258 39.173 3.89258 37.9551V22.876C3.89264 19.5703 6.67209 16.845 9.9834 16.8447H10.5752ZM10.3389 3.91113C13.532 3.91125 16.0742 6.40501 16.0742 9.59473C16.0742 12.7265 13.532 15.2206 10.3389 15.2207C7.20482 15.2207 4.54356 12.6688 4.60254 9.53711C4.60254 6.40525 7.20474 3.91113 10.3389 3.91113ZM33.6963 3.96875C36.8895 3.96875 39.4326 6.4629 39.4326 9.59473C39.4326 12.7266 36.8896 15.2207 33.6963 15.2207C30.5033 15.2205 27.9611 12.6687 27.9609 9.53711C27.9609 6.4054 30.5032 3.911 33.6963 3.96875Z" fill="var(--fill-0, white)"/>
</g>
</svg>
