<svg preserveAspectRatio="none" width="100%" height="100%" overflow="visible" style="display: block;" viewBox="0 0 50 50" fill="none" xmlns="http://www.w3.org/2000/svg">
<g id="Frame">
<path id="Vector" d="M44.1724 15.9348C44.7445 15.9324 45.3031 15.7603 45.7776 15.44C46.2522 15.1198 46.6215 14.6658 46.8388 14.1354C47.0562 13.6049 47.1118 13.0218 46.9988 12.4597C46.8858 11.8976 46.6091 11.3816 46.2038 10.9769C45.7984 10.5723 45.2826 10.2971 44.7213 10.186C44.16 10.075 43.5785 10.1331 43.0501 10.3531C42.5218 10.5731 42.0703 10.945 41.7527 11.422C41.4351 11.8989 41.2656 12.4595 41.2656 13.0329V13.0562C41.2656 14.6455 42.5518 15.9348 44.1375 15.9348H44.1738H44.1724ZM27.7899 15.6667H27.8248C29.4167 15.6668 30.9441 15.0363 32.0744 13.9127C33.2046 12.7891 33.8462 11.2634 33.8592 9.66785V9.66493V9.58336C33.8592 8.38018 33.5032 7.20403 32.8363 6.20363C32.1694 5.20322 31.2215 4.42351 30.1125 3.96307C29.0035 3.50264 27.7831 3.38217 26.6058 3.61689C25.4285 3.85162 24.347 4.431 23.4982 5.28178C22.6494 6.13255 22.0714 7.2165 21.8372 8.39655C21.603 9.57661 21.7232 10.7998 22.1826 11.9114C22.6419 13.0229 23.4199 13.973 24.418 14.6415C25.416 15.3099 26.5895 15.6667 27.7899 15.6667ZM7.024 15.0957H7.07051C7.82708 15.0957 8.56666 14.8708 9.19573 14.4495C9.8248 14.0282 10.3151 13.4294 10.6046 12.7288C10.8941 12.0282 10.9699 11.2573 10.8223 10.5135C10.6747 9.76977 10.3104 9.08659 9.7754 8.55037C9.24043 8.01416 8.55882 7.64899 7.81679 7.50105C7.07476 7.35311 6.30562 7.42904 5.60664 7.71924C4.90766 8.00943 4.31023 8.50086 3.8899 9.13139C3.46957 9.76191 3.24522 10.5032 3.24522 11.2615V11.2848C3.2452 12.2913 3.64238 13.2568 4.35006 13.9708C5.05775 14.6847 6.01848 15.0891 7.02255 15.0957H7.024ZM45.9862 28.7774C46.5792 27.309 48.3116 22.7173 47.9511 18.8715C47.9511 18.8715 47.4163 16.902 44.2072 16.902C40.9982 16.902 40.4052 18.8715 40.4052 18.8715C40.1029 22.7173 41.7888 27.3206 42.4283 28.7774C42.1355 28.8382 41.8503 28.9315 41.5781 29.0556L41.6028 29.0454L35.3009 29.6514C35.6425 27.9135 35.8387 25.9149 35.8387 23.8711C35.8387 23.1209 35.8125 22.3765 35.7602 21.6393L35.766 21.7384C35.766 21.7384 34.6033 17.6828 27.848 17.6828C21.0927 17.6828 19.7905 21.7384 19.7905 21.7384C19.6015 24.9149 19.8584 28.1023 20.5535 31.2072L20.5114 30.9814L10.5005 31.8788L9.53544 31.7622C10.4075 29.5363 12.3841 23.8376 12.0004 19.0128C12.0004 19.0128 11.2911 16.4257 7.07051 16.4257C2.8499 16.4257 2.04764 18.9546 2.04764 18.9546C1.66394 23.8259 3.69867 29.6529 4.54745 31.7739C3.03593 31.9604 2.03601 32.2983 2.03601 32.6713C2.03601 33.0442 3.60566 33.5453 5.77991 33.6851L23.8367 41.8429C23.8367 41.9128 23.8367 41.9827 23.9181 42.041C20.43 42.2275 18.0115 42.6936 18.0115 43.2064C18.0115 43.7192 22.6624 44.5 27.7899 44.5C32.9174 44.5 36.452 43.9173 36.452 43.2064C36.452 42.7169 34.4987 42.2858 31.6268 42.041C32.9654 38.8901 34.147 35.1535 34.9812 31.2874L35.0568 30.8649L42.4283 30.3754C42.9283 30.4716 43.5024 30.5269 44.091 30.5269H44.1288H44.1273C45.8714 30.5269 47.2782 30.0957 47.2782 29.5713C47.2782 29.245 46.755 28.9537 45.9411 28.7788L45.9862 28.7774ZM9.3029 33.6604C11.2911 33.5089 12.698 33.1243 12.698 32.6698C12.7141 32.6241 12.7141 32.5742 12.698 32.5285V32.53L20.8369 31.9473C21.459 34.7151 22.1435 37.0269 22.9574 39.2747L22.8251 38.858L9.3029 33.6604Z" fill="var(--fill-0, white)"/>
</g>
</svg>
