<svg preserveAspectRatio="none" width="100%" height="100%" overflow="visible" style="display: block;" viewBox="0 0 40 40" fill="none" xmlns="http://www.w3.org/2000/svg">
<g id="Frame">
<path id="Union" d="M30.2298 28.4203C27.7098 30.0033 24.0416 31.0013 19.9593 31.0013C15.8783 31.0013 12.2119 30.0033 9.6907 28.4203V20.8499L18.9182 23.8246C19.687 24.0726 20.2389 24.0714 21.0052 23.8246L30.2298 20.8499V28.4203ZM18.9554 9.18686C19.728 8.93752 20.272 8.9376 21.0432 9.18686L37.5149 14.4994C38.2864 14.7475 38.2774 16.3407 37.5149 16.5863L21.0452 21.9007C20.2789 22.1488 19.7252 22.1488 18.9563 21.9007L7.15164 18.0931C6.46463 19.1425 6.24326 19.5112 6.23953 20.9281C6.63087 21.2008 6.88308 21.6298 6.88308 22.1117C6.88301 22.5573 6.66578 22.9579 6.32351 23.2318C6.45762 25.405 6.86041 27.5531 7.52273 29.6273C7.79484 30.6876 7.14983 30.8818 7.13504 30.8861C7.13504 30.8861 3.87699 30.9119 3.27859 30.8861C2.68425 30.8579 2.9343 29.6198 2.93875 29.598C3.40785 28.0912 3.79804 25.7271 4.13016 23.2162C3.96429 23.0835 3.82956 22.9159 3.7366 22.7249C3.64365 22.5339 3.59507 22.3241 3.59305 22.1117C3.59305 21.5536 3.9285 21.0665 4.43094 20.8119L4.44461 20.7015C4.689 18.6322 5.20816 17.8671 5.57254 17.5843L2.48367 16.5882C1.71741 16.34 1.70964 14.7488 2.48367 14.4994L18.9554 9.18686Z" fill="var(--fill-0, #1A8E85)"/>
</g>
</svg>
