<svg preserveAspectRatio="none" width="100%" height="100%" overflow="visible" style="display: block;" viewBox="0 0 44 44" fill="none" xmlns="http://www.w3.org/2000/svg">
<g id="Frame">
<path id="Union" d="M32.9873 5.5C36.0153 5.50012 38.4998 7.72385 38.5 10.5215V33.4785C38.4998 36.2761 36.0153 38.4999 32.9873 38.5H11.0127C7.98467 38.4999 5.50015 36.2044 5.5 33.4785V10.5215C5.50015 7.72386 7.98467 5.50013 11.0127 5.5H32.9873ZM13.2646 28.5996C12.5659 28.5996 12.0225 29.1024 12.0225 29.748C12.0226 30.3936 12.5659 30.8955 13.2646 30.8955H31.123C31.851 30.8955 32.3744 30.4543 32.373 29.8672L32.3594 29.6289C32.2973 29.0416 31.7783 28.5996 31.123 28.5996H13.2646ZM13.2646 21.0674C12.566 21.0674 12.0227 21.5694 12.0225 22.2148C12.0225 22.8605 12.5659 23.3632 13.2646 23.3633H31.123C31.8995 23.3633 32.4439 22.8605 32.3662 22.2148C32.366 21.5694 31.8217 21.0674 31.123 21.0674H13.2646ZM13.2646 13.4629C12.5659 13.4629 11.9448 13.9657 12.0225 14.6113C12.0227 15.2567 12.566 15.7588 13.2646 15.7588H22.7373C23.436 15.7588 23.9802 15.2568 23.9805 14.6113C23.9805 13.9657 23.4361 13.4629 22.7373 13.4629H13.2646Z" fill="var(--fill-0, white)"/>
</g>
</svg>
