<svg preserveAspectRatio="none" width="100%" height="100%" overflow="visible" style="display: block;" viewBox="0 0 44 44" fill="none" xmlns="http://www.w3.org/2000/svg">
<g id="Frame">
<path id="Union" d="M30.8017 23.9132C32.4312 23.7807 34.0985 24.157 35.5078 24.9874C37.1791 25.9612 38.4794 27.5559 39.0859 29.3937C39.7061 31.2436 39.6236 33.3195 38.8506 35.1115C38.2417 36.5381 37.2087 37.7788 35.9189 38.6398C34.5876 39.5354 32.9824 40.0145 31.3779 39.9962C29.4515 39.9903 27.5402 39.2544 26.1035 37.9718C25.0856 37.0713 24.3003 35.9101 23.8486 34.6281C23.297 33.075 23.2421 31.3513 23.6875 29.7648C24.0831 28.3455 24.8815 27.0422 25.9619 26.0411C27.275 24.8148 29.0094 24.0482 30.8017 23.9132ZM23.4678 27.1818C22.643 28.5606 22.1876 30.1568 22.1631 31.7628C22.132 33.2789 22.4813 34.8013 23.1738 36.1505C23.6757 37.1344 24.3585 38.0244 25.1709 38.7726C19.744 38.7745 14.3166 38.7722 8.88964 38.7726C8.59101 38.7695 8.29198 38.7817 7.99413 38.7618C7.18531 38.7089 6.39044 38.405 5.76757 37.8829C5.16025 37.3799 4.72185 36.6687 4.57323 35.8917C4.49545 35.5199 4.51638 35.1382 4.51366 34.7609V31.337C4.51833 30.8558 4.48371 30.3652 4.61132 29.8956C4.81487 29.0613 5.35417 28.3241 6.06444 27.8468C6.71961 27.4009 7.51548 27.1767 8.30566 27.1818H23.4678ZM33.9043 27.8038C32.6298 27.1228 31.0508 27.0519 29.7207 27.6163C28.4053 28.1598 27.3583 29.3068 26.9365 30.6661C26.4818 32.0799 26.7212 33.6917 27.5654 34.9132C27.19 35.2898 26.8117 35.6644 26.4375 36.0421C26.2659 36.2145 26.1841 36.4687 26.2187 36.7091C26.2577 37.0148 26.4923 37.2839 26.7891 37.3663C27.067 37.4493 27.3847 37.3638 27.585 37.1544C27.9448 36.7922 28.3098 36.4334 28.667 36.0685C29.0903 36.3727 29.552 36.6287 30.0488 36.7921C31.1777 37.1744 32.4473 37.1262 33.542 36.6525C34.6666 36.1759 35.5953 35.2599 36.0918 34.1447C36.601 33.0138 36.6551 31.6864 36.2412 30.5177C35.8409 29.3614 34.9851 28.3742 33.9043 27.8038ZM31.4238 29.2052C32.0367 29.1648 32.6609 29.3208 33.1797 29.6505C33.7636 30.0162 34.2117 30.5937 34.418 31.2511C34.6456 31.9646 34.5885 32.7661 34.2559 33.4376C33.9975 33.9658 33.5759 34.4121 33.0644 34.7023C32.5439 34.9994 31.9313 35.1296 31.335 35.0724C30.7623 35.0199 30.2075 34.7928 29.7617 34.4298C29.238 34.0069 28.8657 33.3996 28.7314 32.7394C28.5767 31.9999 28.7198 31.203 29.1279 30.5665C29.6193 29.7818 30.4986 29.2569 31.4238 29.2052ZM16.5068 4.48841C17.7736 3.97875 19.1933 3.87002 20.5273 4.15247C21.6513 4.3902 22.7123 4.9222 23.5693 5.68665C24.6268 6.61922 25.367 7.9012 25.6553 9.2804C25.8494 10.1343 25.823 11.0166 25.7725 11.8849C25.7048 12.8637 25.5487 13.8465 25.2002 14.7677C24.9228 15.5221 24.4861 16.2064 23.9951 16.839C23.8967 16.9522 23.8703 17.1032 23.8135 17.2374C23.7014 17.5323 23.5509 17.8121 23.4521 18.1124C23.3472 18.4263 23.3832 18.7631 23.4228 19.0851C23.5287 19.8312 23.7624 20.5519 24.0195 21.2579C24.4393 22.3722 24.9386 23.4592 25.54 24.4874C21.227 24.4878 16.9136 24.4874 12.6006 24.4874C13.0079 23.6712 13.4134 22.8533 13.7744 22.0158C14.1105 21.231 14.4244 20.4308 14.6201 19.5978C14.7484 19.0288 14.8301 18.4228 14.6641 17.8527C14.5598 17.5206 14.3672 17.226 14.2031 16.922C13.7767 16.3571 13.3645 15.7715 13.084 15.1183C12.4885 13.7626 12.3406 12.2608 12.332 10.795C12.3188 9.48199 12.683 8.1615 13.3984 7.05774C14.1322 5.90429 15.239 4.99611 16.5068 4.48841Z" fill="var(--fill-0, white)"/>
</g>
</svg>
