<svg preserveAspectRatio="none" width="100%" height="100%" overflow="visible" style="display: block;" viewBox="0 0 40 40" fill="none" xmlns="http://www.w3.org/2000/svg">
<g id="Frame">
<path id="Vector" d="M19.5289 4.107C19.8414 3.95452 20.2294 3.96484 20.5318 4.13904C25.4691 7.10375 30.4075 10.067 35.3448 13.0313C35.6199 13.2022 35.8444 13.4685 35.9407 13.7863C36.0682 14.215 35.9895 14.7111 35.7101 15.0606C35.4708 15.3637 35.0922 15.5357 34.7136 15.5361C34.0441 15.5401 33.3742 15.5361 32.7042 15.5379C32.7039 20.8011 32.7039 26.0639 32.7042 31.3271C32.9683 31.3275 33.2323 31.3271 33.4963 31.3275C33.8214 31.3308 34.1533 31.3032 34.4697 31.3986C35.1641 31.5846 35.7331 32.1812 35.8979 32.8971C35.982 33.2231 35.949 33.5626 35.9561 33.8959C35.9673 34.4093 35.7834 34.9238 35.4489 35.3065C35.079 35.7377 34.5272 35.9978 33.9665 35.9996C24.663 36 15.3596 35.9996 6.05614 36C5.54427 36.0033 5.03599 35.7937 4.66709 35.4302C4.27052 35.0465 4.03883 34.4915 4.0435 33.932C4.05069 33.5895 4.01584 33.2407 4.09954 32.9049C4.22813 32.3473 4.59704 31.8556 5.08736 31.5816C5.38155 31.4151 5.71776 31.3271 6.05398 31.3275C6.45773 31.3268 6.86184 31.3279 7.26595 31.3271C7.26523 26.0639 7.26702 20.8004 7.26487 15.5372C6.64631 15.5383 6.02776 15.5372 5.40921 15.5379C4.96128 15.5655 4.49215 15.3736 4.23496 14.9866C3.99609 14.6367 3.93826 14.169 4.06649 13.765C4.16599 13.4516 4.39265 13.1919 4.66601 13.0247L19.0285 4.40347C19.1963 4.30624 19.3579 4.19796 19.5289 4.107ZM19.8037 11.0522C19.6625 11.163 19.586 11.3321 19.5109 11.4919C19.0925 12.3655 18.6693 13.2368 18.2523 14.1112C17.2519 14.2651 16.2501 14.4084 15.2497 14.5605C14.9702 14.5977 14.7195 14.7999 14.6239 15.0724C14.5137 15.3637 14.593 15.7143 14.814 15.9287C15.537 16.6516 16.2619 17.3727 16.985 18.096C16.8252 19.0528 16.6657 20.0097 16.5055 20.9661C16.4796 21.1241 16.4415 21.2854 16.4735 21.4456C16.5234 21.7476 16.7573 22.0061 17.0482 22.0776C17.2404 22.1284 17.4491 22.0989 17.6226 22.0006C18.5116 21.5204 19.4014 21.0423 20.2904 20.5621C21.1927 21.046 22.0933 21.5347 22.9952 22.0194C23.2388 22.1476 23.5477 22.1332 23.7754 21.9756C24.0377 21.8039 24.1763 21.4614 24.112 21.1495C23.9421 20.1323 23.7718 19.1155 23.6019 18.0986C24.3207 17.3797 25.0402 16.6612 25.759 15.9427C25.921 15.7876 26.0155 15.5618 26.0083 15.3342C26.0032 15.0367 25.82 14.7505 25.5542 14.6297C25.4228 14.566 25.2762 14.5553 25.1343 14.5336C24.2 14.3944 23.2657 14.2555 22.3314 14.1163C21.8921 13.2037 21.4521 12.2914 21.0139 11.3785C20.9424 11.2172 20.8303 11.0709 20.6776 10.9837C20.4086 10.8201 20.0458 10.8492 19.8037 11.0522ZM11.8491 26.8778C11.5639 26.9511 11.3383 27.22 11.3167 27.5216C11.3077 27.7153 11.2952 27.9223 11.3825 28.1017C11.4999 28.3617 11.7751 28.5329 12.0545 28.5211C17.2752 28.5208 22.4963 28.5211 27.717 28.5211C27.837 28.5197 27.9577 28.5274 28.0773 28.5119C28.3226 28.477 28.5414 28.298 28.6326 28.0623C28.6987 27.9043 28.6869 27.7279 28.6836 27.5599C28.6783 27.2789 28.4954 27.0145 28.2418 26.9099C28.0874 26.8403 27.9146 26.8543 27.7504 26.8539H12.269C12.1289 26.8554 11.9863 26.8432 11.8491 26.8778ZM11.8512 30.3795C11.5664 30.4517 11.3397 30.7191 11.3171 31.0203C11.3067 31.2236 11.2948 31.442 11.3932 31.6269C11.5157 31.8751 11.783 32.0335 12.0535 32.0243C17.3568 32.0247 22.6605 32.0254 27.9638 32.0239C28.3241 32.0335 28.6585 31.7256 28.6811 31.3562C28.6876 31.1754 28.7023 30.9857 28.6326 30.8152C28.5238 30.529 28.2285 30.3405 27.9311 30.3552C22.7108 30.3548 17.4908 30.3552 12.2704 30.3548C12.1307 30.356 11.9884 30.3456 11.8512 30.3795Z" fill="var(--fill-0, white)"/>
</g>
</svg>
