<svg preserveAspectRatio="none" width="100%" height="100%" overflow="visible" style="display: block;" viewBox="0 0 50 50" fill="none" xmlns="http://www.w3.org/2000/svg">
<g id="Frame">
<path id="Vector" d="M14.4523 26.0996H21.6806C22.2253 26.0996 22.7511 26.2996 23.1582 26.6615C23.5653 27.0234 23.8253 27.5221 23.8891 28.063L23.9046 28.3231V35.5498C23.9046 37.3993 23.3618 39.2082 22.3433 40.7523C21.3249 42.2964 19.8756 43.5077 18.1752 44.2362C16.4747 44.9646 14.5978 45.1782 12.7771 44.8504C10.9564 44.5226 9.27198 43.6679 7.93252 42.3921C6.59306 41.1164 5.65749 39.4757 5.24176 37.6734C4.82603 35.8712 4.94843 33.9866 5.59377 32.2532C6.23911 30.5198 7.37904 29.0138 8.87226 27.922C10.3655 26.8301 12.1464 26.2003 13.9942 26.1107L14.4523 26.0996ZM35.5477 26.0996C37.4172 26.0996 39.2447 26.6538 40.7991 27.6922C42.3535 28.7306 43.5651 30.2065 44.2805 31.9333C44.9959 33.6601 45.1831 35.5603 44.8184 37.3934C44.4537 39.2266 43.5534 40.9104 42.2315 42.2321C40.9095 43.5537 39.2253 44.4538 37.3917 44.8184C35.5582 45.183 33.6576 44.9959 31.9304 44.2806C30.2032 43.5654 28.727 42.3541 27.6884 40.8C26.6497 39.2459 26.0954 37.4188 26.0954 35.5498V28.3231C26.0954 27.7334 26.3297 27.1678 26.7468 26.7508C27.1639 26.3338 27.7296 26.0996 28.3194 26.0996H35.5477ZM14.4523 5C15.6936 5 16.9228 5.24444 18.0696 5.71935C19.2164 6.19427 20.2584 6.89037 21.1361 7.7679C22.0139 8.64544 22.7101 9.68722 23.1851 10.8338C23.6602 11.9803 23.9046 13.2092 23.9046 14.4502V21.6769C23.9046 22.2666 23.6703 22.8322 23.2532 23.2492C22.8361 23.6662 22.2704 23.9004 21.6806 23.9004H14.4523C11.9454 23.9004 9.54118 22.9048 7.76852 21.1325C5.99587 19.3603 5 16.9566 5 14.4502C5 11.9439 5.99587 9.54016 7.76852 7.7679C9.54118 5.99564 11.9454 5 14.4523 5ZM35.5477 5C38.0149 5.00005 40.3843 5.96454 42.1498 7.68746C43.9154 9.41039 44.9372 11.7552 44.997 14.2211C45.0568 16.687 44.1499 19.0786 42.4699 20.8851C40.79 22.6915 38.4701 23.7697 36.0058 23.8893L35.5477 23.9004H28.3194C27.7743 23.9009 27.248 23.7012 26.8404 23.3392C26.4329 22.9773 26.1725 22.4783 26.1087 21.937L26.0954 21.6769V14.4502C26.0954 13.2092 26.3398 11.9803 26.8149 10.8338C27.2899 9.68722 27.9861 8.64544 28.8639 7.7679C29.7416 6.89037 30.7836 6.19427 31.9304 5.71935C33.0772 5.24444 34.3064 5 35.5477 5Z" fill="var(--fill-0, #1A8E85)"/>
</g>
</svg>
