<svg preserveAspectRatio="none" width="100%" height="100%" overflow="visible" style="display: block;" viewBox="0 0 50 50" fill="none" xmlns="http://www.w3.org/2000/svg">
<g id="Frame">
<path id="Vector" d="M23.9716 14.9909C25.3074 14.9768 26.5829 14.4429 27.5182 13.5063C28.4535 12.5698 28.9721 11.3071 28.9603 9.99545C28.9411 9.03064 28.6321 8.09288 28.0722 7.29981C27.5123 6.50674 26.7264 5.89367 25.813 5.53751C24.8996 5.18134 23.8995 5.09795 22.938 5.29778C21.9765 5.49761 21.0965 5.97177 20.4085 6.66078C19.7204 7.3498 19.2548 8.22297 19.0702 9.17079C18.8856 10.1186 18.9901 11.0988 19.3707 11.9886C19.7512 12.8783 20.3909 13.6378 21.2094 14.1719C22.0279 14.7061 22.9888 14.991 23.9716 14.9909ZM9.00916 14.324C9.57684 14.6526 10.2059 14.8661 10.859 14.9518C11.5122 15.0375 12.1762 14.9937 12.8119 14.823C13.4475 14.6523 14.0418 14.3581 14.5596 13.958C15.0775 13.5578 15.5083 13.0597 15.8267 12.4932C16.2663 11.7317 16.4961 10.8708 16.4935 9.99545C16.5053 8.6838 15.9867 7.42112 15.0514 6.48456C14.1161 5.548 12.8405 5.01408 11.5048 5C10.3963 5.02468 9.32608 5.4029 8.45583 6.07752C7.58558 6.75213 6.96256 7.68651 6.68086 8.73949C6.39917 9.79248 6.47411 10.9069 6.89437 11.9143C7.31463 12.9218 8.05737 13.7676 9.0104 14.324M14.0287 28.2677L15.1623 19.3922C15.2369 18.7504 15.4472 18.1309 15.7797 17.5735C15.6418 17.537 15.5009 17.5127 15.3587 17.5008H13.9905C13.6584 17.5024 13.3405 17.6332 13.1063 17.8645L11.501 19.4771L9.89577 17.8524C9.7795 17.7374 9.64058 17.647 9.4875 17.5865C9.33443 17.5261 9.1704 17.4969 9.00546 17.5008H7.64715C7.02655 17.5006 6.42826 17.728 5.96957 18.1385C5.51088 18.5489 5.22487 19.1128 5.16761 19.7196L4.01057 28.5708C3.98749 28.7441 4.00231 28.9203 4.05405 29.0876C4.10579 29.2548 4.19327 29.4093 4.31064 29.5408C4.42369 29.6768 4.56605 29.7865 4.72748 29.862C4.88891 29.9374 5.06537 29.9768 5.24417 29.9773H6.61236L7.65332 40.2349C7.70624 40.8468 7.98994 41.4172 8.44883 41.8343C8.90773 42.2515 9.50874 42.4854 10.1341 42.4901H12.8705C13.4977 42.4849 14.1002 42.2492 14.5593 41.8296C15.0185 41.4099 15.301 40.8367 15.3512 40.2228L16.1786 32.1355C15.7035 31.9272 15.2766 31.6261 14.924 31.2504C14.5698 30.8427 14.3069 30.3666 14.1523 29.8527C13.9976 29.3389 13.9547 28.7988 14.0263 28.2677M45.9552 18.2404C45.937 18.2101 45.91 18.1859 45.8776 18.1708C45.8453 18.1557 45.8091 18.1503 45.7737 18.1555C44.5295 18.2656 43.276 18.0956 42.1087 17.6584C42.0433 17.622 41.9853 17.5735 41.9211 17.5371C41.5317 17.2143 41.1912 16.8387 40.9097 16.4216C40.4582 15.7288 39.8496 15.1478 39.1316 14.7242C39.0612 14.6878 38.9908 14.6393 38.9192 14.6029C37.8513 14.0616 36.7183 13.6543 35.5469 13.3904L35.4703 13.0509C35.4598 13.0135 35.4385 12.9798 35.4089 12.954C35.3793 12.9281 35.3427 12.9113 35.3036 12.9054L34.3688 12.7842C34.3209 12.7783 34.2725 12.7899 34.2327 12.8167C34.1929 12.8435 34.1644 12.8837 34.1527 12.9297L30.9249 24.5453L30.3075 19.7439C30.2541 19.1335 29.9701 18.5648 29.5112 18.1496C29.0523 17.7345 28.4519 17.5031 27.828 17.5008H26.4696C26.1375 17.5022 25.8195 17.633 25.5855 17.8645L23.9802 19.4771L22.3688 17.8524C22.2546 17.7356 22.1172 17.643 21.9651 17.5805C21.813 17.5179 21.6495 17.4867 21.4846 17.4886H20.1263C19.5076 17.4884 18.9109 17.7142 18.4524 18.1221C17.9939 18.53 17.7063 19.0908 17.6456 19.6954L16.512 28.5708C16.4631 28.8948 16.5468 29.2246 16.7449 29.4882C16.943 29.7518 17.2393 29.9276 17.569 29.9773C17.6273 29.9874 17.6864 29.9914 17.7456 29.9894H19.0915L20.1399 42.7448C20.1934 43.3564 20.4772 43.9265 20.936 44.3436C21.3948 44.7606 21.9955 44.9947 22.6207 45H25.3509C25.9792 44.9919 26.5818 44.7537 27.0405 44.332C27.4992 43.9103 27.7809 43.3356 27.8304 42.7205L28.8714 29.9894H30.2124C30.3914 29.991 30.5685 29.9538 30.7312 29.8804C30.8938 29.8071 31.038 29.6994 31.1533 29.565C31.3565 29.3326 31.4647 29.0346 31.4571 28.7284C31.7041 27.9645 32.7747 24.7151 33.1464 23.9754C33.2645 23.7482 33.4288 23.547 33.629 23.3844C33.8293 23.2217 34.0613 23.101 34.3108 23.0297C34.8012 22.9235 35.3089 22.9204 35.8005 23.0207C36.2922 23.121 36.7566 23.3225 37.1633 23.6117C37.8628 24.0233 38.6212 24.3298 39.4131 24.5211C39.9753 24.6522 40.5553 24.6931 41.1308 24.6423C41.6573 24.6101 42.1694 24.4608 42.6286 24.2058C42.659 24.1905 42.6823 24.1645 42.6941 24.1331L45.9713 18.4465C45.9901 18.4153 46 18.3797 46 18.3434C46 18.3072 45.9901 18.2716 45.9713 18.2404" fill="var(--fill-0, #1A8E85)"/>
</g>
</svg>
