<svg preserveAspectRatio="none" width="100%" height="100%" overflow="visible" style="display: block;" viewBox="0 0 50 50" fill="none" xmlns="http://www.w3.org/2000/svg">
<g id="Frame">
<path id="Union" d="M12.5551 22.54C14.6766 22.4181 16.7596 23.1438 18.3461 24.5576C19.9326 25.9716 20.893 27.9583 21.015 30.0801L25.015 34.0801L29.015 30.0801C29.2417 28.1216 30.1832 26.3154 31.6596 25.0088C33.136 23.7021 35.0435 22.9869 37.015 23C39.1368 23 41.172 23.8425 42.6723 25.3428C44.1725 26.8431 45.015 28.8783 45.015 31V45H29.015V35.8398L26.4154 38.4199C26.0408 38.7923 25.5335 39.0019 25.0053 39.002C24.4769 39.002 23.9698 38.7924 23.5951 38.4199L21.015 35.8398V45H5.01503V31C4.89303 28.8783 5.61858 26.7946 7.03261 25.208C8.44663 23.6215 10.4334 22.662 12.5551 22.54ZM13.015 5C15.1368 5.00001 17.172 5.84248 18.6723 7.34277C20.1725 8.84307 21.015 10.8783 21.015 13C21.015 15.1217 20.1725 17.1569 18.6723 18.6572C17.172 20.1575 15.1367 21 13.015 21C10.8933 21 8.85809 20.1575 7.3578 18.6572C5.85752 17.1569 5.01505 15.1217 5.01503 13C5.01503 10.8783 5.85752 8.84307 7.3578 7.34277C8.8581 5.84248 10.8933 5 13.015 5ZM37.015 5C39.1368 5 41.172 5.84248 42.6723 7.34277C44.1725 8.84307 45.015 10.8783 45.015 13C45.015 14.0505 44.8086 15.091 44.4066 16.0615C44.0046 17.0321 43.4151 17.9144 42.6723 18.6572C41.9294 19.4 41.0471 19.9886 40.0766 20.3906C39.1059 20.7927 38.0656 21 37.015 21C35.9645 21 34.9241 20.7927 33.9535 20.3906C32.983 19.9886 32.1006 19.4 31.3578 18.6572C30.615 17.9144 30.0264 17.032 29.6244 16.0615C29.2224 15.0909 29.015 14.0506 29.015 13C29.015 10.8783 29.8575 8.84306 31.3578 7.34277C32.8581 5.84249 34.8933 5.00001 37.015 5Z" fill="var(--fill-0, #1A8E85)"/>
</g>
</svg>
