<svg preserveAspectRatio="none" width="100%" height="100%" overflow="visible" style="display: block;" viewBox="0 0 50 50" fill="none" xmlns="http://www.w3.org/2000/svg">
<g id="Frame">
<path id="Vector" d="M45.415 40.8643H43.9551V20.6738C43.9551 17.5 41.3281 14.9023 38.1201 14.9023H29.375V39.4238C29.375 40.2295 28.7354 40.8643 27.915 40.8643C27.0996 40.8643 26.4551 40.2295 26.4551 39.4238V12.0215C26.4551 8.84766 23.8281 6.25 20.6201 6.25H11.875C8.66699 6.25 6.04004 8.84766 6.04004 12.0215V40.8691H4.58496C3.76953 40.8691 3.125 41.5039 3.125 42.3096C3.125 43.1152 3.76465 43.75 4.58496 43.75H45.4199C46.2354 43.75 46.8799 43.1152 46.8799 42.3096C46.875 41.499 46.2354 40.8643 45.415 40.8643ZM19.165 35.0977H13.335C12.5195 35.0977 11.875 34.4629 11.875 33.6572C11.875 32.8516 12.5146 32.2168 13.335 32.2168H19.1699C19.9854 32.2168 20.6299 32.8516 20.6299 33.6572C20.6299 34.4629 19.9854 35.0977 19.165 35.0977ZM19.165 26.4404H13.335C12.5195 26.4404 11.875 25.8057 11.875 25C11.875 24.1943 12.5146 23.5596 13.335 23.5596H19.1699C19.9854 23.5596 20.6299 24.1943 20.6299 25C20.625 25.8057 19.9854 26.4404 19.165 26.4404ZM19.165 17.7881H13.335C12.5195 17.7881 11.875 17.1533 11.875 16.3477C11.875 15.542 12.5146 14.9072 13.335 14.9072H19.1699C19.9854 14.9072 20.6299 15.542 20.6299 16.3477C20.625 17.1533 19.9854 17.7881 19.165 17.7881ZM39.585 35.0977H33.75C32.9346 35.0977 32.29 34.4629 32.29 33.6572C32.29 32.8516 32.9297 32.2168 33.75 32.2168H39.585C40.4004 32.2168 41.0449 32.8516 41.0449 33.6572C41.0449 34.4629 40.4004 35.0977 39.585 35.0977ZM39.585 26.4404H33.75C32.9346 26.4404 32.29 25.8057 32.29 25C32.29 24.1943 32.9297 23.5596 33.75 23.5596H39.585C40.4004 23.5596 41.0449 24.1943 41.0449 25C41.04 25.8057 40.4004 26.4404 39.585 26.4404Z" fill="var(--fill-0, white)"/>
</g>
</svg>
