<svg preserveAspectRatio="none" width="100%" height="100%" overflow="visible" style="display: block;" viewBox="0 0 50 50" fill="none" xmlns="http://www.w3.org/2000/svg">
<g id="Frame">
<path id="Vector" d="M8 5.2286C8.05539 4.57249 8.62938 4.00674 9.2898 4.00241C11.9477 3.9976 14.6052 4.00241 17.2631 4.00001C17.7473 3.99809 18.2076 4.32975 18.3671 4.78879C18.4588 5.01903 18.4359 5.26994 18.4326 5.51172C18.4316 7.55794 18.434 9.60416 18.4316 11.6499C16.0626 12.4935 13.8946 13.8797 12.0915 15.6375C11.9907 15.7308 11.9028 15.8587 11.7586 15.8846C11.4563 15.9606 11.1187 15.9711 10.8356 15.8226C10.6689 15.7447 10.5701 15.5808 10.4344 15.4635C9.81556 14.9319 9.19955 14.3965 8.57972 13.8653C8.25261 13.6077 8.01289 13.2231 8 12.7968V5.2286ZM21.1163 5.17429C21.1124 4.55374 21.6592 4.00001 22.2752 4.00001C24.0411 4.00145 25.8075 3.99905 27.5734 4.00097C28.1956 4.01587 28.7314 4.5922 28.7056 5.21803C28.6603 7.0614 28.6115 8.90526 28.5652 10.7486C27.699 10.6424 26.8328 10.5323 25.9608 10.4838C24.3377 10.3824 22.6969 10.5097 21.1158 10.8991C21.1153 8.99082 21.1144 7.08255 21.1163 5.17429ZM31.5445 5.17237C31.5407 4.55711 32.0798 4.00722 32.6906 4.00097C35.3323 3.99953 37.9735 4.00097 40.6152 4.00049C40.9733 3.99376 41.3324 4.1346 41.5846 4.39224C41.8439 4.63786 41.9522 4.99259 42 5.33772V12.8006C41.968 13.003 41.9575 13.2135 41.8758 13.4043C41.7822 13.6312 41.6208 13.8225 41.4375 13.9816C40.7718 14.5604 40.108 15.1415 39.4424 15.7207C39.1511 15.9942 38.8297 16.2917 38.4066 16.3057C36.4597 14.3469 34.0821 12.8545 31.545 11.7989C31.5445 9.59022 31.5455 7.38105 31.5445 5.17237ZM23.788 13.1948C26.5343 12.9842 29.3317 13.5058 31.8177 14.6998C34.6695 16.0572 37.1068 18.2687 38.7657 20.9677C39.6945 22.4737 40.3831 24.1305 40.7899 25.8557C41.3114 28.0586 41.3725 30.3706 40.9657 32.598C40.4141 35.6546 38.9581 38.5334 36.8484 40.7983C34.8146 42.995 32.1734 44.6172 29.2963 45.4137C25.6313 46.4395 21.611 46.1092 18.1589 44.5019C15.394 43.2262 13.0035 41.1449 11.3508 38.5747C10.3623 37.0447 9.63553 35.3441 9.20767 33.5704C8.6652 31.3142 8.60121 28.943 9.01188 26.6589C9.56199 23.5629 11.0208 20.6394 13.1563 18.3442C15.4289 15.8812 18.4712 14.147 21.7461 13.4788C22.4199 13.3409 23.1023 13.2462 23.788 13.1948ZM24.5244 19.5502C24.2364 19.6665 23.9962 19.8934 23.8601 20.1736C23.1228 21.6748 22.3884 23.1774 21.6506 24.678C20.0051 24.9169 18.3595 25.1582 16.7139 25.3985C16.2789 25.4572 15.8873 25.759 15.7173 26.1657C15.5363 26.5776 15.5946 27.0838 15.8639 27.4428C15.9728 27.5875 16.1108 27.7062 16.2378 27.8336C17.3495 28.9252 18.4655 30.0125 19.5748 31.1065C19.2912 32.7499 19.0151 34.3948 18.7339 36.0392C18.6704 36.3905 18.752 36.7683 18.9693 37.0524C19.2415 37.4264 19.7267 37.6273 20.1817 37.5528C20.4234 37.524 20.6349 37.3947 20.8469 37.2836C22.2337 36.5496 23.6209 35.8161 25.0081 35.0821C26.4865 35.8632 27.9635 36.6482 29.4429 37.4283C29.9415 37.6989 30.6076 37.5797 30.9815 37.151C31.2379 36.8645 31.3592 36.4588 31.2943 36.0781C31.0149 34.4198 30.7279 32.7624 30.45 31.1041C31.6152 29.9654 32.7756 28.8219 33.9403 27.6822C34.4126 27.289 34.5525 26.5522 34.2254 26.0239C34.0324 25.6913 33.6839 25.4572 33.3047 25.4048C31.6558 25.1616 30.0064 24.9251 28.358 24.6795C27.6178 23.1644 26.8753 21.6507 26.1308 20.1376C25.8471 19.5661 25.107 19.2974 24.5244 19.5502Z" fill="var(--fill-0, #1A8E85)"/>
</g>
</svg>
