<svg preserveAspectRatio="none" width="100%" height="100%" overflow="visible" style="display: block;" viewBox="0 0 50 50" fill="none" xmlns="http://www.w3.org/2000/svg">
<g id="Frame">
<path id="Vector" d="M42.4062 27.4063L42.0312 27.2187V26.5625C42.0267 23.4626 41.1778 20.4225 39.5756 17.7687C37.9734 15.1149 35.6786 12.9478 32.9375 11.5V11.0937C33.0056 10.0074 32.8505 8.91861 32.4816 7.89453C32.1128 6.87046 31.538 5.9328 30.7928 5.13941C30.0476 4.34601 29.1478 3.7137 28.1488 3.28146C27.1498 2.84922 26.0729 2.62622 24.9844 2.62622C23.8959 2.62622 22.8189 2.84922 21.82 3.28146C20.821 3.7137 19.9211 4.34601 19.1759 5.13941C18.4308 5.9328 17.856 6.87046 17.4871 7.89453C17.1183 8.91861 16.9631 10.0074 17.0312 11.0937V11.5C14.4933 12.8125 12.3397 14.7615 10.7812 17.1562C8.92368 19.9297 7.93372 23.1932 7.9375 26.5312V27.1875L7.59375 27.375C5.75795 28.44 4.42042 30.1907 3.87539 32.2418C3.33037 34.293 3.62249 36.4767 4.6875 38.3125C5.75251 40.1483 7.50317 41.4858 9.55435 42.0309C11.6055 42.5759 13.7892 42.2838 15.625 41.2187C15.7272 41.128 15.8432 41.0541 15.9687 41C18.6857 42.716 21.8334 43.6268 25.0469 43.6268C28.2604 43.6268 31.4081 42.716 34.125 41L34.4687 41.2187C35.3757 41.742 36.3768 42.0815 37.4149 42.2178C38.4531 42.3541 39.5079 42.2847 40.5192 42.0133C41.5305 41.742 42.4784 41.2742 43.3089 40.6365C44.1394 39.9988 44.8361 39.2038 45.3594 38.2969C45.8826 37.3899 46.2221 36.3888 46.3584 35.3507C46.4948 34.3125 46.4253 33.2577 46.154 32.2464C45.8826 31.2351 45.4148 30.2872 44.7771 29.4567C44.1394 28.6262 43.3444 27.9295 42.4375 27.4063H42.4062ZM31.5312 30.3437C30.7877 31.6241 30.417 33.0869 30.4612 34.5669C30.5054 36.0469 30.9626 37.485 31.7812 38.7188C29.7115 39.8852 27.3758 40.498 25 40.498C22.6242 40.498 20.2885 39.8852 18.2187 38.7188C19.0923 37.4859 19.5959 36.0292 19.6702 34.52C19.7445 33.0108 19.3865 31.5118 18.6382 30.199C17.8899 28.8863 16.7825 27.8144 15.4461 27.1093C14.1096 26.4043 12.5997 26.0953 11.0937 26.2188C11.1472 23.8696 11.7978 21.5727 12.9842 19.5444C14.1705 17.5161 15.8536 15.8231 17.875 14.625C18.5341 15.9556 19.552 17.0756 20.8137 17.8586C22.0753 18.6416 23.5307 19.0565 25.0156 19.0565C26.5005 19.0565 27.9559 18.6416 29.2176 17.8586C30.4793 17.0756 31.4971 15.9556 32.1562 14.625C34.1918 15.846 35.8826 17.5656 37.0691 19.6215C38.2556 21.6773 38.8986 24.0016 38.9375 26.375C37.4553 26.2773 35.9754 26.5974 34.6662 27.299C33.3569 28.0006 32.2707 29.0555 31.5312 30.3437Z" fill="var(--fill-0, #1A8E85)"/>
</g>
</svg>
