<svg preserveAspectRatio="none" width="100%" height="100%" overflow="visible" style="display: block;" viewBox="0 0 18 18" fill="none" xmlns="http://www.w3.org/2000/svg">
<g id="Frame">
<path id="Vector" d="M14.4431 11.1413L10.1344 16.125C9.99364 16.2878 9.81952 16.4185 9.62383 16.508C9.42814 16.5976 9.21547 16.644 9.00026 16.6441C8.78504 16.6442 8.57232 16.598 8.37655 16.5087C8.18077 16.4193 8.00652 16.2888 7.86562 16.1261L3.49163 11.0734C3.47138 11.0501 3.45412 11.0246 3.441 10.9984C2.90436 10.045 2.62327 8.96905 2.625 7.875C2.625 4.35413 5.47912 1.5 9 1.5C12.5209 1.5 15.375 4.35413 15.375 7.875C15.375 8.9955 15.0851 10.0751 14.5421 11.028C14.5171 11.0719 14.4834 11.1103 14.4431 11.1409V11.1413ZM13.9275 10.59C14.3865 9.75881 14.6265 8.82451 14.625 7.875C14.625 4.7685 12.1065 2.25 9 2.25C5.8935 2.25 3.375 4.7685 3.375 7.875C3.375 8.84737 3.62175 9.78263 4.08487 10.6125L8.43225 15.6353C8.50268 15.7167 8.58982 15.782 8.68774 15.8267C8.78565 15.8715 8.89205 15.8946 8.99971 15.8946C9.10737 15.8945 9.21375 15.8713 9.31164 15.8265C9.40953 15.7817 9.49662 15.7163 9.567 15.6349L13.9275 10.59ZM9 10.5C8.65528 10.5 8.31394 10.4321 7.99546 10.3002C7.67698 10.1683 7.3876 9.97491 7.14384 9.73116C6.90009 9.4874 6.70673 9.19802 6.57482 8.87954C6.4429 8.56106 6.375 8.21972 6.375 7.875C6.375 7.53028 6.4429 7.18894 6.57482 6.87046C6.70673 6.55198 6.90009 6.2626 7.14384 6.01884C7.3876 5.77509 7.67698 5.58173 7.99546 5.44982C8.31394 5.3179 8.65528 5.25 9 5.25C9.69619 5.25 10.3639 5.52656 10.8562 6.01884C11.3484 6.51113 11.625 7.17881 11.625 7.875C11.625 8.57119 11.3484 9.23887 10.8562 9.73116C10.3639 10.2234 9.69619 10.5 9 10.5ZM9 9.75C9.49728 9.75 9.97419 9.55246 10.3258 9.20083C10.6775 8.84919 10.875 8.37228 10.875 7.875C10.875 7.37772 10.6775 6.90081 10.3258 6.54917C9.97419 6.19754 9.49728 6 9 6C8.50272 6 8.02581 6.19754 7.67417 6.54917C7.32254 6.90081 7.125 7.37772 7.125 7.875C7.125 8.37228 7.32254 8.84919 7.67417 9.20083C8.02581 9.55246 8.50272 9.75 9 9.75Z" fill="var(--fill-0, white)"/>
</g>
</svg>
