<svg preserveAspectRatio="none" width="100%" height="100%" overflow="visible" style="display: block;" viewBox="0 0 18 18" fill="none" xmlns="http://www.w3.org/2000/svg">
<g id="Frame">
<path id="Vector" d="M14.7285 4H3.27149C2.57039 4 2 4.59226 2 5.3203V13.6797C2 14.4077 2.57037 15 3.27149 15H14.7285C15.4296 15 16 14.4077 16 13.6797V5.3203C16 4.59226 15.4296 4 14.7285 4ZM14.7285 4.90859C14.7929 4.90859 14.8538 4.92473 14.9076 4.95315L9 9.37699L3.09234 4.95324C3.14782 4.92385 3.20922 4.90855 3.27151 4.90859H14.7285ZM14.7285 14.0914H3.27149C3.05296 14.0914 2.875 13.9066 2.875 13.6797V5.91068L9 10.4972L15.125 5.91053V13.6797C15.125 13.9066 14.9473 14.0914 14.7285 14.0914Z" fill="var(--fill-0, white)"/>
</g>
</svg>
