<svg preserveAspectRatio="none" width="100%" height="100%" overflow="visible" style="display: block;" viewBox="0 0 18 18" fill="none" xmlns="http://www.w3.org/2000/svg">
<g id="Frame">
<path id="Vector" d="M11.6561 16.8297C9.30905 16.8297 6.49705 14.6694 4.65866 11.4539C2.27664 7.28691 2.32822 2.93914 4.77616 1.55584C5.30509 1.25713 5.91363 1.12093 6.5751 1.14992C6.62415 1.14239 6.67414 1.13751 6.72528 1.13633C6.72891 1.13633 6.7526 1.13597 6.756 1.13597C7.83369 1.13597 8.8187 2.47546 9.04736 4.25187C9.19659 5.4105 8.97649 6.45787 8.45889 7.05358C8.18387 7.37 7.83826 7.54216 7.45129 7.55123C7.45094 7.55123 7.40839 7.56252 7.3941 7.5799C7.37421 7.60411 7.35093 7.69018 7.38191 7.86268C7.60537 8.40858 7.87046 8.95037 8.16995 9.47445C8.49593 10.0445 8.86128 10.5904 9.25656 11.0974C9.26097 11.1024 9.26528 11.1069 9.2698 11.1114C9.33752 11.1873 9.38278 11.1873 9.40449 11.1873C9.48027 11.1873 9.57266 11.1405 9.62803 11.1047C9.88662 10.7546 10.3137 10.5632 10.8414 10.5632C11.5516 10.5632 12.3974 10.9049 13.1626 11.5007C14.5664 12.5941 15.1429 14.0641 14.6297 14.993C14.5841 15.0757 14.5795 15.0847 14.5341 15.1654C14.1942 15.6809 13.7928 16.129 13.2783 16.4197C12.7966 16.6919 12.2508 16.8297 11.6559 16.8297H11.6561ZM10.8414 11.4459C10.668 11.4459 10.439 11.4807 10.3339 11.6472C10.3103 11.6846 10.2812 11.7182 10.2478 11.7468C10.2092 11.7801 9.85762 12.07 9.40456 12.07C9.11879 12.07 8.85833 11.9579 8.64722 11.7454C8.62387 11.7257 8.60233 11.7035 8.58304 11.6789C8.14918 11.1266 7.74898 10.5311 7.39324 9.90901C7.06717 9.33848 6.77935 8.74765 6.53772 8.15306C6.52786 8.12851 6.52017 8.10316 6.5148 8.0775C6.42362 7.6407 6.48599 7.28619 6.70038 7.02454C6.98139 6.68135 7.39932 6.66851 7.43808 6.66851C7.48307 6.66731 7.62035 6.66432 7.78214 6.47824C8.12723 6.08105 8.27628 5.25082 8.162 4.36361C7.98921 3.02147 7.27731 2.01865 6.74733 2.01865C6.72632 2.01942 6.70564 2.02284 6.68538 2.02696C6.64921 2.03379 6.61212 2.03602 6.57517 2.03413C6.07106 2.00436 5.60995 2.10173 5.21909 2.32223C3.27067 3.4231 3.36998 7.40585 5.43572 11.0193C7.09452 13.9208 9.65224 15.947 11.6561 15.947C12.0935 15.947 12.4904 15.8484 12.8355 15.6533C13.216 15.4381 13.5687 15.0713 13.8044 14.6678C13.8243 14.6337 13.8497 14.5916 13.886 14.5243C14.1228 14.0851 13.6597 13.0112 12.6104 12.1942C12.0087 11.7257 11.3474 11.4459 10.8414 11.4459ZM12.2492 8.47317C12.2224 8.47317 12.1949 8.47053 12.1676 8.46555C11.9229 8.42106 11.7609 8.18918 11.8059 7.94719C11.8378 7.77427 11.8 7.59945 11.699 7.45528C11.5982 7.31069 11.4465 7.21365 11.2718 7.18192C11.0272 7.13776 10.8651 6.90561 10.91 6.66358C10.9549 6.42161 11.189 6.2615 11.4341 6.30566C11.8454 6.38009 12.2027 6.60881 12.4404 6.94901C12.6778 7.28956 12.7671 7.70112 12.6917 8.10771C12.6519 8.32249 12.4625 8.47317 12.2492 8.47317ZM13.7711 8.44099C13.7441 8.44099 13.7167 8.43844 13.6893 8.43346C13.4447 8.38931 13.2826 8.15718 13.3274 7.91512C13.5114 6.923 12.845 5.96778 11.8418 5.78578C11.5973 5.74164 11.4353 5.50941 11.4801 5.26778C11.525 5.02581 11.7603 4.8657 12.0042 4.90986C13.496 5.18025 14.487 6.60053 14.2133 8.07598C14.1735 8.29076 13.9843 8.44099 13.7711 8.44099ZM15.5142 8.92735C15.4873 8.92735 15.46 8.92513 15.4325 8.92017C15.1878 8.8756 15.026 8.64345 15.0708 8.40183C15.2549 7.40851 15.0369 6.40382 14.457 5.57248C13.877 4.7415 13.0045 4.18351 12.0004 4.00151C11.7557 3.95694 11.5937 3.72515 11.6386 3.48316C11.6836 3.24111 11.9185 3.08111 12.1627 3.12524C13.4037 3.35028 14.4816 4.03968 15.1981 5.06661C15.9149 6.09346 16.1842 7.33492 15.9567 8.56225C15.9168 8.7771 15.7274 8.92735 15.5142 8.92735Z" fill="var(--fill-0, white)"/>
</g>
</svg>
