<svg preserveAspectRatio="none" width="100%" height="100%" overflow="visible" style="display: block;" viewBox="0 0 44 44" fill="none" xmlns="http://www.w3.org/2000/svg">
<g id="Frame">
<path id="Vector" d="M22 10.8C13.6 10.8 6.6 17.8 6.6 26.4C6.6 35 13.4 42 22 42C30.4 42 37.4 35 37.4 26.4C37.4 17.8 30.4 10.8 22 10.8ZM26.4 33.6L21.8 31L17.2 33.4H17L16.8 33.2L17.8 28L14 24.2V24V23.6L19.2 22.8L21.6 18H22L24.2 22.8L29.4 23.6C29.4 23.6 29.6 23.6 29.6 23.8V24L26 28L26.8 33.4C26.8 33.4 26.8 33.6 26.6 33.6C26.6 33.8 26.4 33.6 26.4 33.6ZM15.8 2.8C15.8 2.6 15.8 2.2 16 2H7.4C6.6 2 6 2.6 6 3.4V10.4C6 10.8 6.2 11.2 6.4 11.4L8.4 13.2C8.8 13.6 9.2 13.6 9.6 13.4C11.4 11.6 13.4 10.4 15.8 9.4V2.8ZM25.4 2.8C25.4 2.4 25.6 2.2 25.6 2H18C18.2 2.2 18.2 2.6 18.2 2.8V8.6C19.4 8.4 20.6 8.2 21.8 8.2C23 8.2 24.2 8.4 25.2 8.6V2.8H25.4ZM36.6 2H27.8C28 2.2 28 2.6 28 2.8V9.4C30.4 10.4 32.6 11.8 34.4 13.6C34.8 13.6 35 13.4 35.2 13.2L37.2 11.2C37.8 11 38 10.6 38 10.2V3.4C38 2.6 37.4 2 36.6 2Z" fill="var(--fill-0, white)"/>
</g>
</svg>
