<svg preserveAspectRatio="none" width="100%" height="100%" overflow="visible" style="display: block;" viewBox="0 0 44 44" fill="none" xmlns="http://www.w3.org/2000/svg">
<g id="Frame">
<path id="Vector" d="M10.2717 15.4491C10.3705 16.1997 10.8244 16.8263 11.4495 17.225C11.4495 17.3736 11.423 17.5506 11.423 17.7006C11.2996 21.2746 13.1772 24.6504 16.3386 26.4004L16.4133 26.4485C16.4133 26.4485 17.8663 27.7743 21.8503 27.7743C25.7601 27.7743 27.2637 26.4485 27.2637 26.4485C28.8319 25.6088 30.1312 24.3451 31.0127 22.8024C31.8942 21.2597 32.3222 19.5004 32.2477 17.7261C32.2477 17.5746 32.2236 17.4231 32.2236 17.275C32.8752 16.9004 33.3022 16.2257 33.4014 15.4746V11.2249L38.0399 9.55094L39.1932 9.12487L40.3445 8.69929L21.8484 2L3.32817 8.72718L10.2717 11.2509V15.4491ZM21.8484 25.6997C17.6904 25.7512 14.155 22.649 13.6557 18.5253C16.2928 19.683 19.1217 20.3441 21.9997 20.4753C24.781 20.3432 27.5113 19.6813 30.0434 18.5253C29.8066 20.52 28.8383 22.3566 27.3252 23.6813C25.812 25.006 23.8611 25.725 21.8484 25.6997ZM12.9526 12.4507L21.8484 15.4991L30.8964 12.4507V14.8499C30.8964 15.1259 29.9162 15.4991 29.3663 15.8756C29.2429 15.9752 29.0911 16.0492 28.9654 16.1252C26.7596 17.275 24.3293 17.9016 21.8484 17.9016C19.3749 17.8735 16.9439 17.2562 14.7579 16.1012L14.3815 15.8756C13.8032 15.4991 12.9526 15.1259 12.9526 14.8499V12.4507ZM41.9979 38.8516C41.9979 33.6787 29.6921 26.9775 29.6921 26.9775L24.2305 36.8756L23.4267 34.5255L24.9327 31.5488L21.9515 28.574L18.9684 31.5488L20.472 34.5255L19.5188 36.9497L14.2321 27.0241C14.2321 27.0241 2 33.5248 2 38.8742C2 40.5001 2.67469 42 4.32864 42H39.6919C41.3218 41.9995 42.024 40.5001 41.9994 38.8492L41.9979 38.8516Z" fill="var(--fill-0, white)"/>
</g>
</svg>
