<svg preserveAspectRatio="none" width="100%" height="100%" overflow="visible" style="display: block;" viewBox="0 0 44 44" fill="none" xmlns="http://www.w3.org/2000/svg">
<g id="Frame">
<path id="Vector" d="M22.002 2C12.6058 2 5 9.66 5 19.106C5 25.106 8.10001 30.57 13.0744 33.662C13.1185 33.69 13.1545 33.726 13.1986 33.756C13.3648 33.884 13.509 34 13.6252 34.108V37.2C13.6225 37.8287 13.7441 38.4518 13.983 39.0335C14.2218 39.6152 14.5732 40.1442 15.0171 40.5901C15.4609 41.036 15.9885 41.39 16.5696 41.6319C17.1506 41.8739 17.7738 41.999 18.4033 42H25.5966C26.8674 41.9958 28.0846 41.4878 28.9806 40.5877C29.8765 39.6877 30.378 38.4692 30.3748 37.2V34.13C30.5165 33.9987 30.6634 33.8733 30.8154 33.754C31.0845 33.5433 31.3618 33.3432 31.6465 33.154L31.6625 33.178C33.9318 31.5979 35.7845 29.4927 37.0622 27.0422C38.3399 24.5918 39.0048 21.8688 39 19.106C39.008 9.662 31.4022 2 22.004 2H22.002ZM26.5679 36.628H17.4441V34.318H26.5679V36.628ZM28.1079 22.398H25.084L19.0402 16.362L13.1345 23.906H10.1106V22.398L17.5282 13.344H20.5501L26.4578 19.244L32.6377 11.834H34.1557V14.854L28.1059 22.398H28.1079Z" fill="var(--fill-0, white)"/>
</g>
</svg>
