<svg preserveAspectRatio="none" width="100%" height="100%" overflow="visible" style="display: block;" viewBox="0 0 44 44" fill="none" xmlns="http://www.w3.org/2000/svg">
<g id="Frame">
<path id="Vector" d="M39.764 39.8191C38.9732 40.6088 37.901 40.9964 36.7825 40.9964H27.9593C27.9463 40.9964 27.9356 41 27.9225 41H10.1241C8.23468 41 6.42263 40.2505 5.0866 38.9165C3.75057 37.5824 3 35.773 3 33.8863V10.1137C3 8.227 3.75057 6.41761 5.0866 5.08354C6.42263 3.74947 8.23468 3 10.1241 3H27.9225C29.8119 3 31.624 3.74947 32.96 5.08354C34.296 6.41761 35.0466 8.227 35.0466 10.1137V14.9628H36.7837C37.3374 14.9627 37.8858 15.0714 38.3974 15.283C38.909 15.4945 39.3739 15.8046 39.7654 16.1956C40.157 16.5865 40.4675 17.0507 40.6794 17.5616C40.8912 18.0725 41.0002 18.62 41 19.1729V36.8421C40.9989 37.9587 40.5544 39.0293 39.764 39.8191ZM9.008 33.6658H29.0374V32.332H9.008V33.6658ZM9.008 30.3331H29.0374V28.9993H9.008V30.3331ZM10.8163 11.304C10.89 11.6976 11.0431 12.0415 10.9992 12.358C10.6632 14.8099 10.2832 17.257 9.92701 19.7064C9.74772 20.943 9.55299 22.1796 9.4307 23.4233C9.33452 24.3955 9.7869 24.8615 10.7403 24.8923C11.2177 24.9077 11.6962 24.8982 12.1747 24.8982H14.9151C14.5019 24.2924 14.1445 23.8656 13.9011 23.3795C13.7218 23.0202 13.5651 22.5685 13.6149 22.1855C13.9355 19.7313 14.3178 17.2842 14.6752 14.8348C14.8438 13.6776 15.0017 12.5181 15.1727 11.3028L10.8163 11.304ZM26.7411 15.6694C26.2994 15.6516 26.1118 15.8259 25.9776 16.2314C25.6238 17.3044 25.2272 18.3631 24.8413 19.4254C24.7582 19.6543 24.6478 19.8736 24.5492 20.0965C24.3308 19.097 24.2429 18.1402 24.1337 17.1858C23.9627 15.6777 23.9556 15.7192 22.4453 15.6611C21.7423 15.6327 21.4408 15.8745 21.2353 16.5349C20.8613 17.7407 20.3828 18.9133 19.9483 20.1001L19.7998 20.0787L19.3783 15.7536H16.2295C16.3648 17.3127 16.5049 18.8125 16.6237 20.3135C16.7424 21.8192 16.841 23.3249 16.9538 24.8947C17.9998 24.8947 18.9533 24.9196 19.9043 24.8733C20.0931 24.865 20.3496 24.6255 20.4386 24.4287C20.7948 23.6415 21.0952 22.827 21.4218 22.0255C21.6319 21.5098 21.854 20.9976 22.0701 20.483C22.3942 21.7315 22.5462 22.942 22.7243 24.1477C22.7718 24.4726 22.7088 24.8591 23.2669 24.9065C26.0417 25.1425 26.0406 25.1579 26.9691 22.5792C27.0011 22.4891 27.0391 22.4001 27.0712 22.3088L29.4613 15.6777C28.4592 15.6789 27.5995 15.7026 26.7411 15.6694ZM39.0575 19.0603C39.058 18.7837 39.0037 18.5097 38.8979 18.2541C38.7921 17.9985 38.6368 17.7663 38.4408 17.5707C38.2449 17.3752 38.0122 17.2202 37.7562 17.1147C37.5002 17.0092 37.2258 16.9552 36.9488 16.9558H35.0454V33.8863C35.0454 34.0156 35.0146 34.1353 35.0074 34.2622V36.8409C34.9944 37.602 35.3933 38.311 36.0511 38.6952C36.7089 39.0793 37.356 39.0793 38.0138 38.6952C38.6716 38.311 39.0706 37.602 39.0575 36.8409V19.0603Z" fill="var(--fill-0, white)"/>
</g>
</svg>
